<ttFont>
<head>
    <!-- Most of this table will be recalculated by the compiler -->
    <tableVersion value="1.0"/>
    <fontRevision value="1.00002"/>
    <checkSumAdjustment value="0x9c4ba1bb"/>
    <magicNumber value="0x5f0f3cf5"/>
    <flags value="00000000 00000010"/>
    <unitsPerEm value="2048"/>
    <created value="Thu Jan  1 00:00:00 1970"/>
    <modified value="Tue Jun 11 14:20:10 2019"/>
    <xMin value="-633"/>
    <yMin value="-483"/>
    <xMax value="2214"/>
    <yMax value="1893"/>
    <macStyle value="00000000 00000000"/>
    <lowestRecPPEM value="6"/>
    <fontDirectionHint value="1"/>
    <indexToLocFormat value="0"/>
    <glyphDataFormat value="0"/>
  </head>
    <TTGlyph name="A" xMin="-633" yMin="-137" xMax="1421" yMax="1610">
      <contour>
        <pt x="438" y="1009" on="1"/>
        <pt x="430" y="1075" on="0"/>
        <pt x="505" y="1188" on="0"/>
        <pt x="582" y="1211" on="1"/>
        <pt x="657" y="1229" on="0"/>
        <pt x="802" y="1172" on="0"/>
        <pt x="825" y="1101" on="1"/>
        <pt x="829" y="1090" on="0"/>
        <pt x="866" y="1046" on="0"/>
        <pt x="821" y="967" on="1"/>
        <pt x="775" y="888" on="0"/>
        <pt x="580" y="640" on="0"/>
        <pt x="564" y="520" on="1"/>
        <pt x="499" y="619" on="0"/>
        <pt x="214" y="740" on="0"/>
        <pt x="139" y="788" on="1"/>
        <pt x="63" y="836" on="0"/>
        <pt x="69" y="883" on="0"/>
        <pt x="63" y="899" on="1"/>
        <pt x="46" y="971" on="0"/>
        <pt x="138" y="1094" on="0"/>
        <pt x="213" y="1115" on="1"/>
        <pt x="290" y="1133" on="0"/>
        <pt x="411" y="1070" on="0"/>
      </contour>
      <contour>
        <pt x="552" y="1459" on="1"/>
        <pt x="602" y="1539" on="0"/>
        <pt x="696" y="1502" on="1"/>
        <pt x="739" y="1482" on="0"/>
        <pt x="787" y="1401" on="0"/>
        <pt x="772" y="1359" on="1"/>
        <pt x="770" y="1353" on="0"/>
        <pt x="772" y="1318" on="0"/>
        <pt x="721" y="1297" on="1"/>
        <pt x="669" y="1276" on="0"/>
        <pt x="483" y="1229" on="0"/>
        <pt x="432" y="1178" on="1"/>
        <pt x="438" y="1249" on="0"/>
        <pt x="345" y="1413" on="0"/>
        <pt x="327" y="1464" on="1"/>
        <pt x="308" y="1515" on="0"/>
        <pt x="329" y="1535" on="0"/>
        <pt x="332" y="1545" on="1"/>
        <pt x="350" y="1586" on="0"/>
        <pt x="440" y="1610" on="0"/>
        <pt x="484" y="1593" on="1"/>
        <pt x="576" y="1549" on="0"/>
      </contour>
      <contour>
        <pt x="1033" y="427" on="1"/>
        <pt x="1232" y="1054" on="1"/>
        <pt x="1265" y="1161" on="0"/>
        <pt x="1290" y="1261" on="1"/>
        <pt x="1312" y="1351" on="0"/>
        <pt x="1312" y="1381" on="1"/>
        <pt x="1312" y="1399" on="0"/>
        <pt x="1306" y="1408" on="1"/>
        <pt x="1300" y="1418" on="0"/>
        <pt x="1289" y="1418" on="1"/>
        <pt x="1271" y="1418" on="0"/>
        <pt x="1245" y="1392" on="1"/>
        <pt x="1215" y="1362" on="0"/>
        <pt x="1177" y="1304" on="1"/>
        <pt x="814" y="757" on="1"/>
        <pt x="783" y="710" on="0"/>
        <pt x="725" y="627" on="0"/>
        <pt x="701" y="591" on="1"/>
        <pt x="675" y="555" on="0"/>
        <pt x="630" y="493" on="0"/>
        <pt x="612" y="468" on="1"/>
        <pt x="669" y="446" on="0"/>
        <pt x="771" y="437" on="1"/>
        <pt x="879" y="427" on="0"/>
        <pt x="1033" y="427" on="1"/>
      </contour>
      <contour>
        <pt x="1021" y="392" on="1"/>
        <pt x="924" y="393" on="0"/>
        <pt x="830" y="400" on="1"/>
        <pt x="749" y="405" on="0"/>
        <pt x="679" y="417" on="1"/>
        <pt x="745" y="343" on="0"/>
        <pt x="801" y="254" on="1"/>
        <pt x="858" y="163" on="0"/>
        <pt x="909" y="46" on="1"/>
      </contour>
      <contour>
        <pt x="-633" y="-106" on="1"/>
        <pt x="-565" y="-31" on="1"/>
        <pt x="-485" y="-56" on="0"/>
        <pt x="-427" y="-66" on="1"/>
        <pt x="-364" y="-78" on="0"/>
        <pt x="-313" y="-78" on="1"/>
        <pt x="-162" y="-78" on="0"/>
        <pt x="162" y="103" on="0"/>
        <pt x="461" y="367" on="0"/>
        <pt x="711" y="663" on="0"/>
        <pt x="788" y="777" on="1"/>
        <pt x="1109" y="1256" on="1"/>
        <pt x="1202" y="1396" on="0"/>
        <pt x="1246" y="1434" on="1"/>
        <pt x="1289" y="1471" on="0"/>
        <pt x="1335" y="1471" on="1"/>
        <pt x="1377" y="1471" on="0"/>
        <pt x="1399" y="1440" on="1"/>
        <pt x="1421" y="1410" on="0"/>
        <pt x="1421" y="1347" on="1"/>
        <pt x="1421" y="1194" on="0"/>
        <pt x="1280" y="758" on="1"/>
        <pt x="1244" y="650" on="0"/>
        <pt x="1234" y="615" on="1"/>
        <pt x="1175" y="431" on="1"/>
        <pt x="1199" y="433" on="0"/>
        <pt x="1230" y="433" on="1"/>
        <pt x="1310" y="434" on="0"/>
        <pt x="1338" y="437" on="1"/>
        <pt x="1335" y="405" on="1"/>
        <pt x="1256" y="398" on="0"/>
        <pt x="1230" y="397" on="1"/>
        <pt x="1198" y="395" on="0"/>
        <pt x="1163" y="394" on="1"/>
        <pt x="1033" y="1" on="1"/>
        <pt x="894" y="1" on="1"/>
        <pt x="824" y="176" on="0"/>
        <pt x="750" y="285" on="1"/>
        <pt x="675" y="395" on="0"/>
        <pt x="591" y="443" on="1"/>
        <pt x="407" y="226" on="0"/>
        <pt x="-105" y="-137" on="0"/>
        <pt x="-405" y="-137" on="1"/>
        <pt x="-465" y="-137" on="0"/>
        <pt x="-517" y="-130" on="1"/>
        <pt x="-567" y="-123" on="0"/>
        <pt x="-633" y="-107" on="1"/>
      </contour>
    </TTGlyph>
    <TTGlyph name="AE" xMin="-502" yMin="-14" xMax="2214" yMax="1485">
      <contour>
        <pt x="993" y="393" on="1"/>
        <pt x="982" y="394" on="0"/>
        <pt x="961" y="394" on="1"/>
        <pt x="730" y="401" on="0"/>
        <pt x="647" y="416" on="1"/>
        <pt x="702" y="357" on="0"/>
        <pt x="808" y="191" on="0"/>
        <pt x="881" y="45" on="1"/>
      </contour>
      <contour>
        <pt x="580" y="467" on="1"/>
        <pt x="638" y="445" on="0"/>
        <pt x="834" y="426" on="0"/>
        <pt x="1006" y="426" on="1"/>
        <pt x="1202" y="1053" on="1"/>
        <pt x="1237" y="1163" on="0"/>
        <pt x="1278" y="1350" on="0"/>
        <pt x="1278" y="1389" on="1"/>
        <pt x="1278" y="1402" on="0"/>
        <pt x="1267" y="1417" on="0"/>
        <pt x="1257" y="1417" on="1"/>
        <pt x="1239" y="1417" on="0"/>
        <pt x="1186" y="1364" on="0"/>
        <pt x="1145" y="1303" on="1"/>
        <pt x="782" y="755" on="1"/>
        <pt x="776" y="746" on="0"/>
        <pt x="761" y="724" on="1"/>
        <pt x="666" y="582" on="0"/>
      </contour>
      <contour>
        <pt x="-502" y="23" on="1"/>
        <pt x="-434" y="98" on="1"/>
        <pt x="-358" y="75" on="0"/>
        <pt x="-233" y="51" on="0"/>
        <pt x="-182" y="51" on="1"/>
        <pt x="47" y="51" on="0"/>
        <pt x="509" y="408" on="0"/>
        <pt x="756" y="776" on="1"/>
        <pt x="1077" y="1255" on="1"/>
        <pt x="1171" y="1395" on="0"/>
        <pt x="1257" y="1470" on="0"/>
        <pt x="1303" y="1470" on="1"/>
        <pt x="1346" y="1470" on="0"/>
        <pt x="1389" y="1409" on="0"/>
        <pt x="1389" y="1348" on="1"/>
        <pt x="1389" y="1252" on="0"/>
        <pt x="1283" y="888" on="0"/>
        <pt x="1176" y="612" on="1"/>
        <pt x="1279" y="723" on="0"/>
        <pt x="1532" y="901" on="0"/>
        <pt x="1532" y="909" on="1"/>
        <pt x="1532" y="921" on="0"/>
        <pt x="1517" y="941" on="1"/>
        <pt x="1510" y="950" on="0"/>
        <pt x="1507" y="955" on="1"/>
        <pt x="1475" y="1012" on="1"/>
        <pt x="1457" y="1042" on="0"/>
        <pt x="1444" y="1087" on="0"/>
        <pt x="1444" y="1110" on="1"/>
        <pt x="1444" y="1170" on="0"/>
        <pt x="1527" y="1293" on="0"/>
        <pt x="1606" y="1350" on="1"/>
        <pt x="1697" y="1415" on="0"/>
        <pt x="1905" y="1485" on="0"/>
        <pt x="2011" y="1485" on="1"/>
        <pt x="2115" y="1485" on="0"/>
        <pt x="2214" y="1392" on="0"/>
        <pt x="2214" y="1296" on="1"/>
        <pt x="2214" y="1259" on="0"/>
        <pt x="2183" y="1146" on="0"/>
        <pt x="2152" y="1071" on="1"/>
        <pt x="2034" y="1053" on="1"/>
        <pt x="2101" y="1205" on="0"/>
        <pt x="2146" y="1339" on="0"/>
        <pt x="2146" y="1376" on="1"/>
        <pt x="2146" y="1416" on="0"/>
        <pt x="2089" y="1458" on="0"/>
        <pt x="2034" y="1458" on="1"/>
        <pt x="1977" y="1458" on="0"/>
        <pt x="1839" y="1400" on="0"/>
        <pt x="1767" y="1346" on="1"/>
        <pt x="1663" y="1265" on="0"/>
        <pt x="1534" y="1086" on="0"/>
        <pt x="1534" y="1026" on="1"/>
        <pt x="1534" y="965" on="0"/>
        <pt x="1634" y="817" on="0"/>
        <pt x="1634" y="807" on="1"/>
        <pt x="1634" y="780" on="0"/>
        <pt x="1531" y="726" on="1"/>
        <pt x="1486" y="703" on="0"/>
        <pt x="1460" y="688" on="1"/>
        <pt x="1258" y="574" on="0"/>
        <pt x="1071" y="364" on="0"/>
        <pt x="1071" y="252" on="1"/>
        <pt x="1071" y="150" on="0"/>
        <pt x="1228" y="31" on="0"/>
        <pt x="1362" y="31" on="1"/>
        <pt x="1479" y="31" on="0"/>
        <pt x="1778" y="129" on="0"/>
        <pt x="1976" y="233" on="1"/>
        <pt x="1952" y="90" on="1"/>
        <pt x="1786" y="36" on="0"/>
        <pt x="1535" y="-14" on="0"/>
        <pt x="1432" y="-14" on="1"/>
        <pt x="1271" y="-14" on="0"/>
        <pt x="1079" y="71" on="0"/>
        <pt x="1042" y="160" on="1"/>
        <pt x="1001" y="0" on="1"/>
        <pt x="862" y="0" on="1"/>
        <pt x="793" y="174" on="0"/>
        <pt x="642" y="395" on="0"/>
        <pt x="559" y="442" on="1"/>
        <pt x="360" y="207" on="0"/>
        <pt x="-39" y="-8" on="0"/>
        <pt x="-274" y="-8" on="1"/>
        <pt x="-330" y="-8" on="0"/>
        <pt x="-443" y="7" on="0"/>
      </contour>
    </TTGlyph>
    <TTGlyph name="Aacute" xMin="-633" yMin="-137" xMax="1606" yMax="1811">
      <contour>
        <pt x="438" y="1009" on="1"/>
        <pt x="430" y="1075" on="0"/>
        <pt x="505" y="1188" on="0"/>
        <pt x="582" y="1211" on="1"/>
        <pt x="657" y="1229" on="0"/>
        <pt x="802" y="1172" on="0"/>
        <pt x="825" y="1101" on="1"/>
        <pt x="829" y="1090" on="0"/>
        <pt x="866" y="1046" on="0"/>
        <pt x="821" y="967" on="1"/>
        <pt x="775" y="888" on="0"/>
        <pt x="580" y="640" on="0"/>
        <pt x="564" y="520" on="1"/>
        <pt x="499" y="619" on="0"/>
        <pt x="214" y="740" on="0"/>
        <pt x="139" y="788" on="1"/>
        <pt x="63" y="836" on="0"/>
        <pt x="69" y="883" on="0"/>
        <pt x="63" y="899" on="1"/>
        <pt x="46" y="971" on="0"/>
        <pt x="138" y="1094" on="0"/>
        <pt x="213" y="1115" on="1"/>
        <pt x="290" y="1133" on="0"/>
        <pt x="411" y="1070" on="0"/>
      </contour>
      <contour>
        <pt x="552" y="1459" on="1"/>
        <pt x="602" y="1539" on="0"/>
        <pt x="696" y="1502" on="1"/>
        <pt x="739" y="1482" on="0"/>
        <pt x="787" y="1401" on="0"/>
        <pt x="772" y="1359" on="1"/>
        <pt x="770" y="1353" on="0"/>
        <pt x="772" y="1318" on="0"/>
        <pt x="721" y="1297" on="1"/>
        <pt x="669" y="1276" on="0"/>
        <pt x="483" y="1229" on="0"/>
        <pt x="432" y="1178" on="1"/>
        <pt x="438" y="1249" on="0"/>
        <pt x="345" y="1413" on="0"/>
        <pt x="327" y="1464" on="1"/>
        <pt x="308" y="1515" on="0"/>
        <pt x="329" y="1535" on="0"/>
        <pt x="332" y="1545" on="1"/>
        <pt x="350" y="1586" on="0"/>
        <pt x="440" y="1610" on="0"/>
        <pt x="484" y="1593" on="1"/>
        <pt x="576" y="1549" on="0"/>
      </contour>
      <contour>
        <pt x="1033" y="427" on="1"/>
        <pt x="1232" y="1054" on="1"/>
        <pt x="1265" y="1161" on="0"/>
        <pt x="1290" y="1261" on="1"/>
        <pt x="1312" y="1351" on="0"/>
        <pt x="1312" y="1381" on="1"/>
        <pt x="1312" y="1399" on="0"/>
        <pt x="1306" y="1408" on="1"/>
        <pt x="1300" y="1418" on="0"/>
        <pt x="1289" y="1418" on="1"/>
        <pt x="1271" y="1418" on="0"/>
        <pt x="1245" y="1392" on="1"/>
        <pt x="1215" y="1362" on="0"/>
        <pt x="1177" y="1304" on="1"/>
        <pt x="814" y="757" on="1"/>
        <pt x="783" y="710" on="0"/>
        <pt x="725" y="627" on="0"/>
        <pt x="701" y="591" on="1"/>
        <pt x="675" y="555" on="0"/>
        <pt x="630" y="493" on="0"/>
        <pt x="612" y="468" on="1"/>
        <pt x="669" y="446" on="0"/>
        <pt x="771" y="437" on="1"/>
        <pt x="879" y="427" on="0"/>
        <pt x="1033" y="427" on="1"/>
      </contour>
      <contour>
        <pt x="1021" y="392" on="1"/>
        <pt x="924" y="393" on="0"/>
        <pt x="830" y="400" on="1"/>
        <pt x="749" y="405" on="0"/>
        <pt x="679" y="417" on="1"/>
        <pt x="745" y="343" on="0"/>
        <pt x="801" y="254" on="1"/>
        <pt x="858" y="163" on="0"/>
        <pt x="909" y="46" on="1"/>
      </contour>
      <contour>
        <pt x="-633" y="-106" on="1"/>
        <pt x="-565" y="-31" on="1"/>
        <pt x="-485" y="-56" on="0"/>
        <pt x="-427" y="-66" on="1"/>
        <pt x="-364" y="-78" on="0"/>
        <pt x="-313" y="-78" on="1"/>
        <pt x="-162" y="-78" on="0"/>
        <pt x="162" y="103" on="0"/>
        <pt x="461" y="367" on="0"/>
        <pt x="711" y="663" on="0"/>
        <pt x="788" y="777" on="1"/>
        <pt x="1109" y="1256" on="1"/>
        <pt x="1202" y="1396" on="0"/>
        <pt x="1246" y="1434" on="1"/>
        <pt x="1289" y="1471" on="0"/>
        <pt x="1335" y="1471" on="1"/>
        <pt x="1377" y="1471" on="0"/>
        <pt x="1399" y="1440" on="1"/>
        <pt x="1421" y="1410" on="0"/>
        <pt x="1421" y="1347" on="1"/>
        <pt x="1421" y="1194" on="0"/>
        <pt x="1280" y="758" on="1"/>
        <pt x="1244" y="650" on="0"/>
        <pt x="1234" y="615" on="1"/>
        <pt x="1175" y="431" on="1"/>
        <pt x="1199" y="433" on="0"/>
        <pt x="1230" y="433" on="1"/>
        <pt x="1310" y="434" on="0"/>
        <pt x="1338" y="437" on="1"/>
        <pt x="1335" y="405" on="1"/>
        <pt x="1256" y="398" on="0"/>
        <pt x="1230" y="397" on="1"/>
        <pt x="1198" y="395" on="0"/>
        <pt x="1163" y="394" on="1"/>
        <pt x="1033" y="1" on="1"/>
        <pt x="894" y="1" on="1"/>
        <pt x="824" y="176" on="0"/>
        <pt x="750" y="285" on="1"/>
        <pt x="675" y="395" on="0"/>
        <pt x="591" y="443" on="1"/>
        <pt x="407" y="226" on="0"/>
        <pt x="-105" y="-137" on="0"/>
        <pt x="-405" y="-137" on="1"/>
        <pt x="-465" y="-137" on="0"/>
        <pt x="-517" y="-130" on="1"/>
        <pt x="-567" y="-123" on="0"/>
        <pt x="-633" y="-107" on="1"/>
      </contour>
      <contour>
        <pt x="1364" y="1559" on="1"/>
        <pt x="1357" y="1559" on="0"/>
        <pt x="1353" y="1563" on="1"/>
        <pt x="1350" y="1566" on="0"/>
        <pt x="1350" y="1572" on="1"/>
        <pt x="1350" y="1573" on="0"/>
        <pt x="1402" y="1605" on="1"/>
        <pt x="1455" y="1636" on="0"/>
        <pt x="1478" y="1678" on="1"/>
        <pt x="1492" y="1701" on="0"/>
        <pt x="1504" y="1746" on="1"/>
        <pt x="1525" y="1811" on="0"/>
        <pt x="1561" y="1811" on="1"/>
        <pt x="1580" y="1811" on="0"/>
        <pt x="1593" y="1798" on="1"/>
        <pt x="1606" y="1783" on="0"/>
        <pt x="1606" y="1762" on="1"/>
        <pt x="1606" y="1740" on="0"/>
        <pt x="1587" y="1712" on="1"/>
        <pt x="1565" y="1682" on="0"/>
        <pt x="1527" y="1651" on="1"/>
        <pt x="1482" y="1612" on="0"/>
        <pt x="1432" y="1586" on="1"/>
        <pt x="1381" y="1559" on="0"/>
      </contour>
    </TTGlyph>
    <TTGlyph name="Acircumflex" xMin="-633" yMin="-137" xMax="1565" yMax="1793">
      <contour>
        <pt x="438" y="1009" on="1"/>
        <pt x="430" y="1075" on="0"/>
        <pt x="505" y="1188" on="0"/>
        <pt x="582" y="1211" on="1"/>
        <pt x="657" y="1229" on="0"/>
        <pt x="802" y="1172" on="0"/>
        <pt x="825" y="1101" on="1"/>
        <pt x="829" y="1090" on="0"/>
        <pt x="866" y="1046" on="0"/>
        <pt x="821" y="967" on="1"/>
        <pt x="775" y="888" on="0"/>
        <pt x="580" y="640" on="0"/>
        <pt x="564" y="520" on="1"/>
        <pt x="499" y="619" on="0"/>
        <pt x="214" y="740" on="0"/>
        <pt x="139" y="788" on="1"/>
        <pt x="63" y="836" on="0"/>
        <pt x="69" y="883" on="0"/>
        <pt x="63" y="899" on="1"/>
        <pt x="46" y="971" on="0"/>
        <pt x="138" y="1094" on="0"/>
        <pt x="213" y="1115" on="1"/>
        <pt x="290" y="1133" on="0"/>
        <pt x="411" y="1070" on="0"/>
      </contour>
      <contour>
        <pt x="552" y="1459" on="1"/>
        <pt x="602" y="1539" on="0"/>
        <pt x="696" y="1502" on="1"/>
        <pt x="739" y="1482" on="0"/>
        <pt x="787" y="1401" on="0"/>
        <pt x="772" y="1359" on="1"/>
        <pt x="770" y="1353" on="0"/>
        <pt x="772" y="1318" on="0"/>
        <pt x="721" y="1297" on="1"/>
        <pt x="669" y="1276" on="0"/>
        <pt x="483" y="1229" on="0"/>
        <pt x="432" y="1178" on="1"/>
        <pt x="438" y="1249" on="0"/>
        <pt x="345" y="1413" on="0"/>
        <pt x="327" y="1464" on="1"/>
        <pt x="308" y="1515" on="0"/>
        <pt x="329" y="1535" on="0"/>
        <pt x="332" y="1545" on="1"/>
        <pt x="350" y="1586" on="0"/>
        <pt x="440" y="1610" on="0"/>
        <pt x="484" y="1593" on="1"/>
        <pt x="576" y="1549" on="0"/>
      </contour>
      <contour>
        <pt x="1033" y="427" on="1"/>
        <pt x="1232" y="1054" on="1"/>
        <pt x="1265" y="1161" on="0"/>
        <pt x="1290" y="1261" on="1"/>
        <pt x="1312" y="1351" on="0"/>
        <pt x="1312" y="1381" on="1"/>
        <pt x="1312" y="1399" on="0"/>
        <pt x="1306" y="1408" on="1"/>
        <pt x="1300" y="1418" on="0"/>
        <pt x="1289" y="1418" on="1"/>
        <pt x="1271" y="1418" on="0"/>
        <pt x="1245" y="1392" on="1"/>
        <pt x="1215" y="1362" on="0"/>
        <pt x="1177" y="1304" on="1"/>
        <pt x="814" y="757" on="1"/>
        <pt x="783" y="710" on="0"/>
        <pt x="725" y="627" on="0"/>
        <pt x="701" y="591" on="1"/>
        <pt x="675" y="555" on="0"/>
        <pt x="630" y="493" on="0"/>
        <pt x="612" y="468" on="1"/>
        <pt x="669" y="446" on="0"/>
        <pt x="771" y="437" on="1"/>
        <pt x="879" y="427" on="0"/>
        <pt x="1033" y="427" on="1"/>
      </contour>
      <contour>
        <pt x="1021" y="392" on="1"/>
        <pt x="924" y="393" on="0"/>
        <pt x="830" y="400" on="1"/>
        <pt x="749" y="405" on="0"/>
        <pt x="679" y="417" on="1"/>
        <pt x="745" y="343" on="0"/>
        <pt x="801" y="254" on="1"/>
        <pt x="858" y="163" on="0"/>
        <pt x="909" y="46" on="1"/>
      </contour>
      <contour>
        <pt x="-633" y="-106" on="1"/>
        <pt x="-565" y="-31" on="1"/>
        <pt x="-485" y="-56" on="0"/>
        <pt x="-427" y="-66" on="1"/>
        <pt x="-364" y="-78" on="0"/>
        <pt x="-313" y="-78" on="1"/>
        <pt x="-162" y="-78" on="0"/>
        <pt x="162" y="103" on="0"/>
        <pt x="461" y="367" on="0"/>
        <pt x="711" y="663" on="0"/>
        <pt x="788" y="777" on="1"/>
        <pt x="1109" y="1256" on="1"/>
        <pt x="1202" y="1396" on="0"/>
        <pt x="1246" y="1434" on="1"/>
        <pt x="1289" y="1471" on="0"/>
        <pt x="1335" y="1471" on="1"/>
        <pt x="1377" y="1471" on="0"/>
        <pt x="1399" y="1440" on="1"/>
        <pt x="1421" y="1410" on="0"/>
        <pt x="1421" y="1347" on="1"/>
        <pt x="1421" y="1194" on="0"/>
        <pt x="1280" y="758" on="1"/>
        <pt x="1244" y="650" on="0"/>
        <pt x="1234" y="615" on="1"/>
        <pt x="1175" y="431" on="1"/>
        <pt x="1199" y="433" on="0"/>
        <pt x="1230" y="433" on="1"/>
        <pt x="1310" y="434" on="0"/>
        <pt x="1338" y="437" on="1"/>
        <pt x="1335" y="405" on="1"/>
        <pt x="1256" y="398" on="0"/>
        <pt x="1230" y="397" on="1"/>
        <pt x="1198" y="395" on="0"/>
        <pt x="1163" y="394" on="1"/>
        <pt x="1033" y="1" on="1"/>
        <pt x="894" y="1" on="1"/>
        <pt x="824" y="176" on="0"/>
        <pt x="750" y="285" on="1"/>
        <pt x="675" y="395" on="0"/>
        <pt x="591" y="443" on="1"/>
        <pt x="407" y="226" on="0"/>
        <pt x="-105" y="-137" on="0"/>
        <pt x="-405" y="-137" on="1"/>
        <pt x="-465" y="-137" on="0"/>
        <pt x="-517" y="-130" on="1"/>
        <pt x="-567" y="-123" on="0"/>
        <pt x="-633" y="-107" on="1"/>
      </contour>
      <contour>
        <pt x="1432" y="1793" on="1"/>
        <pt x="1462" y="1793" on="1"/>
        <pt x="1485" y="1710" on="0"/>
        <pt x="1525" y="1637" on="1"/>
        <pt x="1565" y="1560" on="0"/>
        <pt x="1565" y="1558" on="1"/>
        <pt x="1564" y="1555" on="0"/>
        <pt x="1563" y="1552" on="0"/>
        <pt x="1563" y="1552" on="1"/>
        <pt x="1562" y="1552" on="0"/>
        <pt x="1557" y="1551" on="0"/>
        <pt x="1554" y="1551" on="1"/>
        <pt x="1541" y="1551" on="0"/>
        <pt x="1505" y="1589" on="1"/>
        <pt x="1468" y="1627" on="0"/>
        <pt x="1432" y="1683" on="1"/>
        <pt x="1366" y="1623" on="0"/>
        <pt x="1308" y="1588" on="1"/>
        <pt x="1248" y="1551" on="0"/>
        <pt x="1224" y="1551" on="1"/>
        <pt x="1219" y="1551" on="0"/>
        <pt x="1215" y="1553" on="1"/>
        <pt x="1212" y="1556" on="0"/>
        <pt x="1212" y="1561" on="1"/>
        <pt x="1212" y="1564" on="0"/>
        <pt x="1290" y="1636" on="1"/>
        <pt x="1370" y="1710" on="0"/>
      </contour>
    </TTGlyph>
    <TTGlyph name="Adieresis" xMin="-633" yMin="-137" xMax="1541" yMax="1681">
      <contour>
        <pt x="438" y="1009" on="1"/>
        <pt x="430" y="1075" on="0"/>
        <pt x="505" y="1188" on="0"/>
        <pt x="582" y="1211" on="1"/>
        <pt x="657" y="1229" on="0"/>
        <pt x="802" y="1172" on="0"/>
        <pt x="825" y="1101" on="1"/>
        <pt x="829" y="1090" on="0"/>
        <pt x="866" y="1046" on="0"/>
        <pt x="821" y="967" on="1"/>
        <pt x="775" y="888" on="0"/>
        <pt x="580" y="640" on="0"/>
        <pt x="564" y="520" on="1"/>
        <pt x="499" y="619" on="0"/>
        <pt x="214" y="740" on="0"/>
        <pt x="139" y="788" on="1"/>
        <pt x="63" y="836" on="0"/>
        <pt x="69" y="883" on="0"/>
        <pt x="63" y="899" on="1"/>
        <pt x="46" y="971" on="0"/>
        <pt x="138" y="1094" on="0"/>
        <pt x="213" y="1115" on="1"/>
        <pt x="290" y="1133" on="0"/>
        <pt x="411" y="1070" on="0"/>
      </contour>
      <contour>
        <pt x="552" y="1459" on="1"/>
        <pt x="602" y="1539" on="0"/>
        <pt x="696" y="1502" on="1"/>
        <pt x="739" y="1482" on="0"/>
        <pt x="787" y="1401" on="0"/>
        <pt x="772" y="1359" on="1"/>
        <pt x="770" y="1353" on="0"/>
        <pt x="772" y="1318" on="0"/>
        <pt x="721" y="1297" on="1"/>
        <pt x="669" y="1276" on="0"/>
        <pt x="483" y="1229" on="0"/>
        <pt x="432" y="1178" on="1"/>
        <pt x="438" y="1249" on="0"/>
        <pt x="345" y="1413" on="0"/>
        <pt x="327" y="1464" on="1"/>
        <pt x="308" y="1515" on="0"/>
        <pt x="329" y="1535" on="0"/>
        <pt x="332" y="1545" on="1"/>
        <pt x="350" y="1586" on="0"/>
        <pt x="440" y="1610" on="0"/>
        <pt x="484" y="1593" on="1"/>
        <pt x="576" y="1549" on="0"/>
      </contour>
      <contour>
        <pt x="1033" y="427" on="1"/>
        <pt x="1232" y="1054" on="1"/>
        <pt x="1265" y="1161" on="0"/>
        <pt x="1290" y="1261" on="1"/>
        <pt x="1312" y="1351" on="0"/>
        <pt x="1312" y="1381" on="1"/>
        <pt x="1312" y="1399" on="0"/>
        <pt x="1306" y="1408" on="1"/>
        <pt x="1300" y="1418" on="0"/>
        <pt x="1289" y="1418" on="1"/>
        <pt x="1271" y="1418" on="0"/>
        <pt x="1245" y="1392" on="1"/>
        <pt x="1215" y="1362" on="0"/>
        <pt x="1177" y="1304" on="1"/>
        <pt x="814" y="757" on="1"/>
        <pt x="783" y="710" on="0"/>
        <pt x="725" y="627" on="0"/>
        <pt x="701" y="591" on="1"/>
        <pt x="675" y="555" on="0"/>
        <pt x="630" y="493" on="0"/>
        <pt x="612" y="468" on="1"/>
        <pt x="669" y="446" on="0"/>
        <pt x="771" y="437" on="1"/>
        <pt x="879" y="427" on="0"/>
        <pt x="1033" y="427" on="1"/>
      </contour>
      <contour>
        <pt x="1021" y="392" on="1"/>
        <pt x="924" y="393" on="0"/>
        <pt x="830" y="400" on="1"/>
        <pt x="749" y="405" on="0"/>
        <pt x="679" y="417" on="1"/>
        <pt x="745" y="343" on="0"/>
        <pt x="801" y="254" on="1"/>
        <pt x="858" y="163" on="0"/>
        <pt x="909" y="46" on="1"/>
      </contour>
      <contour>
        <pt x="-633" y="-106" on="1"/>
        <pt x="-565" y="-31" on="1"/>
        <pt x="-485" y="-56" on="0"/>
        <pt x="-427" y="-66" on="1"/>
        <pt x="-364" y="-78" on="0"/>
        <pt x="-313" y="-78" on="1"/>
        <pt x="-162" y="-78" on="0"/>
        <pt x="162" y="103" on="0"/>
        <pt x="461" y="367" on="0"/>
        <pt x="711" y="663" on="0"/>
        <pt x="788" y="777" on="1"/>
        <pt x="1109" y="1256" on="1"/>
        <pt x="1202" y="1396" on="0"/>
        <pt x="1246" y="1434" on="1"/>
        <pt x="1289" y="1471" on="0"/>
        <pt x="1335" y="1471" on="1"/>
        <pt x="1377" y="1471" on="0"/>
        <pt x="1399" y="1440" on="1"/>
        <pt x="1421" y="1410" on="0"/>
        <pt x="1421" y="1347" on="1"/>
        <pt x="1421" y="1194" on="0"/>
        <pt x="1280" y="758" on="1"/>
        <pt x="1244" y="650" on="0"/>
        <pt x="1234" y="615" on="1"/>
        <pt x="1175" y="431" on="1"/>
        <pt x="1199" y="433" on="0"/>
        <pt x="1230" y="433" on="1"/>
        <pt x="1310" y="434" on="0"/>
        <pt x="1338" y="437" on="1"/>
        <pt x="1335" y="405" on="1"/>
        <pt x="1256" y="398" on="0"/>
        <pt x="1230" y="397" on="1"/>
        <pt x="1198" y="395" on="0"/>
        <pt x="1163" y="394" on="1"/>
        <pt x="1033" y="1" on="1"/>
        <pt x="894" y="1" on="1"/>
        <pt x="824" y="176" on="0"/>
        <pt x="750" y="285" on="1"/>
        <pt x="675" y="395" on="0"/>
        <pt x="591" y="443" on="1"/>
        <pt x="407" y="226" on="0"/>
        <pt x="-105" y="-137" on="0"/>
        <pt x="-405" y="-137" on="1"/>
        <pt x="-465" y="-137" on="0"/>
        <pt x="-517" y="-130" on="1"/>
        <pt x="-567" y="-123" on="0"/>
        <pt x="-633" y="-107" on="1"/>
      </contour>
      <contour>
        <pt x="1186" y="1624" on="1"/>
        <pt x="1186" y="1648" on="0"/>
        <pt x="1202" y="1664" on="1"/>
        <pt x="1217" y="1681" on="0"/>
        <pt x="1240" y="1681" on="1"/>
        <pt x="1263" y="1681" on="0"/>
        <pt x="1280" y="1664" on="1"/>
        <pt x="1297" y="1647" on="0"/>
        <pt x="1297" y="1624" on="1"/>
        <pt x="1297" y="1602" on="0"/>
        <pt x="1281" y="1586" on="1"/>
        <pt x="1265" y="1570" on="0"/>
        <pt x="1240" y="1570" on="1"/>
        <pt x="1216" y="1570" on="0"/>
        <pt x="1202" y="1586" on="1"/>
        <pt x="1186" y="1600" on="0"/>
      </contour>
      <contour>
        <pt x="1430" y="1625" on="1"/>
        <pt x="1430" y="1646" on="0"/>
        <pt x="1446" y="1664" on="1"/>
        <pt x="1463" y="1681" on="0"/>
        <pt x="1486" y="1681" on="1"/>
        <pt x="1509" y="1681" on="0"/>
        <pt x="1525" y="1665" on="1"/>
        <pt x="1541" y="1649" on="0"/>
        <pt x="1541" y="1625" on="1"/>
        <pt x="1541" y="1600" on="0"/>
        <pt x="1525" y="1586" on="1"/>
        <pt x="1510" y="1570" on="0"/>
        <pt x="1486" y="1570" on="1"/>
        <pt x="1462" y="1570" on="0"/>
        <pt x="1446" y="1586" on="1"/>
        <pt x="1430" y="1602" on="0"/>
      </contour>
    </TTGlyph>
    <TTGlyph name="Agrave" xMin="-633" yMin="-137" xMax="1438" yMax="1799">
      <contour>
        <pt x="438" y="1009" on="1"/>
        <pt x="430" y="1075" on="0"/>
        <pt x="505" y="1188" on="0"/>
        <pt x="582" y="1211" on="1"/>
        <pt x="657" y="1229" on="0"/>
        <pt x="802" y="1172" on="0"/>
        <pt x="825" y="1101" on="1"/>
        <pt x="829" y="1090" on="0"/>
        <pt x="866" y="1046" on="0"/>
        <pt x="821" y="967" on="1"/>
        <pt x="775" y="888" on="0"/>
        <pt x="580" y="640" on="0"/>
        <pt x="564" y="520" on="1"/>
        <pt x="499" y="619" on="0"/>
        <pt x="214" y="740" on="0"/>
        <pt x="139" y="788" on="1"/>
        <pt x="63" y="836" on="0"/>
        <pt x="69" y="883" on="0"/>
        <pt x="63" y="899" on="1"/>
        <pt x="46" y="971" on="0"/>
        <pt x="138" y="1094" on="0"/>
        <pt x="213" y="1115" on="1"/>
        <pt x="290" y="1133" on="0"/>
        <pt x="411" y="1070" on="0"/>
      </contour>
      <contour>
        <pt x="552" y="1459" on="1"/>
        <pt x="602" y="1539" on="0"/>
        <pt x="696" y="1502" on="1"/>
        <pt x="739" y="1482" on="0"/>
        <pt x="787" y="1401" on="0"/>
        <pt x="772" y="1359" on="1"/>
        <pt x="770" y="1353" on="0"/>
        <pt x="772" y="1318" on="0"/>
        <pt x="721" y="1297" on="1"/>
        <pt x="669" y="1276" on="0"/>
        <pt x="483" y="1229" on="0"/>
        <pt x="432" y="1178" on="1"/>
        <pt x="438" y="1249" on="0"/>
        <pt x="345" y="1413" on="0"/>
        <pt x="327" y="1464" on="1"/>
        <pt x="308" y="1515" on="0"/>
        <pt x="329" y="1535" on="0"/>
        <pt x="332" y="1545" on="1"/>
        <pt x="350" y="1586" on="0"/>
        <pt x="440" y="1610" on="0"/>
        <pt x="484" y="1593" on="1"/>
        <pt x="576" y="1549" on="0"/>
      </contour>
      <contour>
        <pt x="1033" y="427" on="1"/>
        <pt x="1232" y="1054" on="1"/>
        <pt x="1265" y="1161" on="0"/>
        <pt x="1290" y="1261" on="1"/>
        <pt x="1312" y="1351" on="0"/>
        <pt x="1312" y="1381" on="1"/>
        <pt x="1312" y="1399" on="0"/>
        <pt x="1306" y="1408" on="1"/>
        <pt x="1300" y="1418" on="0"/>
        <pt x="1289" y="1418" on="1"/>
        <pt x="1271" y="1418" on="0"/>
        <pt x="1245" y="1392" on="1"/>
        <pt x="1215" y="1362" on="0"/>
        <pt x="1177" y="1304" on="1"/>
        <pt x="814" y="757" on="1"/>
        <pt x="783" y="710" on="0"/>
        <pt x="725" y="627" on="0"/>
        <pt x="701" y="591" on="1"/>
        <pt x="675" y="555" on="0"/>
        <pt x="630" y="493" on="0"/>
        <pt x="612" y="468" on="1"/>
        <pt x="669" y="446" on="0"/>
        <pt x="771" y="437" on="1"/>
        <pt x="879" y="427" on="0"/>
        <pt x="1033" y="427" on="1"/>
      </contour>
      <contour>
        <pt x="1021" y="392" on="1"/>
        <pt x="924" y="393" on="0"/>
        <pt x="830" y="400" on="1"/>
        <pt x="749" y="405" on="0"/>
        <pt x="679" y="417" on="1"/>
        <pt x="745" y="343" on="0"/>
        <pt x="801" y="254" on="1"/>
        <pt x="858" y="163" on="0"/>
        <pt x="909" y="46" on="1"/>
      </contour>
      <contour>
        <pt x="-633" y="-106" on="1"/>
        <pt x="-565" y="-31" on="1"/>
        <pt x="-485" y="-56" on="0"/>
        <pt x="-427" y="-66" on="1"/>
        <pt x="-364" y="-78" on="0"/>
        <pt x="-313" y="-78" on="1"/>
        <pt x="-162" y="-78" on="0"/>
        <pt x="162" y="103" on="0"/>
        <pt x="461" y="367" on="0"/>
        <pt x="711" y="663" on="0"/>
        <pt x="788" y="777" on="1"/>
        <pt x="1109" y="1256" on="1"/>
        <pt x="1202" y="1396" on="0"/>
        <pt x="1246" y="1434" on="1"/>
        <pt x="1289" y="1471" on="0"/>
        <pt x="1335" y="1471" on="1"/>
        <pt x="1377" y="1471" on="0"/>
        <pt x="1399" y="1440" on="1"/>
        <pt x="1421" y="1410" on="0"/>
        <pt x="1421" y="1347" on="1"/>
        <pt x="1421" y="1194" on="0"/>
        <pt x="1280" y="758" on="1"/>
        <pt x="1244" y="650" on="0"/>
        <pt x="1234" y="615" on="1"/>
        <pt x="1175" y="431" on="1"/>
        <pt x="1199" y="433" on="0"/>
        <pt x="1230" y="433" on="1"/>
        <pt x="1310" y="434" on="0"/>
        <pt x="1338" y="437" on="1"/>
        <pt x="1335" y="405" on="1"/>
        <pt x="1256" y="398" on="0"/>
        <pt x="1230" y="397" on="1"/>
        <pt x="1198" y="395" on="0"/>
        <pt x="1163" y="394" on="1"/>
        <pt x="1033" y="1" on="1"/>
        <pt x="894" y="1" on="1"/>
        <pt x="824" y="176" on="0"/>
        <pt x="750" y="285" on="1"/>
        <pt x="675" y="395" on="0"/>
        <pt x="591" y="443" on="1"/>
        <pt x="407" y="226" on="0"/>
        <pt x="-105" y="-137" on="0"/>
        <pt x="-405" y="-137" on="1"/>
        <pt x="-465" y="-137" on="0"/>
        <pt x="-517" y="-130" on="1"/>
        <pt x="-567" y="-123" on="0"/>
        <pt x="-633" y="-107" on="1"/>
      </contour>
      <contour>
        <pt x="1423" y="1543" on="1"/>
        <pt x="1407" y="1543" on="0"/>
        <pt x="1374" y="1565" on="1"/>
        <pt x="1339" y="1588" on="0"/>
        <pt x="1300" y="1624" on="1"/>
        <pt x="1256" y="1663" on="0"/>
        <pt x="1235" y="1695" on="1"/>
        <pt x="1212" y="1728" on="0"/>
        <pt x="1212" y="1749" on="1"/>
        <pt x="1212" y="1773" on="0"/>
        <pt x="1224" y="1785" on="1"/>
        <pt x="1236" y="1799" on="0"/>
        <pt x="1257" y="1799" on="1"/>
        <pt x="1296" y="1799" on="0"/>
        <pt x="1316" y="1718" on="1"/>
        <pt x="1325" y="1679" on="0"/>
        <pt x="1329" y="1667" on="1"/>
        <pt x="1341" y="1627" on="0"/>
        <pt x="1389" y="1593" on="1"/>
        <pt x="1438" y="1557" on="0"/>
        <pt x="1438" y="1553" on="1"/>
        <pt x="1438" y="1550" on="0"/>
        <pt x="1434" y="1546" on="1"/>
        <pt x="1429" y="1543" on="0"/>
      </contour>
    </TTGlyph>
    <TTGlyph name="Aring" xMin="-502" yMin="-8" xMax="1585" yMax="1890">
      <contour>
        <pt x="1274" y="1710" on="1"/>
        <pt x="1274" y="1655" on="0"/>
        <pt x="1348" y="1581" on="0"/>
        <pt x="1405" y="1581" on="1"/>
        <pt x="1461" y="1581" on="0"/>
        <pt x="1536" y="1655" on="0"/>
        <pt x="1536" y="1710" on="1"/>
        <pt x="1536" y="1765" on="0"/>
        <pt x="1460" y="1841" on="0"/>
        <pt x="1405" y="1841" on="1"/>
        <pt x="1350" y="1841" on="0"/>
        <pt x="1274" y="1765" on="0"/>
      </contour>
      <contour>
        <pt x="1225" y="1710" on="1"/>
        <pt x="1225" y="1785" on="0"/>
        <pt x="1330" y="1890" on="0"/>
        <pt x="1405" y="1890" on="1"/>
        <pt x="1480" y="1890" on="0"/>
        <pt x="1585" y="1785" on="0"/>
        <pt x="1585" y="1710" on="1"/>
        <pt x="1585" y="1635" on="0"/>
        <pt x="1480" y="1530" on="0"/>
        <pt x="1405" y="1530" on="1"/>
        <pt x="1330" y="1530" on="0"/>
        <pt x="1225" y="1635" on="0"/>
      </contour>
      <contour>
        <pt x="1001" y="426" on="1"/>
        <pt x="1200" y="1053" on="1"/>
        <pt x="1240" y="1180" on="0"/>
        <pt x="1278" y="1344" on="0"/>
        <pt x="1278" y="1389" on="1"/>
        <pt x="1278" y="1402" on="0"/>
        <pt x="1267" y="1417" on="0"/>
        <pt x="1257" y="1417" on="1"/>
        <pt x="1239" y="1417" on="0"/>
        <pt x="1186" y="1364" on="0"/>
        <pt x="1145" y="1303" on="1"/>
        <pt x="782" y="755" on="1"/>
        <pt x="780" y="752" on="0"/>
        <pt x="774" y="742" on="1"/>
        <pt x="688" y="611" on="0"/>
        <pt x="580" y="467" on="1"/>
        <pt x="641" y="445" on="0"/>
        <pt x="838" y="426" on="0"/>
      </contour>
      <contour>
        <pt x="989" y="391" on="1"/>
        <pt x="937" y="393" on="0"/>
        <pt x="818" y="399" on="0"/>
        <pt x="811" y="399" on="1"/>
        <pt x="794" y="399" on="0"/>
        <pt x="704" y="408" on="0"/>
        <pt x="647" y="416" on="1"/>
        <pt x="708" y="352" on="0"/>
        <pt x="822" y="168" on="0"/>
        <pt x="877" y="47" on="1"/>
      </contour>
      <contour>
        <pt x="-502" y="23" on="1"/>
        <pt x="-434" y="98" on="1"/>
        <pt x="-358" y="75" on="0"/>
        <pt x="-233" y="51" on="0"/>
        <pt x="-182" y="51" on="1"/>
        <pt x="47" y="51" on="0"/>
        <pt x="509" y="408" on="0"/>
        <pt x="756" y="776" on="1"/>
        <pt x="1077" y="1255" on="1"/>
        <pt x="1171" y="1395" on="0"/>
        <pt x="1257" y="1470" on="0"/>
        <pt x="1303" y="1470" on="1"/>
        <pt x="1345" y="1470" on="0"/>
        <pt x="1389" y="1407" on="0"/>
        <pt x="1389" y="1346" on="1"/>
        <pt x="1389" y="1197" on="0"/>
        <pt x="1224" y="684" on="1"/>
        <pt x="1202" y="614" on="1"/>
        <pt x="1143" y="430" on="1"/>
        <pt x="1162" y="431" on="0"/>
        <pt x="1198" y="432" on="1"/>
        <pt x="1270" y="433" on="0"/>
        <pt x="1306" y="436" on="1"/>
        <pt x="1303" y="404" on="1"/>
        <pt x="1234" y="398" on="0"/>
        <pt x="1162" y="394" on="0"/>
        <pt x="1131" y="393" on="1"/>
        <pt x="1001" y="0" on="1"/>
        <pt x="862" y="0" on="1"/>
        <pt x="793" y="174" on="0"/>
        <pt x="642" y="395" on="0"/>
        <pt x="559" y="442" on="1"/>
        <pt x="363" y="208" on="0"/>
        <pt x="-38" y="-8" on="0"/>
        <pt x="-274" y="-8" on="1"/>
        <pt x="-330" y="-8" on="0"/>
        <pt x="-443" y="7" on="0"/>
      </contour>
    </TTGlyph>
    <TTGlyph name="B" xMin="-151" yMin="-12" xMax="1330" yMax="1719">
      <contour>
        <pt x="362" y="976" on="1"/>
        <pt x="249" y="878" on="0"/>
        <pt x="159" y="760" on="1"/>
        <pt x="64" y="633" on="0"/>
        <pt x="5" y="505" on="1"/>
        <pt x="-56" y="372" on="0"/>
        <pt x="-91" y="262" on="1"/>
        <pt x="-123" y="152" on="0"/>
        <pt x="-123" y="77" on="1"/>
        <pt x="-123" y="67" on="0"/>
        <pt x="-119" y="57" on="1"/>
        <pt x="-113" y="50" on="0"/>
        <pt x="-106" y="50" on="1"/>
        <pt x="-51" y="50" on="0"/>
        <pt x="84" y="314" on="1"/>
        <pt x="221" y="579" on="0"/>
        <pt x="362" y="976" on="1"/>
      </contour>
      <contour>
        <pt x="143" y="7" on="1"/>
        <pt x="268" y="128" on="1"/>
        <pt x="363" y="105" on="0"/>
        <pt x="441" y="95" on="1"/>
        <pt x="517" y="83" on="0"/>
        <pt x="573" y="83" on="1"/>
        <pt x="720" y="83" on="0"/>
        <pt x="807" y="143" on="1"/>
        <pt x="894" y="203" on="0"/>
        <pt x="894" y="302" on="1"/>
        <pt x="894" y="355" on="0"/>
        <pt x="863" y="402" on="1"/>
        <pt x="831" y="446" on="0"/>
        <pt x="769" y="482" on="1"/>
        <pt x="644" y="552" on="1"/>
        <pt x="617" y="566" on="0"/>
        <pt x="601" y="588" on="1"/>
        <pt x="585" y="610" on="0"/>
        <pt x="585" y="628" on="1"/>
        <pt x="585" y="669" on="0"/>
        <pt x="710" y="743" on="1"/>
        <pt x="834" y="816" on="0"/>
        <pt x="913" y="880" on="1"/>
        <pt x="1036" y="977" on="0"/>
        <pt x="1101" y="1082" on="1"/>
        <pt x="1165" y="1187" on="0"/>
        <pt x="1165" y="1283" on="1"/>
        <pt x="1165" y="1343" on="0"/>
        <pt x="1130" y="1378" on="1"/>
        <pt x="1096" y="1412" on="0"/>
        <pt x="1033" y="1412" on="1"/>
        <pt x="952" y="1412" on="0"/>
        <pt x="829" y="1343" on="1"/>
        <pt x="703" y="1270" on="0"/>
        <pt x="571" y="1148" on="1"/>
        <pt x="404" y="629" on="0"/>
        <pt x="213" y="311" on="1"/>
        <pt x="21" y="-12" on="0"/>
        <pt x="-104" y="-12" on="1"/>
        <pt x="-126" y="-12" on="0"/>
        <pt x="-139" y="20" on="1"/>
        <pt x="-151" y="53" on="0"/>
        <pt x="-151" y="114" on="1"/>
        <pt x="-151" y="313" on="0"/>
        <pt x="-11" y="557" on="1"/>
        <pt x="129" y="801" on="0"/>
        <pt x="390" y="1050" on="1"/>
        <pt x="501" y="1414" on="1"/>
        <pt x="667" y="1465" on="1"/>
        <pt x="589" y="1207" on="1"/>
        <pt x="738" y="1336" on="0"/>
        <pt x="873" y="1404" on="1"/>
        <pt x="1008" y="1471" on="0"/>
        <pt x="1122" y="1471" on="1"/>
        <pt x="1218" y="1471" on="0"/>
        <pt x="1274" y="1422" on="1"/>
        <pt x="1330" y="1372" on="0"/>
        <pt x="1330" y="1285" on="1"/>
        <pt x="1330" y="1192" on="0"/>
        <pt x="1271" y="1103" on="1"/>
        <pt x="1211" y="1009" on="0"/>
        <pt x="1101" y="929" on="1"/>
        <pt x="983" y="839" on="0"/>
        <pt x="847" y="774" on="1"/>
        <pt x="710" y="706" on="0"/>
        <pt x="710" y="691" on="1"/>
        <pt x="710" y="674" on="0"/>
        <pt x="763" y="650" on="1"/>
        <pt x="815" y="626" on="0"/>
        <pt x="851" y="605" on="1"/>
        <pt x="928" y="556" on="0"/>
        <pt x="960" y="507" on="1"/>
        <pt x="993" y="456" on="0"/>
        <pt x="993" y="386" on="1"/>
        <pt x="993" y="210" on="0"/>
        <pt x="810" y="105" on="1"/>
        <pt x="629" y="0" on="0"/>
        <pt x="313" y="0" on="1"/>
        <pt x="253" y="0" on="0"/>
        <pt x="225" y="1" on="1"/>
        <pt x="203" y="1" on="0"/>
        <pt x="162" y="5" on="0"/>
        <pt x="143" y="7" on="1"/>
      </contour>
      <contour>
        <pt x="565" y="405" on="1"/>
        <pt x="613" y="485" on="0"/>
        <pt x="709" y="449" on="1"/>
        <pt x="751" y="429" on="0"/>
        <pt x="800" y="348" on="0"/>
        <pt x="785" y="306" on="1"/>
        <pt x="782" y="299" on="0"/>
        <pt x="763" y="255" on="0"/>
        <pt x="733" y="243" on="1"/>
        <pt x="661" y="213" on="0"/>
        <pt x="496" y="175" on="0"/>
        <pt x="444" y="124" on="1"/>
        <pt x="450" y="195" on="0"/>
        <pt x="366" y="338" on="0"/>
        <pt x="340" y="410" on="1"/>
        <pt x="328" y="440" on="0"/>
        <pt x="341" y="481" on="0"/>
        <pt x="344" y="491" on="1"/>
        <pt x="362" y="532" on="0"/>
        <pt x="452" y="557" on="0"/>
        <pt x="496" y="539" on="1"/>
        <pt x="587" y="497" on="0"/>
      </contour>
      <contour>
        <pt x="343" y="1597" on="1"/>
        <pt x="334" y="1683" on="0"/>
        <pt x="424" y="1709" on="1"/>
        <pt x="466" y="1719" on="0"/>
        <pt x="547" y="1687" on="0"/>
        <pt x="560" y="1648" on="1"/>
        <pt x="562" y="1642" on="0"/>
        <pt x="572" y="1599" on="0"/>
        <pt x="557" y="1573" on="1"/>
        <pt x="521" y="1510" on="0"/>
        <pt x="423" y="1390" on="0"/>
        <pt x="414" y="1324" on="1"/>
        <pt x="378" y="1379" on="0"/>
        <pt x="236" y="1436" on="0"/>
        <pt x="177" y="1473" on="1"/>
        <pt x="151" y="1488" on="0"/>
        <pt x="137" y="1526" on="0"/>
        <pt x="134" y="1535" on="1"/>
        <pt x="125" y="1575" on="0"/>
        <pt x="176" y="1644" on="0"/>
        <pt x="218" y="1656" on="1"/>
        <pt x="309" y="1676" on="0"/>
      </contour>
    </TTGlyph>
    <TTGlyph name="C" xMin="-53" yMin="-18" xMax="1199" yMax="1500">
      <contour>
        <pt x="921" y="179" on="1"/>
        <pt x="921" y="142" on="1"/>
        <pt x="774" y="63" on="0"/>
        <pt x="639" y="20" on="1"/>
        <pt x="509" y="-18" on="0"/>
        <pt x="403" y="-18" on="1"/>
        <pt x="180" y="-18" on="0"/>
        <pt x="65" y="89" on="1"/>
        <pt x="-53" y="197" on="0"/>
        <pt x="-53" y="398" on="1"/>
        <pt x="-53" y="604" on="0"/>
        <pt x="54" y="811" on="1"/>
        <pt x="162" y="1016" on="0"/>
        <pt x="364" y="1193" on="1"/>
        <pt x="533" y="1341" on="0"/>
        <pt x="707" y="1420" on="1"/>
        <pt x="883" y="1500" on="0"/>
        <pt x="1038" y="1500" on="1"/>
        <pt x="1111" y="1500" on="0"/>
        <pt x="1156" y="1466" on="1"/>
        <pt x="1199" y="1430" on="0"/>
        <pt x="1199" y="1369" on="1"/>
        <pt x="1199" y="1239" on="0"/>
        <pt x="1077" y="1123" on="1"/>
        <pt x="957" y="1006" on="0"/>
        <pt x="741" y="929" on="1"/>
        <pt x="773" y="1060" on="1"/>
        <pt x="951" y="1132" on="0"/>
        <pt x="1048" y="1217" on="1"/>
        <pt x="1148" y="1304" on="0"/>
        <pt x="1148" y="1385" on="1"/>
        <pt x="1148" y="1424" on="0"/>
        <pt x="1118" y="1447" on="1"/>
        <pt x="1090" y="1469" on="0"/>
        <pt x="1036" y="1469" on="1"/>
        <pt x="937" y="1469" on="0"/>
        <pt x="822" y="1418" on="1"/>
        <pt x="707" y="1367" on="0"/>
        <pt x="597" y="1275" on="1"/>
        <pt x="378" y="1090" on="0"/>
        <pt x="243" y="847" on="1"/>
        <pt x="108" y="602" on="0"/>
        <pt x="108" y="404" on="1"/>
        <pt x="108" y="231" on="0"/>
        <pt x="200" y="135" on="1"/>
        <pt x="292" y="38" on="0"/>
        <pt x="458" y="38" on="1"/>
        <pt x="544" y="38" on="0"/>
        <pt x="659" y="72" on="1"/>
        <pt x="766" y="103" on="0"/>
      </contour>
      <contour>
        <pt x="636" y="578" on="1"/>
        <pt x="677" y="630" on="0"/>
        <pt x="810" y="659" on="0"/>
        <pt x="880" y="622" on="1"/>
        <pt x="947" y="582" on="0"/>
        <pt x="1011" y="440" on="0"/>
        <pt x="978" y="374" on="1"/>
        <pt x="974" y="363" on="0"/>
        <pt x="934" y="296" on="0"/>
        <pt x="882" y="281" on="1"/>
        <pt x="758" y="245" on="0"/>
        <pt x="481" y="214" on="0"/>
        <pt x="386" y="139" on="1"/>
        <pt x="409" y="255" on="0"/>
        <pt x="298" y="504" on="0"/>
        <pt x="268" y="627" on="1"/>
        <pt x="255" y="678" on="0"/>
        <pt x="284" y="744" on="0"/>
        <pt x="290" y="760" on="1"/>
        <pt x="329" y="823" on="0"/>
        <pt x="480" y="846" on="0"/>
        <pt x="549" y="810" on="1"/>
        <pt x="616" y="769" on="0"/>
        <pt x="660" y="640" on="0"/>
      </contour>
    </TTGlyph>
    <TTGlyph name="Ccedilla" xMin="-53" yMin="-326" xMax="1199" yMax="1500">
      <contour>
        <pt x="150" y="-281" on="1"/>
        <pt x="160" y="-258" on="1"/>
        <pt x="226" y="-280" on="0"/>
        <pt x="245" y="-285" on="1"/>
        <pt x="280" y="-293" on="0"/>
        <pt x="305" y="-293" on="1"/>
        <pt x="359" y="-293" on="0"/>
        <pt x="389" y="-269" on="1"/>
        <pt x="418" y="-244" on="0"/>
        <pt x="418" y="-201" on="1"/>
        <pt x="418" y="-181" on="0"/>
        <pt x="400" y="-168" on="1"/>
        <pt x="381" y="-154" on="0"/>
        <pt x="355" y="-154" on="1"/>
        <pt x="345" y="-154" on="0"/>
        <pt x="318" y="-160" on="1"/>
        <pt x="314" y="-162" on="0"/>
        <pt x="312" y="-162" on="1"/>
        <pt x="296" y="-152" on="1"/>
        <pt x="361" y="-35" on="1"/>
        <pt x="387" y="-35" on="1"/>
        <pt x="337" y="-127" on="1"/>
        <pt x="355" y="-123" on="0"/>
        <pt x="363" y="-122" on="1"/>
        <pt x="369" y="-122" on="0"/>
        <pt x="381" y="-121" on="0"/>
        <pt x="387" y="-121" on="1"/>
        <pt x="437" y="-121" on="0"/>
        <pt x="465" y="-144" on="1"/>
        <pt x="493" y="-168" on="0"/>
        <pt x="493" y="-211" on="1"/>
        <pt x="493" y="-261" on="0"/>
        <pt x="445" y="-294" on="1"/>
        <pt x="396" y="-326" on="0"/>
        <pt x="321" y="-326" on="1"/>
        <pt x="287" y="-326" on="0"/>
        <pt x="243" y="-315" on="1"/>
        <pt x="197" y="-303" on="0"/>
        <pt x="151" y="-281" on="1"/>
      </contour>
      <contour>
        <pt x="921" y="179" on="1"/>
        <pt x="921" y="142" on="1"/>
        <pt x="774" y="63" on="0"/>
        <pt x="639" y="20" on="1"/>
        <pt x="509" y="-18" on="0"/>
        <pt x="403" y="-18" on="1"/>
        <pt x="180" y="-18" on="0"/>
        <pt x="65" y="89" on="1"/>
        <pt x="-53" y="197" on="0"/>
        <pt x="-53" y="398" on="1"/>
        <pt x="-53" y="604" on="0"/>
        <pt x="54" y="811" on="1"/>
        <pt x="162" y="1016" on="0"/>
        <pt x="364" y="1193" on="1"/>
        <pt x="533" y="1341" on="0"/>
        <pt x="707" y="1420" on="1"/>
        <pt x="883" y="1500" on="0"/>
        <pt x="1038" y="1500" on="1"/>
        <pt x="1111" y="1500" on="0"/>
        <pt x="1156" y="1466" on="1"/>
        <pt x="1199" y="1430" on="0"/>
        <pt x="1199" y="1369" on="1"/>
        <pt x="1199" y="1239" on="0"/>
        <pt x="1077" y="1123" on="1"/>
        <pt x="957" y="1006" on="0"/>
        <pt x="741" y="929" on="1"/>
        <pt x="773" y="1060" on="1"/>
        <pt x="951" y="1132" on="0"/>
        <pt x="1048" y="1217" on="1"/>
        <pt x="1148" y="1304" on="0"/>
        <pt x="1148" y="1385" on="1"/>
        <pt x="1148" y="1424" on="0"/>
        <pt x="1118" y="1447" on="1"/>
        <pt x="1090" y="1469" on="0"/>
        <pt x="1036" y="1469" on="1"/>
        <pt x="937" y="1469" on="0"/>
        <pt x="822" y="1418" on="1"/>
        <pt x="707" y="1367" on="0"/>
        <pt x="597" y="1275" on="1"/>
        <pt x="378" y="1090" on="0"/>
        <pt x="243" y="847" on="1"/>
        <pt x="108" y="602" on="0"/>
        <pt x="108" y="404" on="1"/>
        <pt x="108" y="231" on="0"/>
        <pt x="200" y="135" on="1"/>
        <pt x="292" y="38" on="0"/>
        <pt x="458" y="38" on="1"/>
        <pt x="544" y="38" on="0"/>
        <pt x="659" y="72" on="1"/>
        <pt x="766" y="103" on="0"/>
      </contour>
      <contour>
        <pt x="488" y="529" on="1"/>
        <pt x="430" y="639" on="0"/>
        <pt x="536" y="720" on="1"/>
        <pt x="587" y="755" on="0"/>
        <pt x="710" y="754" on="0"/>
        <pt x="748" y="709" on="1"/>
        <pt x="754" y="703" on="0"/>
        <pt x="789" y="652" on="0"/>
        <pt x="783" y="610" on="1"/>
        <pt x="768" y="508" on="0"/>
        <pt x="700" y="297" on="0"/>
        <pt x="723" y="204" on="1"/>
        <pt x="647" y="259" on="0"/>
        <pt x="430" y="260" on="0"/>
        <pt x="332" y="279" on="1"/>
        <pt x="290" y="286" on="0"/>
        <pt x="252" y="329" on="0"/>
        <pt x="243" y="338" on="1"/>
        <pt x="209" y="387" on="0"/>
        <pt x="242" y="504" on="0"/>
        <pt x="291" y="542" on="1"/>
        <pt x="400" y="616" on="0"/>
      </contour>
    </TTGlyph>
    <TTGlyph name="D" xMin="-65" yMin="-31" xMax="1679" yMax="1480">
      <contour>
        <pt x="642" y="187" on="1"/>
        <pt x="836" y="125" on="0"/>
        <pt x="935" y="104" on="1"/>
        <pt x="1034" y="82" on="0"/>
        <pt x="1101" y="82" on="1"/>
        <pt x="1283" y="82" on="0"/>
        <pt x="1387" y="191" on="1"/>
        <pt x="1490" y="299" on="0"/>
        <pt x="1490" y="493" on="1"/>
        <pt x="1490" y="687" on="0"/>
        <pt x="1389" y="867" on="1"/>
        <pt x="1286" y="1044" on="0"/>
        <pt x="1093" y="1187" on="1"/>
        <pt x="1068" y="1105" on="1"/>
        <pt x="949" y="705" on="0"/>
        <pt x="856" y="509" on="1"/>
        <pt x="763" y="314" on="0"/>
        <pt x="642" y="187" on="1"/>
      </contour>
      <contour>
        <pt x="460" y="101" on="1"/>
        <pt x="387" y="126" on="0"/>
        <pt x="314" y="141" on="1"/>
        <pt x="240" y="155" on="0"/>
        <pt x="182" y="155" on="1"/>
        <pt x="95" y="155" on="0"/>
        <pt x="40" y="133" on="1"/>
        <pt x="-12" y="110" on="0"/>
        <pt x="-12" y="75" on="1"/>
        <pt x="-12" y="42" on="0"/>
        <pt x="37" y="23" on="1"/>
        <pt x="87" y="2" on="0"/>
        <pt x="169" y="3" on="1"/>
        <pt x="249" y="3" on="0"/>
        <pt x="321" y="27" on="1"/>
        <pt x="396" y="53" on="0"/>
      </contour>
      <contour>
        <pt x="524" y="79" on="1"/>
        <pt x="441" y="24" on="0"/>
        <pt x="356" y="-3" on="1"/>
        <pt x="270" y="-31" on="0"/>
        <pt x="182" y="-31" on="1"/>
        <pt x="66" y="-31" on="0"/>
        <pt x="0" y="3" on="1"/>
        <pt x="-65" y="37" on="0"/>
        <pt x="-65" y="99" on="1"/>
        <pt x="-65" y="167" on="0"/>
        <pt x="22" y="213" on="1"/>
        <pt x="110" y="259" on="0"/>
        <pt x="249" y="259" on="1"/>
        <pt x="320" y="259" on="0"/>
        <pt x="402" y="248" on="1"/>
        <pt x="480" y="237" on="0"/>
        <pt x="562" y="215" on="1"/>
        <pt x="655" y="342" on="0"/>
        <pt x="752" y="562" on="1"/>
        <pt x="851" y="784" on="0"/>
        <pt x="935" y="1060" on="1"/>
        <pt x="995" y="1254" on="1"/>
        <pt x="823" y="1352" on="0"/>
        <pt x="692" y="1400" on="1"/>
        <pt x="555" y="1447" on="0"/>
        <pt x="448" y="1447" on="1"/>
        <pt x="350" y="1447" on="0"/>
        <pt x="296" y="1407" on="1"/>
        <pt x="239" y="1366" on="0"/>
        <pt x="239" y="1301" on="1"/>
        <pt x="239" y="1229" on="0"/>
        <pt x="306" y="1140" on="1"/>
        <pt x="369" y="1052" on="0"/>
        <pt x="507" y="945" on="1"/>
        <pt x="380" y="904" on="1"/>
        <pt x="270" y="1002" on="0"/>
        <pt x="214" y="1093" on="1"/>
        <pt x="159" y="1181" on="0"/>
        <pt x="159" y="1256" on="1"/>
        <pt x="159" y="1361" on="0"/>
        <pt x="246" y="1420" on="1"/>
        <pt x="331" y="1480" on="0"/>
        <pt x="487" y="1480" on="1"/>
        <pt x="596" y="1480" on="0"/>
        <pt x="728" y="1441" on="1"/>
        <pt x="861" y="1402" on="0"/>
        <pt x="1011" y="1328" on="1"/>
        <pt x="1038" y="1410" on="1"/>
        <pt x="1160" y="1443" on="1"/>
        <pt x="1117" y="1273" on="1"/>
        <pt x="1350" y="1128" on="0"/>
        <pt x="1475" y="950" on="1"/>
        <pt x="1599" y="772" on="0"/>
        <pt x="1599" y="581" on="1"/>
        <pt x="1599" y="328" on="0"/>
        <pt x="1415" y="161" on="1"/>
        <pt x="1231" y="-8" on="0"/>
        <pt x="954" y="-8" on="1"/>
        <pt x="870" y="-8" on="0"/>
        <pt x="756" y="13" on="1"/>
        <pt x="658" y="32" on="0"/>
      </contour>
      <contour>
        <pt x="339" y="728" on="1"/>
        <pt x="413" y="849" on="0"/>
        <pt x="557" y="794" on="1"/>
        <pt x="622" y="764" on="0"/>
        <pt x="695" y="641" on="0"/>
        <pt x="672" y="577" on="1"/>
        <pt x="669" y="567" on="0"/>
        <pt x="639" y="501" on="0"/>
        <pt x="594" y="483" on="1"/>
        <pt x="484" y="438" on="0"/>
        <pt x="235" y="381" on="0"/>
        <pt x="157" y="303" on="1"/>
        <pt x="166" y="411" on="0"/>
        <pt x="39" y="627" on="0"/>
        <pt x="0" y="735" on="1"/>
        <pt x="-16" y="780" on="0"/>
        <pt x="1" y="843" on="0"/>
        <pt x="6" y="858" on="1"/>
        <pt x="34" y="920" on="0"/>
        <pt x="170" y="957" on="0"/>
        <pt x="236" y="930" on="1"/>
        <pt x="302" y="900" on="0"/>
        <pt x="354" y="787" on="0"/>
      </contour>
      <contour>
        <pt x="1454" y="1357" on="1"/>
        <pt x="1450" y="1441" on="0"/>
        <pt x="1542" y="1461" on="1"/>
        <pt x="1584" y="1467" on="0"/>
        <pt x="1661" y="1429" on="0"/>
        <pt x="1671" y="1390" on="1"/>
        <pt x="1672" y="1384" on="0"/>
        <pt x="1679" y="1341" on="0"/>
        <pt x="1663" y="1317" on="1"/>
        <pt x="1622" y="1257" on="0"/>
        <pt x="1515" y="1147" on="0"/>
        <pt x="1501" y="1082" on="1"/>
        <pt x="1470" y="1139" on="0"/>
        <pt x="1335" y="1206" on="0"/>
        <pt x="1280" y="1248" on="1"/>
        <pt x="1256" y="1266" on="0"/>
        <pt x="1245" y="1303" on="0"/>
        <pt x="1242" y="1312" on="1"/>
        <pt x="1236" y="1353" on="0"/>
        <pt x="1293" y="1416" on="0"/>
        <pt x="1335" y="1425" on="1"/>
        <pt x="1425" y="1437" on="0"/>
      </contour>
    </TTGlyph>
    <TTGlyph name="E" xMin="-57" yMin="-10" xMax="1195" yMax="1488">
      <contour>
        <pt x="931" y="238" on="1"/>
        <pt x="904" y="93" on="1"/>
        <pt x="743" y="40" on="0"/>
        <pt x="614" y="14" on="1"/>
        <pt x="479" y="-10" on="0"/>
        <pt x="386" y="-10" on="1"/>
        <pt x="169" y="-10" on="0"/>
        <pt x="57" y="77" on="1"/>
        <pt x="-57" y="165" on="0"/>
        <pt x="-57" y="329" on="1"/>
        <pt x="-57" y="465" on="0"/>
        <pt x="45" y="588" on="1"/>
        <pt x="148" y="712" on="0"/>
        <pt x="362" y="828" on="1"/>
        <pt x="437" y="871" on="1"/>
        <pt x="438" y="871" on="0"/>
        <pt x="443" y="874" on="0"/>
        <pt x="446" y="876" on="1"/>
        <pt x="487" y="897" on="0"/>
        <pt x="487" y="910" on="1"/>
        <pt x="487" y="912" on="0"/>
        <pt x="485" y="918" on="1"/>
        <pt x="485" y="918" on="0"/>
        <pt x="481" y="926" on="1"/>
        <pt x="429" y="1015" on="1"/>
        <pt x="411" y="1045" on="0"/>
        <pt x="407" y="1063" on="1"/>
        <pt x="399" y="1085" on="0"/>
        <pt x="399" y="1105" on="1"/>
        <pt x="399" y="1171" on="0"/>
        <pt x="438" y="1233" on="1"/>
        <pt x="481" y="1297" on="0"/>
        <pt x="560" y="1353" on="1"/>
        <pt x="654" y="1419" on="0"/>
        <pt x="756" y="1453" on="1"/>
        <pt x="862" y="1488" on="0"/>
        <pt x="966" y="1488" on="1"/>
        <pt x="1071" y="1488" on="0"/>
        <pt x="1120" y="1442" on="1"/>
        <pt x="1169" y="1394" on="0"/>
        <pt x="1169" y="1299" on="1"/>
        <pt x="1169" y="1262" on="0"/>
        <pt x="1154" y="1205" on="1"/>
        <pt x="1138" y="1152" on="0"/>
        <pt x="1107" y="1074" on="1"/>
        <pt x="988" y="1056" on="1"/>
        <pt x="1059" y="1216" on="0"/>
        <pt x="1079" y="1275" on="1"/>
        <pt x="1101" y="1344" on="0"/>
        <pt x="1101" y="1379" on="1"/>
        <pt x="1101" y="1418" on="0"/>
        <pt x="1073" y="1440" on="1"/>
        <pt x="1044" y="1461" on="0"/>
        <pt x="988" y="1461" on="1"/>
        <pt x="933" y="1461" on="0"/>
        <pt x="863" y="1432" on="1"/>
        <pt x="795" y="1404" on="0"/>
        <pt x="722" y="1349" on="1"/>
        <pt x="618" y="1268" on="0"/>
        <pt x="553" y="1178" on="1"/>
        <pt x="489" y="1088" on="0"/>
        <pt x="489" y="1029" on="1"/>
        <pt x="489" y="968" on="0"/>
        <pt x="539" y="894" on="1"/>
        <pt x="589" y="819" on="0"/>
        <pt x="589" y="810" on="1"/>
        <pt x="589" y="783" on="0"/>
        <pt x="503" y="739" on="1"/>
        <pt x="444" y="707" on="0"/>
        <pt x="417" y="691" on="1"/>
        <pt x="225" y="576" on="0"/>
        <pt x="129" y="464" on="1"/>
        <pt x="32" y="351" on="0"/>
        <pt x="32" y="247" on="1"/>
        <pt x="32" y="145" on="0"/>
        <pt x="107" y="91" on="1"/>
        <pt x="182" y="34" on="0"/>
        <pt x="317" y="34" on="1"/>
        <pt x="431" y="34" on="0"/>
        <pt x="583" y="84" on="1"/>
        <pt x="728" y="130" on="0"/>
      </contour>
      <contour>
        <pt x="785" y="995" on="1"/>
        <pt x="762" y="1053" on="0"/>
        <pt x="819" y="1088" on="1"/>
        <pt x="889" y="1127" on="0"/>
        <pt x="925" y="1072" on="1"/>
        <pt x="928" y="1068" on="0"/>
        <pt x="943" y="1041" on="0"/>
        <pt x="938" y="1020" on="1"/>
        <pt x="925" y="969" on="0"/>
        <pt x="880" y="868" on="0"/>
        <pt x="887" y="820" on="1"/>
        <pt x="851" y="850" on="0"/>
        <pt x="742" y="862" on="0"/>
        <pt x="694" y="877" on="1"/>
        <pt x="673" y="883" on="0"/>
        <pt x="656" y="905" on="0"/>
        <pt x="652" y="911" on="1"/>
        <pt x="619" y="971" on="0"/>
        <pt x="687" y="1011" on="1"/>
        <pt x="746" y="1044" on="0"/>
      </contour>
      <contour>
        <pt x="933" y="568" on="1"/>
        <pt x="997" y="654" on="0"/>
        <pt x="1100" y="604" on="1"/>
        <pt x="1147" y="577" on="0"/>
        <pt x="1195" y="482" on="0"/>
        <pt x="1174" y="435" on="1"/>
        <pt x="1171" y="427" on="0"/>
        <pt x="1169" y="388" on="0"/>
        <pt x="1109" y="369" on="1"/>
        <pt x="1049" y="349" on="0"/>
        <pt x="834" y="314" on="0"/>
        <pt x="771" y="261" on="1"/>
        <pt x="784" y="340" on="0"/>
        <pt x="694" y="534" on="0"/>
        <pt x="679" y="594" on="1"/>
        <pt x="662" y="653" on="0"/>
        <pt x="687" y="674" on="0"/>
        <pt x="691" y="686" on="1"/>
        <pt x="716" y="731" on="0"/>
        <pt x="820" y="750" on="0"/>
        <pt x="868" y="726" on="1"/>
        <pt x="970" y="670" on="0"/>
      </contour>
    </TTGlyph>
    <TTGlyph name="Eacute" xMin="-57" yMin="-10" xMax="1195" yMax="1803">
      <contour>
        <pt x="931" y="238" on="1"/>
        <pt x="904" y="93" on="1"/>
        <pt x="743" y="40" on="0"/>
        <pt x="614" y="14" on="1"/>
        <pt x="479" y="-10" on="0"/>
        <pt x="386" y="-10" on="1"/>
        <pt x="169" y="-10" on="0"/>
        <pt x="57" y="77" on="1"/>
        <pt x="-57" y="165" on="0"/>
        <pt x="-57" y="329" on="1"/>
        <pt x="-57" y="465" on="0"/>
        <pt x="45" y="588" on="1"/>
        <pt x="148" y="712" on="0"/>
        <pt x="362" y="828" on="1"/>
        <pt x="437" y="871" on="1"/>
        <pt x="438" y="871" on="0"/>
        <pt x="443" y="874" on="0"/>
        <pt x="446" y="876" on="1"/>
        <pt x="487" y="897" on="0"/>
        <pt x="487" y="910" on="1"/>
        <pt x="487" y="912" on="0"/>
        <pt x="485" y="918" on="1"/>
        <pt x="485" y="918" on="0"/>
        <pt x="481" y="926" on="1"/>
        <pt x="429" y="1015" on="1"/>
        <pt x="411" y="1045" on="0"/>
        <pt x="407" y="1063" on="1"/>
        <pt x="399" y="1085" on="0"/>
        <pt x="399" y="1105" on="1"/>
        <pt x="399" y="1171" on="0"/>
        <pt x="438" y="1233" on="1"/>
        <pt x="481" y="1297" on="0"/>
        <pt x="560" y="1353" on="1"/>
        <pt x="654" y="1419" on="0"/>
        <pt x="756" y="1453" on="1"/>
        <pt x="862" y="1488" on="0"/>
        <pt x="966" y="1488" on="1"/>
        <pt x="1071" y="1488" on="0"/>
        <pt x="1120" y="1442" on="1"/>
        <pt x="1169" y="1394" on="0"/>
        <pt x="1169" y="1299" on="1"/>
        <pt x="1169" y="1262" on="0"/>
        <pt x="1154" y="1205" on="1"/>
        <pt x="1138" y="1152" on="0"/>
        <pt x="1107" y="1074" on="1"/>
        <pt x="988" y="1056" on="1"/>
        <pt x="1059" y="1216" on="0"/>
        <pt x="1079" y="1275" on="1"/>
        <pt x="1101" y="1344" on="0"/>
        <pt x="1101" y="1379" on="1"/>
        <pt x="1101" y="1418" on="0"/>
        <pt x="1073" y="1440" on="1"/>
        <pt x="1044" y="1461" on="0"/>
        <pt x="988" y="1461" on="1"/>
        <pt x="933" y="1461" on="0"/>
        <pt x="863" y="1432" on="1"/>
        <pt x="795" y="1404" on="0"/>
        <pt x="722" y="1349" on="1"/>
        <pt x="618" y="1268" on="0"/>
        <pt x="553" y="1178" on="1"/>
        <pt x="489" y="1088" on="0"/>
        <pt x="489" y="1029" on="1"/>
        <pt x="489" y="968" on="0"/>
        <pt x="539" y="894" on="1"/>
        <pt x="589" y="819" on="0"/>
        <pt x="589" y="810" on="1"/>
        <pt x="589" y="783" on="0"/>
        <pt x="503" y="739" on="1"/>
        <pt x="444" y="707" on="0"/>
        <pt x="417" y="691" on="1"/>
        <pt x="225" y="576" on="0"/>
        <pt x="129" y="464" on="1"/>
        <pt x="32" y="351" on="0"/>
        <pt x="32" y="247" on="1"/>
        <pt x="32" y="145" on="0"/>
        <pt x="107" y="91" on="1"/>
        <pt x="182" y="34" on="0"/>
        <pt x="317" y="34" on="1"/>
        <pt x="431" y="34" on="0"/>
        <pt x="583" y="84" on="1"/>
        <pt x="728" y="130" on="0"/>
      </contour>
      <contour>
        <pt x="785" y="995" on="1"/>
        <pt x="762" y="1053" on="0"/>
        <pt x="819" y="1088" on="1"/>
        <pt x="889" y="1127" on="0"/>
        <pt x="925" y="1072" on="1"/>
        <pt x="928" y="1068" on="0"/>
        <pt x="943" y="1041" on="0"/>
        <pt x="938" y="1020" on="1"/>
        <pt x="925" y="969" on="0"/>
        <pt x="880" y="868" on="0"/>
        <pt x="887" y="820" on="1"/>
        <pt x="851" y="850" on="0"/>
        <pt x="742" y="862" on="0"/>
        <pt x="694" y="877" on="1"/>
        <pt x="673" y="883" on="0"/>
        <pt x="656" y="905" on="0"/>
        <pt x="652" y="911" on="1"/>
        <pt x="619" y="971" on="0"/>
        <pt x="687" y="1011" on="1"/>
        <pt x="746" y="1044" on="0"/>
      </contour>
      <contour>
        <pt x="933" y="568" on="1"/>
        <pt x="997" y="654" on="0"/>
        <pt x="1100" y="604" on="1"/>
        <pt x="1147" y="577" on="0"/>
        <pt x="1195" y="482" on="0"/>
        <pt x="1174" y="435" on="1"/>
        <pt x="1171" y="427" on="0"/>
        <pt x="1169" y="388" on="0"/>
        <pt x="1109" y="369" on="1"/>
        <pt x="1049" y="349" on="0"/>
        <pt x="834" y="314" on="0"/>
        <pt x="771" y="261" on="1"/>
        <pt x="784" y="340" on="0"/>
        <pt x="694" y="534" on="0"/>
        <pt x="679" y="594" on="1"/>
        <pt x="662" y="653" on="0"/>
        <pt x="687" y="674" on="0"/>
        <pt x="691" y="686" on="1"/>
        <pt x="716" y="731" on="0"/>
        <pt x="820" y="750" on="0"/>
        <pt x="868" y="726" on="1"/>
        <pt x="970" y="670" on="0"/>
      </contour>
      <contour>
        <pt x="804" y="1551" on="1"/>
        <pt x="799" y="1551" on="0"/>
        <pt x="793" y="1554" on="1"/>
        <pt x="790" y="1557" on="0"/>
        <pt x="790" y="1563" on="1"/>
        <pt x="790" y="1565" on="0"/>
        <pt x="842" y="1597" on="1"/>
        <pt x="896" y="1629" on="0"/>
        <pt x="918" y="1670" on="1"/>
        <pt x="931" y="1692" on="0"/>
        <pt x="945" y="1738" on="1"/>
        <pt x="964" y="1803" on="0"/>
        <pt x="1001" y="1803" on="1"/>
        <pt x="1020" y="1803" on="0"/>
        <pt x="1033" y="1790" on="1"/>
        <pt x="1046" y="1775" on="0"/>
        <pt x="1046" y="1753" on="1"/>
        <pt x="1046" y="1732" on="0"/>
        <pt x="1027" y="1704" on="1"/>
        <pt x="1006" y="1675" on="0"/>
        <pt x="967" y="1642" on="1"/>
        <pt x="921" y="1603" on="0"/>
        <pt x="872" y="1578" on="1"/>
        <pt x="821" y="1551" on="0"/>
      </contour>
    </TTGlyph>
    <TTGlyph name="Ecircumflex" xMin="-57" yMin="-10" xMax="1195" yMax="1809">
      <contour>
        <pt x="931" y="238" on="1"/>
        <pt x="904" y="93" on="1"/>
        <pt x="743" y="40" on="0"/>
        <pt x="614" y="14" on="1"/>
        <pt x="479" y="-10" on="0"/>
        <pt x="386" y="-10" on="1"/>
        <pt x="169" y="-10" on="0"/>
        <pt x="57" y="77" on="1"/>
        <pt x="-57" y="165" on="0"/>
        <pt x="-57" y="329" on="1"/>
        <pt x="-57" y="465" on="0"/>
        <pt x="45" y="588" on="1"/>
        <pt x="148" y="712" on="0"/>
        <pt x="362" y="828" on="1"/>
        <pt x="437" y="871" on="1"/>
        <pt x="438" y="871" on="0"/>
        <pt x="443" y="874" on="0"/>
        <pt x="446" y="876" on="1"/>
        <pt x="487" y="897" on="0"/>
        <pt x="487" y="910" on="1"/>
        <pt x="487" y="912" on="0"/>
        <pt x="485" y="918" on="1"/>
        <pt x="485" y="918" on="0"/>
        <pt x="481" y="926" on="1"/>
        <pt x="429" y="1015" on="1"/>
        <pt x="411" y="1045" on="0"/>
        <pt x="407" y="1063" on="1"/>
        <pt x="399" y="1085" on="0"/>
        <pt x="399" y="1105" on="1"/>
        <pt x="399" y="1171" on="0"/>
        <pt x="438" y="1233" on="1"/>
        <pt x="481" y="1297" on="0"/>
        <pt x="560" y="1353" on="1"/>
        <pt x="654" y="1419" on="0"/>
        <pt x="756" y="1453" on="1"/>
        <pt x="862" y="1488" on="0"/>
        <pt x="966" y="1488" on="1"/>
        <pt x="1071" y="1488" on="0"/>
        <pt x="1120" y="1442" on="1"/>
        <pt x="1169" y="1394" on="0"/>
        <pt x="1169" y="1299" on="1"/>
        <pt x="1169" y="1262" on="0"/>
        <pt x="1154" y="1205" on="1"/>
        <pt x="1138" y="1152" on="0"/>
        <pt x="1107" y="1074" on="1"/>
        <pt x="988" y="1056" on="1"/>
        <pt x="1059" y="1216" on="0"/>
        <pt x="1079" y="1275" on="1"/>
        <pt x="1101" y="1344" on="0"/>
        <pt x="1101" y="1379" on="1"/>
        <pt x="1101" y="1418" on="0"/>
        <pt x="1073" y="1440" on="1"/>
        <pt x="1044" y="1461" on="0"/>
        <pt x="988" y="1461" on="1"/>
        <pt x="933" y="1461" on="0"/>
        <pt x="863" y="1432" on="1"/>
        <pt x="795" y="1404" on="0"/>
        <pt x="722" y="1349" on="1"/>
        <pt x="618" y="1268" on="0"/>
        <pt x="553" y="1178" on="1"/>
        <pt x="489" y="1088" on="0"/>
        <pt x="489" y="1029" on="1"/>
        <pt x="489" y="968" on="0"/>
        <pt x="539" y="894" on="1"/>
        <pt x="589" y="819" on="0"/>
        <pt x="589" y="810" on="1"/>
        <pt x="589" y="783" on="0"/>
        <pt x="503" y="739" on="1"/>
        <pt x="444" y="707" on="0"/>
        <pt x="417" y="691" on="1"/>
        <pt x="225" y="576" on="0"/>
        <pt x="129" y="464" on="1"/>
        <pt x="32" y="351" on="0"/>
        <pt x="32" y="247" on="1"/>
        <pt x="32" y="145" on="0"/>
        <pt x="107" y="91" on="1"/>
        <pt x="182" y="34" on="0"/>
        <pt x="317" y="34" on="1"/>
        <pt x="431" y="34" on="0"/>
        <pt x="583" y="84" on="1"/>
        <pt x="728" y="130" on="0"/>
      </contour>
      <contour>
        <pt x="785" y="995" on="1"/>
        <pt x="762" y="1053" on="0"/>
        <pt x="819" y="1088" on="1"/>
        <pt x="889" y="1127" on="0"/>
        <pt x="925" y="1072" on="1"/>
        <pt x="928" y="1068" on="0"/>
        <pt x="943" y="1041" on="0"/>
        <pt x="938" y="1020" on="1"/>
        <pt x="925" y="969" on="0"/>
        <pt x="880" y="868" on="0"/>
        <pt x="887" y="820" on="1"/>
        <pt x="851" y="850" on="0"/>
        <pt x="742" y="862" on="0"/>
        <pt x="694" y="877" on="1"/>
        <pt x="673" y="883" on="0"/>
        <pt x="656" y="905" on="0"/>
        <pt x="652" y="911" on="1"/>
        <pt x="619" y="971" on="0"/>
        <pt x="687" y="1011" on="1"/>
        <pt x="746" y="1044" on="0"/>
      </contour>
      <contour>
        <pt x="933" y="568" on="1"/>
        <pt x="997" y="654" on="0"/>
        <pt x="1100" y="604" on="1"/>
        <pt x="1147" y="577" on="0"/>
        <pt x="1195" y="482" on="0"/>
        <pt x="1174" y="435" on="1"/>
        <pt x="1171" y="427" on="0"/>
        <pt x="1169" y="388" on="0"/>
        <pt x="1109" y="369" on="1"/>
        <pt x="1049" y="349" on="0"/>
        <pt x="834" y="314" on="0"/>
        <pt x="771" y="261" on="1"/>
        <pt x="784" y="340" on="0"/>
        <pt x="694" y="534" on="0"/>
        <pt x="679" y="594" on="1"/>
        <pt x="662" y="653" on="0"/>
        <pt x="687" y="674" on="0"/>
        <pt x="691" y="686" on="1"/>
        <pt x="716" y="731" on="0"/>
        <pt x="820" y="750" on="0"/>
        <pt x="868" y="726" on="1"/>
        <pt x="970" y="670" on="0"/>
      </contour>
      <contour>
        <pt x="1002" y="1809" on="1"/>
        <pt x="1032" y="1809" on="1"/>
        <pt x="1053" y="1734" on="0"/>
        <pt x="1095" y="1654" on="1"/>
        <pt x="1135" y="1578" on="0"/>
        <pt x="1135" y="1574" on="1"/>
        <pt x="1135" y="1569" on="0"/>
        <pt x="1133" y="1569" on="1"/>
        <pt x="1133" y="1569" on="0"/>
        <pt x="1127" y="1567" on="0"/>
        <pt x="1124" y="1567" on="1"/>
        <pt x="1112" y="1567" on="0"/>
        <pt x="1075" y="1606" on="1"/>
        <pt x="1039" y="1643" on="0"/>
        <pt x="1002" y="1699" on="1"/>
        <pt x="937" y="1640" on="0"/>
        <pt x="879" y="1605" on="1"/>
        <pt x="816" y="1567" on="0"/>
        <pt x="795" y="1567" on="1"/>
        <pt x="787" y="1567" on="0"/>
        <pt x="786" y="1570" on="1"/>
        <pt x="783" y="1571" on="0"/>
        <pt x="782" y="1578" on="1"/>
        <pt x="782" y="1580" on="0"/>
        <pt x="860" y="1652" on="1"/>
        <pt x="938" y="1723" on="0"/>
      </contour>
    </TTGlyph>
    <TTGlyph name="Edieresis" xMin="-57" yMin="-10" xMax="1195" yMax="1681">
      <contour>
        <pt x="931" y="238" on="1"/>
        <pt x="904" y="93" on="1"/>
        <pt x="743" y="40" on="0"/>
        <pt x="614" y="14" on="1"/>
        <pt x="479" y="-10" on="0"/>
        <pt x="386" y="-10" on="1"/>
        <pt x="169" y="-10" on="0"/>
        <pt x="57" y="77" on="1"/>
        <pt x="-57" y="165" on="0"/>
        <pt x="-57" y="329" on="1"/>
        <pt x="-57" y="465" on="0"/>
        <pt x="45" y="588" on="1"/>
        <pt x="148" y="712" on="0"/>
        <pt x="362" y="828" on="1"/>
        <pt x="437" y="871" on="1"/>
        <pt x="438" y="871" on="0"/>
        <pt x="443" y="874" on="0"/>
        <pt x="446" y="876" on="1"/>
        <pt x="487" y="897" on="0"/>
        <pt x="487" y="910" on="1"/>
        <pt x="487" y="912" on="0"/>
        <pt x="485" y="918" on="1"/>
        <pt x="485" y="918" on="0"/>
        <pt x="481" y="926" on="1"/>
        <pt x="429" y="1015" on="1"/>
        <pt x="411" y="1045" on="0"/>
        <pt x="407" y="1063" on="1"/>
        <pt x="399" y="1085" on="0"/>
        <pt x="399" y="1105" on="1"/>
        <pt x="399" y="1171" on="0"/>
        <pt x="438" y="1233" on="1"/>
        <pt x="481" y="1297" on="0"/>
        <pt x="560" y="1353" on="1"/>
        <pt x="654" y="1419" on="0"/>
        <pt x="756" y="1453" on="1"/>
        <pt x="862" y="1488" on="0"/>
        <pt x="966" y="1488" on="1"/>
        <pt x="1071" y="1488" on="0"/>
        <pt x="1120" y="1442" on="1"/>
        <pt x="1169" y="1394" on="0"/>
        <pt x="1169" y="1299" on="1"/>
        <pt x="1169" y="1262" on="0"/>
        <pt x="1154" y="1205" on="1"/>
        <pt x="1138" y="1152" on="0"/>
        <pt x="1107" y="1074" on="1"/>
        <pt x="988" y="1056" on="1"/>
        <pt x="1059" y="1216" on="0"/>
        <pt x="1079" y="1275" on="1"/>
        <pt x="1101" y="1344" on="0"/>
        <pt x="1101" y="1379" on="1"/>
        <pt x="1101" y="1418" on="0"/>
        <pt x="1073" y="1440" on="1"/>
        <pt x="1044" y="1461" on="0"/>
        <pt x="988" y="1461" on="1"/>
        <pt x="933" y="1461" on="0"/>
        <pt x="863" y="1432" on="1"/>
        <pt x="795" y="1404" on="0"/>
        <pt x="722" y="1349" on="1"/>
        <pt x="618" y="1268" on="0"/>
        <pt x="553" y="1178" on="1"/>
        <pt x="489" y="1088" on="0"/>
        <pt x="489" y="1029" on="1"/>
        <pt x="489" y="968" on="0"/>
        <pt x="539" y="894" on="1"/>
        <pt x="589" y="819" on="0"/>
        <pt x="589" y="810" on="1"/>
        <pt x="589" y="783" on="0"/>
        <pt x="503" y="739" on="1"/>
        <pt x="444" y="707" on="0"/>
        <pt x="417" y="691" on="1"/>
        <pt x="225" y="576" on="0"/>
        <pt x="129" y="464" on="1"/>
        <pt x="32" y="351" on="0"/>
        <pt x="32" y="247" on="1"/>
        <pt x="32" y="145" on="0"/>
        <pt x="107" y="91" on="1"/>
        <pt x="182" y="34" on="0"/>
        <pt x="317" y="34" on="1"/>
        <pt x="431" y="34" on="0"/>
        <pt x="583" y="84" on="1"/>
        <pt x="728" y="130" on="0"/>
      </contour>
      <contour>
        <pt x="785" y="995" on="1"/>
        <pt x="762" y="1053" on="0"/>
        <pt x="819" y="1088" on="1"/>
        <pt x="889" y="1127" on="0"/>
        <pt x="925" y="1072" on="1"/>
        <pt x="928" y="1068" on="0"/>
        <pt x="943" y="1041" on="0"/>
        <pt x="938" y="1020" on="1"/>
        <pt x="925" y="969" on="0"/>
        <pt x="880" y="868" on="0"/>
        <pt x="887" y="820" on="1"/>
        <pt x="851" y="850" on="0"/>
        <pt x="742" y="862" on="0"/>
        <pt x="694" y="877" on="1"/>
        <pt x="673" y="883" on="0"/>
        <pt x="656" y="905" on="0"/>
        <pt x="652" y="911" on="1"/>
        <pt x="619" y="971" on="0"/>
        <pt x="687" y="1011" on="1"/>
        <pt x="746" y="1044" on="0"/>
      </contour>
      <contour>
        <pt x="933" y="568" on="1"/>
        <pt x="997" y="654" on="0"/>
        <pt x="1100" y="604" on="1"/>
        <pt x="1147" y="577" on="0"/>
        <pt x="1195" y="482" on="0"/>
        <pt x="1174" y="435" on="1"/>
        <pt x="1171" y="427" on="0"/>
        <pt x="1169" y="388" on="0"/>
        <pt x="1109" y="369" on="1"/>
        <pt x="1049" y="349" on="0"/>
        <pt x="834" y="314" on="0"/>
        <pt x="771" y="261" on="1"/>
        <pt x="784" y="340" on="0"/>
        <pt x="694" y="534" on="0"/>
        <pt x="679" y="594" on="1"/>
        <pt x="662" y="653" on="0"/>
        <pt x="687" y="674" on="0"/>
        <pt x="691" y="686" on="1"/>
        <pt x="716" y="731" on="0"/>
        <pt x="820" y="750" on="0"/>
        <pt x="868" y="726" on="1"/>
        <pt x="970" y="670" on="0"/>
      </contour>
      <contour>
        <pt x="785" y="1624" on="1"/>
        <pt x="785" y="1648" on="0"/>
        <pt x="801" y="1664" on="1"/>
        <pt x="817" y="1680" on="0"/>
        <pt x="840" y="1680" on="1"/>
        <pt x="864" y="1680" on="0"/>
        <pt x="879" y="1664" on="1"/>
        <pt x="896" y="1647" on="0"/>
        <pt x="896" y="1624" on="1"/>
        <pt x="896" y="1601" on="0"/>
        <pt x="880" y="1585" on="1"/>
        <pt x="862" y="1569" on="0"/>
        <pt x="840" y="1569" on="1"/>
        <pt x="818" y="1569" on="0"/>
        <pt x="801" y="1585" on="1"/>
        <pt x="785" y="1601" on="0"/>
      </contour>
      <contour>
        <pt x="1029" y="1624" on="1"/>
        <pt x="1029" y="1647" on="0"/>
        <pt x="1046" y="1664" on="1"/>
        <pt x="1061" y="1681" on="0"/>
        <pt x="1086" y="1681" on="1"/>
        <pt x="1109" y="1681" on="0"/>
        <pt x="1125" y="1665" on="1"/>
        <pt x="1140" y="1648" on="0"/>
        <pt x="1140" y="1624" on="1"/>
        <pt x="1140" y="1601" on="0"/>
        <pt x="1125" y="1586" on="1"/>
        <pt x="1110" y="1570" on="0"/>
        <pt x="1086" y="1570" on="1"/>
        <pt x="1060" y="1570" on="0"/>
        <pt x="1046" y="1586" on="1"/>
        <pt x="1029" y="1601" on="0"/>
      </contour>
    </TTGlyph>
    <TTGlyph name="Egrave" xMin="-57" yMin="-10" xMax="1195" yMax="1803">
      <contour>
        <pt x="931" y="238" on="1"/>
        <pt x="904" y="93" on="1"/>
        <pt x="743" y="40" on="0"/>
        <pt x="614" y="14" on="1"/>
        <pt x="479" y="-10" on="0"/>
        <pt x="386" y="-10" on="1"/>
        <pt x="169" y="-10" on="0"/>
        <pt x="57" y="77" on="1"/>
        <pt x="-57" y="165" on="0"/>
        <pt x="-57" y="329" on="1"/>
        <pt x="-57" y="465" on="0"/>
        <pt x="45" y="588" on="1"/>
        <pt x="148" y="712" on="0"/>
        <pt x="362" y="828" on="1"/>
        <pt x="437" y="871" on="1"/>
        <pt x="438" y="871" on="0"/>
        <pt x="443" y="874" on="0"/>
        <pt x="446" y="876" on="1"/>
        <pt x="487" y="897" on="0"/>
        <pt x="487" y="910" on="1"/>
        <pt x="487" y="912" on="0"/>
        <pt x="485" y="918" on="1"/>
        <pt x="485" y="918" on="0"/>
        <pt x="481" y="926" on="1"/>
        <pt x="429" y="1015" on="1"/>
        <pt x="411" y="1045" on="0"/>
        <pt x="407" y="1063" on="1"/>
        <pt x="399" y="1085" on="0"/>
        <pt x="399" y="1105" on="1"/>
        <pt x="399" y="1171" on="0"/>
        <pt x="438" y="1233" on="1"/>
        <pt x="481" y="1297" on="0"/>
        <pt x="560" y="1353" on="1"/>
        <pt x="654" y="1419" on="0"/>
        <pt x="756" y="1453" on="1"/>
        <pt x="862" y="1488" on="0"/>
        <pt x="966" y="1488" on="1"/>
        <pt x="1071" y="1488" on="0"/>
        <pt x="1120" y="1442" on="1"/>
        <pt x="1169" y="1394" on="0"/>
        <pt x="1169" y="1299" on="1"/>
        <pt x="1169" y="1262" on="0"/>
        <pt x="1154" y="1205" on="1"/>
        <pt x="1138" y="1152" on="0"/>
        <pt x="1107" y="1074" on="1"/>
        <pt x="988" y="1056" on="1"/>
        <pt x="1059" y="1216" on="0"/>
        <pt x="1079" y="1275" on="1"/>
        <pt x="1101" y="1344" on="0"/>
        <pt x="1101" y="1379" on="1"/>
        <pt x="1101" y="1418" on="0"/>
        <pt x="1073" y="1440" on="1"/>
        <pt x="1044" y="1461" on="0"/>
        <pt x="988" y="1461" on="1"/>
        <pt x="933" y="1461" on="0"/>
        <pt x="863" y="1432" on="1"/>
        <pt x="795" y="1404" on="0"/>
        <pt x="722" y="1349" on="1"/>
        <pt x="618" y="1268" on="0"/>
        <pt x="553" y="1178" on="1"/>
        <pt x="489" y="1088" on="0"/>
        <pt x="489" y="1029" on="1"/>
        <pt x="489" y="968" on="0"/>
        <pt x="539" y="894" on="1"/>
        <pt x="589" y="819" on="0"/>
        <pt x="589" y="810" on="1"/>
        <pt x="589" y="783" on="0"/>
        <pt x="503" y="739" on="1"/>
        <pt x="444" y="707" on="0"/>
        <pt x="417" y="691" on="1"/>
        <pt x="225" y="576" on="0"/>
        <pt x="129" y="464" on="1"/>
        <pt x="32" y="351" on="0"/>
        <pt x="32" y="247" on="1"/>
        <pt x="32" y="145" on="0"/>
        <pt x="107" y="91" on="1"/>
        <pt x="182" y="34" on="0"/>
        <pt x="317" y="34" on="1"/>
        <pt x="431" y="34" on="0"/>
        <pt x="583" y="84" on="1"/>
        <pt x="728" y="130" on="0"/>
      </contour>
      <contour>
        <pt x="785" y="995" on="1"/>
        <pt x="762" y="1053" on="0"/>
        <pt x="819" y="1088" on="1"/>
        <pt x="889" y="1127" on="0"/>
        <pt x="925" y="1072" on="1"/>
        <pt x="928" y="1068" on="0"/>
        <pt x="943" y="1041" on="0"/>
        <pt x="938" y="1020" on="1"/>
        <pt x="925" y="969" on="0"/>
        <pt x="880" y="868" on="0"/>
        <pt x="887" y="820" on="1"/>
        <pt x="851" y="850" on="0"/>
        <pt x="742" y="862" on="0"/>
        <pt x="694" y="877" on="1"/>
        <pt x="673" y="883" on="0"/>
        <pt x="656" y="905" on="0"/>
        <pt x="652" y="911" on="1"/>
        <pt x="619" y="971" on="0"/>
        <pt x="687" y="1011" on="1"/>
        <pt x="746" y="1044" on="0"/>
      </contour>
      <contour>
        <pt x="933" y="568" on="1"/>
        <pt x="997" y="654" on="0"/>
        <pt x="1100" y="604" on="1"/>
        <pt x="1147" y="577" on="0"/>
        <pt x="1195" y="482" on="0"/>
        <pt x="1174" y="435" on="1"/>
        <pt x="1171" y="427" on="0"/>
        <pt x="1169" y="388" on="0"/>
        <pt x="1109" y="369" on="1"/>
        <pt x="1049" y="349" on="0"/>
        <pt x="834" y="314" on="0"/>
        <pt x="771" y="261" on="1"/>
        <pt x="784" y="340" on="0"/>
        <pt x="694" y="534" on="0"/>
        <pt x="679" y="594" on="1"/>
        <pt x="662" y="653" on="0"/>
        <pt x="687" y="674" on="0"/>
        <pt x="691" y="686" on="1"/>
        <pt x="716" y="731" on="0"/>
        <pt x="820" y="750" on="0"/>
        <pt x="868" y="726" on="1"/>
        <pt x="970" y="670" on="0"/>
      </contour>
      <contour>
        <pt x="1092" y="1547" on="1"/>
        <pt x="1078" y="1547" on="0"/>
        <pt x="1043" y="1570" on="1"/>
        <pt x="1013" y="1588" on="0"/>
        <pt x="968" y="1629" on="1"/>
        <pt x="922" y="1670" on="0"/>
        <pt x="903" y="1700" on="1"/>
        <pt x="881" y="1730" on="0"/>
        <pt x="881" y="1754" on="1"/>
        <pt x="881" y="1776" on="0"/>
        <pt x="893" y="1790" on="1"/>
        <pt x="906" y="1803" on="0"/>
        <pt x="925" y="1803" on="1"/>
        <pt x="965" y="1803" on="0"/>
        <pt x="985" y="1723" on="1"/>
        <pt x="988" y="1706" on="0"/>
        <pt x="994" y="1681" on="0"/>
        <pt x="997" y="1672" on="1"/>
        <pt x="1010" y="1632" on="0"/>
        <pt x="1058" y="1597" on="1"/>
        <pt x="1107" y="1560" on="0"/>
        <pt x="1107" y="1558" on="1"/>
        <pt x="1107" y="1554" on="0"/>
        <pt x="1102" y="1551" on="1"/>
        <pt x="1098" y="1547" on="0"/>
      </contour>
    </TTGlyph>
    <TTGlyph name="Eth" xMin="40" yMin="0" xMax="1362" yMax="1427">
      <contour>
        <pt x="69" y="26" on="1"/>
        <pt x="1333" y="26" on="1"/>
        <pt x="1333" y="1402" on="1"/>
        <pt x="69" y="1402" on="1"/>
      </contour>
      <contour>
        <pt x="40" y="0" on="1"/>
        <pt x="40" y="1427" on="1"/>
        <pt x="1362" y="1427" on="1"/>
        <pt x="1362" y="0" on="1"/>
      </contour>
    </TTGlyph>
    <TTGlyph name="F" xMin="-188" yMin="-8" xMax="1956" yMax="1459">
      <contour>
        <pt x="-188" y="77" on="1"/>
        <pt x="-125" y="161" on="1"/>
        <pt x="-16" y="92" on="0"/>
        <pt x="83" y="61" on="1"/>
        <pt x="185" y="28" on="0"/>
        <pt x="286" y="28" on="1"/>
        <pt x="438" y="28" on="0"/>
        <pt x="557" y="125" on="1"/>
        <pt x="675" y="221" on="0"/>
        <pt x="775" y="427" on="1"/>
        <pt x="487" y="427" on="1"/>
        <pt x="503" y="472" on="1"/>
        <pt x="794" y="472" on="1"/>
        <pt x="816" y="532" on="0"/>
        <pt x="857" y="643" on="0"/>
        <pt x="875" y="694" on="1"/>
        <pt x="911" y="798" on="0"/>
        <pt x="935" y="878" on="1"/>
        <pt x="1070" y="1326" on="1"/>
        <pt x="941" y="1337" on="0"/>
        <pt x="851" y="1343" on="1"/>
        <pt x="749" y="1349" on="0"/>
        <pt x="657" y="1349" on="1"/>
        <pt x="375" y="1349" on="0"/>
        <pt x="225" y="1313" on="1"/>
        <pt x="75" y="1275" on="0"/>
        <pt x="75" y="1209" on="1"/>
        <pt x="75" y="1144" on="0"/>
        <pt x="192" y="1099" on="1"/>
        <pt x="308" y="1051" on="0"/>
        <pt x="511" y="1039" on="1"/>
        <pt x="442" y="947" on="1"/>
        <pt x="262" y="966" on="0"/>
        <pt x="155" y="1036" on="1"/>
        <pt x="48" y="1106" on="0"/>
        <pt x="48" y="1197" on="1"/>
        <pt x="48" y="1322" on="0"/>
        <pt x="246" y="1391" on="1"/>
        <pt x="443" y="1459" on="0"/>
        <pt x="804" y="1459" on="1"/>
        <pt x="856" y="1459" on="0"/>
        <pt x="963" y="1457" on="0"/>
        <pt x="1017" y="1457" on="1"/>
        <pt x="1071" y="1454" on="0"/>
        <pt x="1180" y="1450" on="0"/>
        <pt x="1236" y="1447" on="1"/>
        <pt x="1426" y="1438" on="0"/>
        <pt x="1765" y="1414" on="0"/>
        <pt x="1956" y="1400" on="1"/>
        <pt x="1893" y="1379" on="0"/>
        <pt x="1705" y="1368" on="0"/>
        <pt x="1708" y="1317" on="1"/>
        <pt x="1459" y="1336" on="0"/>
        <pt x="1210" y="1332" on="1"/>
        <pt x="1185" y="1224" on="0"/>
        <pt x="1124" y="1008" on="0"/>
        <pt x="1091" y="901" on="1"/>
        <pt x="1058" y="793" on="0"/>
        <pt x="981" y="579" on="0"/>
        <pt x="939" y="472" on="1"/>
        <pt x="1119" y="472" on="1"/>
        <pt x="1105" y="427" on="1"/>
        <pt x="919" y="427" on="1"/>
        <pt x="817" y="211" on="0"/>
        <pt x="652" y="102" on="1"/>
        <pt x="487" y="-7" on="0"/>
        <pt x="263" y="-8" on="1"/>
        <pt x="162" y="-8" on="0"/>
        <pt x="49" y="12" on="1"/>
        <pt x="-62" y="33" on="0"/>
        <pt x="-188" y="77" on="1"/>
      </contour>
      <contour>
        <pt x="1435" y="1134" on="1"/>
        <pt x="1473" y="1196" on="0"/>
        <pt x="1547" y="1168" on="1"/>
        <pt x="1631" y="1128" on="0"/>
        <pt x="1606" y="1056" on="1"/>
        <pt x="1604" y="1051" on="0"/>
        <pt x="1590" y="1017" on="0"/>
        <pt x="1566" y="1008" on="1"/>
        <pt x="1509" y="984" on="0"/>
        <pt x="1381" y="954" on="0"/>
        <pt x="1341" y="915" on="1"/>
        <pt x="1345" y="970" on="0"/>
        <pt x="1280" y="1081" on="0"/>
        <pt x="1260" y="1137" on="1"/>
        <pt x="1251" y="1161" on="0"/>
        <pt x="1261" y="1193" on="0"/>
        <pt x="1263" y="1201" on="1"/>
        <pt x="1295" y="1271" on="0"/>
        <pt x="1382" y="1238" on="1"/>
        <pt x="1453" y="1204" on="0"/>
      </contour>
      <contour>
        <pt x="244" y="675" on="1"/>
        <pt x="231" y="789" on="0"/>
        <pt x="350" y="823" on="1"/>
        <pt x="406" y="836" on="0"/>
        <pt x="512" y="794" on="0"/>
        <pt x="529" y="742" on="1"/>
        <pt x="532" y="734" on="0"/>
        <pt x="545" y="678" on="0"/>
        <pt x="526" y="644" on="1"/>
        <pt x="478" y="561" on="0"/>
        <pt x="349" y="403" on="0"/>
        <pt x="337" y="315" on="1"/>
        <pt x="289" y="388" on="0"/>
        <pt x="103" y="463" on="0"/>
        <pt x="25" y="512" on="1"/>
        <pt x="-7" y="533" on="0"/>
        <pt x="-25" y="582" on="0"/>
        <pt x="-31" y="594" on="1"/>
        <pt x="-43" y="647" on="0"/>
        <pt x="24" y="737" on="0"/>
        <pt x="79" y="753" on="1"/>
        <pt x="200" y="780" on="0"/>
      </contour>
    </TTGlyph>
    <TTGlyph name="G" xMin="-57" yMin="-465" xMax="1232" yMax="1476">
      <contour>
        <pt x="-14" y="-414" on="1"/>
        <pt x="1" y="-299" on="1"/>
        <pt x="104" y="-365" on="0"/>
        <pt x="186" y="-394" on="1"/>
        <pt x="274" y="-426" on="0"/>
        <pt x="354" y="-426" on="1"/>
        <pt x="479" y="-426" on="0"/>
        <pt x="562" y="-341" on="1"/>
        <pt x="645" y="-254" on="0"/>
        <pt x="702" y="-68" on="1"/>
        <pt x="749" y="91" on="1"/>
        <pt x="669" y="47" on="0"/>
        <pt x="583" y="24" on="1"/>
        <pt x="498" y="0" on="0"/>
        <pt x="415" y="1" on="1"/>
        <pt x="204" y="1" on="0"/>
        <pt x="74" y="124" on="1"/>
        <pt x="-57" y="247" on="0"/>
        <pt x="-57" y="443" on="1"/>
        <pt x="-57" y="622" on="0"/>
        <pt x="55" y="824" on="1"/>
        <pt x="167" y="1023" on="0"/>
        <pt x="366" y="1189" on="1"/>
        <pt x="523" y="1319" on="0"/>
        <pt x="706" y="1398" on="1"/>
        <pt x="890" y="1476" on="0"/>
        <pt x="1029" y="1476" on="1"/>
        <pt x="1126" y="1476" on="0"/>
        <pt x="1180" y="1435" on="1"/>
        <pt x="1232" y="1392" on="0"/>
        <pt x="1232" y="1314" on="1"/>
        <pt x="1232" y="1223" on="0"/>
        <pt x="1155" y="1110" on="1"/>
        <pt x="1078" y="996" on="0"/>
        <pt x="945" y="894" on="1"/>
        <pt x="851" y="957" on="1"/>
        <pt x="1011" y="1081" on="0"/>
        <pt x="1092" y="1181" on="1"/>
        <pt x="1171" y="1277" on="0"/>
        <pt x="1171" y="1355" on="1"/>
        <pt x="1171" y="1396" on="0"/>
        <pt x="1136" y="1421" on="1"/>
        <pt x="1101" y="1445" on="0"/>
        <pt x="1040" y="1445" on="1"/>
        <pt x="939" y="1445" on="0"/>
        <pt x="815" y="1388" on="1"/>
        <pt x="689" y="1331" on="0"/>
        <pt x="564" y="1230" on="1"/>
        <pt x="342" y="1049" on="0"/>
        <pt x="214" y="825" on="1"/>
        <pt x="85" y="601" on="0"/>
        <pt x="85" y="404" on="1"/>
        <pt x="85" y="236" on="0"/>
        <pt x="178" y="137" on="1"/>
        <pt x="271" y="38" on="0"/>
        <pt x="427" y="38" on="1"/>
        <pt x="506" y="38" on="0"/>
        <pt x="593" y="69" on="1"/>
        <pt x="674" y="99" on="0"/>
        <pt x="771" y="167" on="1"/>
        <pt x="790" y="306" on="0"/>
        <pt x="853" y="375" on="1"/>
        <pt x="914" y="443" on="0"/>
        <pt x="1021" y="443" on="1"/>
        <pt x="1025" y="443" on="1"/>
        <pt x="987" y="379" on="0"/>
        <pt x="959" y="317" on="1"/>
        <pt x="931" y="254" on="0"/>
        <pt x="919" y="202" on="1"/>
        <pt x="863" y="-6" on="1"/>
        <pt x="804" y="-237" on="0"/>
        <pt x="670" y="-351" on="1"/>
        <pt x="536" y="-465" on="0"/>
        <pt x="321" y="-465" on="1"/>
        <pt x="253" y="-465" on="0"/>
        <pt x="162" y="-452" on="1"/>
        <pt x="79" y="-438" on="0"/>
        <pt x="-14" y="-414" on="1"/>
      </contour>
      <contour>
        <pt x="603" y="647" on="1"/>
        <pt x="590" y="773" on="0"/>
        <pt x="719" y="809" on="1"/>
        <pt x="780" y="824" on="0"/>
        <pt x="896" y="778" on="0"/>
        <pt x="915" y="721" on="1"/>
        <pt x="918" y="712" on="0"/>
        <pt x="933" y="651" on="0"/>
        <pt x="912" y="614" on="1"/>
        <pt x="859" y="523" on="0"/>
        <pt x="717" y="350" on="0"/>
        <pt x="704" y="254" on="1"/>
        <pt x="653" y="333" on="0"/>
        <pt x="448" y="415" on="0"/>
        <pt x="363" y="469" on="1"/>
        <pt x="327" y="492" on="0"/>
        <pt x="306" y="546" on="0"/>
        <pt x="301" y="558" on="1"/>
        <pt x="287" y="617" on="0"/>
        <pt x="362" y="714" on="0"/>
        <pt x="423" y="732" on="1"/>
        <pt x="553" y="763" on="0"/>
      </contour>
    </TTGlyph>
    <TTGlyph name="H" xMin="-563" yMin="-199" xMax="1789" yMax="1860">
      <contour>
        <pt x="1095" y="396" on="1"/>
        <pt x="971" y="396" on="0"/>
        <pt x="857" y="407" on="1"/>
        <pt x="742" y="419" on="0"/>
        <pt x="653" y="441" on="1"/>
        <pt x="772" y="367" on="0"/>
        <pt x="856" y="281" on="1"/>
        <pt x="942" y="191" on="0"/>
        <pt x="995" y="88" on="1"/>
      </contour>
      <contour>
        <pt x="-563" y="-95" on="1"/>
        <pt x="-485" y="-19" on="1"/>
        <pt x="-384" y="-93" on="0"/>
        <pt x="-293" y="-129" on="1"/>
        <pt x="-200" y="-164" on="0"/>
        <pt x="-108" y="-164" on="1"/>
        <pt x="61" y="-164" on="0"/>
        <pt x="200" y="-23" on="1"/>
        <pt x="269" y="46" on="0"/>
        <pt x="465" y="441" on="0"/>
        <pt x="505" y="570" on="1"/>
        <pt x="759" y="1390" on="1"/>
        <pt x="919" y="1437" on="1"/>
        <pt x="665" y="619" on="1"/>
        <pt x="659" y="604" on="0"/>
        <pt x="648" y="573" on="0"/>
        <pt x="642" y="556" on="1"/>
        <pt x="636" y="538" on="0"/>
        <pt x="622" y="502" on="0"/>
        <pt x="616" y="484" on="1"/>
        <pt x="710" y="457" on="0"/>
        <pt x="811" y="446" on="1"/>
        <pt x="910" y="433" on="0"/>
        <pt x="1029" y="433" on="1"/>
        <pt x="1052" y="433" on="0"/>
        <pt x="1069" y="434" on="1"/>
        <pt x="1087" y="435" on="0"/>
        <pt x="1109" y="435" on="1"/>
        <pt x="1418" y="1426" on="1"/>
        <pt x="1481" y="1586" on="0"/>
        <pt x="1749" y="1716" on="0"/>
        <pt x="1789" y="1641" on="1"/>
        <pt x="1657" y="1661" on="0"/>
        <pt x="1584" y="1482" on="1"/>
        <pt x="1247" y="435" on="1"/>
        <pt x="1271" y="436" on="0"/>
        <pt x="1321" y="440" on="1"/>
        <pt x="1374" y="444" on="0"/>
        <pt x="1398" y="447" on="1"/>
        <pt x="1388" y="407" on="1"/>
        <pt x="1355" y="401" on="0"/>
        <pt x="1326" y="399" on="1"/>
        <pt x="1308" y="397" on="0"/>
        <pt x="1262" y="393" on="0"/>
        <pt x="1234" y="392" on="1"/>
        <pt x="1111" y="1" on="1"/>
        <pt x="997" y="1" on="1"/>
        <pt x="946" y="130" on="0"/>
        <pt x="847" y="238" on="1"/>
        <pt x="745" y="348" on="0"/>
        <pt x="597" y="437" on="1"/>
        <pt x="544" y="327" on="0"/>
        <pt x="326" y="-33" on="0"/>
        <pt x="246" y="-88" on="1"/>
        <pt x="85" y="-199" on="0"/>
        <pt x="-125" y="-199" on="1"/>
        <pt x="-234" y="-199" on="0"/>
        <pt x="-346" y="-173" on="1"/>
        <pt x="-449" y="-148" on="0"/>
        <pt x="-563" y="-95" on="1"/>
      </contour>
      <contour>
        <pt x="274" y="756" on="1"/>
        <pt x="335" y="812" on="0"/>
        <pt x="405" y="760" on="1"/>
        <pt x="437" y="733" on="0"/>
        <pt x="459" y="654" on="0"/>
        <pt x="437" y="622" on="1"/>
        <pt x="434" y="617" on="0"/>
        <pt x="427" y="588" on="0"/>
        <pt x="379" y="582" on="1"/>
        <pt x="331" y="575" on="0"/>
        <pt x="165" y="578" on="0"/>
        <pt x="109" y="547" on="1"/>
        <pt x="130" y="605" on="0"/>
        <pt x="90" y="763" on="0"/>
        <pt x="86" y="811" on="1"/>
        <pt x="82" y="858" on="0"/>
        <pt x="103" y="870" on="0"/>
        <pt x="108" y="879" on="1"/>
        <pt x="133" y="909" on="0"/>
        <pt x="214" y="908" on="0"/>
        <pt x="247" y="884" on="1"/>
        <pt x="315" y="827" on="0"/>
      </contour>
      <contour>
        <pt x="1344" y="1754" on="1"/>
        <pt x="1345" y="1836" on="0"/>
        <pt x="1433" y="1849" on="1"/>
        <pt x="1534" y="1860" on="0"/>
        <pt x="1550" y="1773" on="1"/>
        <pt x="1549" y="1764" on="0"/>
        <pt x="1561" y="1741" on="0"/>
        <pt x="1534" y="1704" on="1"/>
        <pt x="1505" y="1665" on="0"/>
        <pt x="1389" y="1550" on="0"/>
        <pt x="1377" y="1489" on="1"/>
        <pt x="1345" y="1544" on="0"/>
        <pt x="1201" y="1629" on="0"/>
        <pt x="1164" y="1659" on="1"/>
        <pt x="1125" y="1689" on="0"/>
        <pt x="1136" y="1717" on="0"/>
        <pt x="1136" y="1723" on="1"/>
        <pt x="1133" y="1762" on="0"/>
        <pt x="1192" y="1818" on="0"/>
        <pt x="1234" y="1824" on="1"/>
        <pt x="1321" y="1833" on="0"/>
      </contour>
      <contour>
        <pt x="91" y="409" on="1"/>
        <pt x="106" y="515" on="0"/>
        <pt x="223" y="517" on="1"/>
        <pt x="277" y="515" on="0"/>
        <pt x="363" y="451" on="0"/>
        <pt x="366" y="400" on="1"/>
        <pt x="366" y="392" on="0"/>
        <pt x="383" y="357" on="0"/>
        <pt x="339" y="312" on="1"/>
        <pt x="294" y="267" on="0"/>
        <pt x="119" y="137" on="0"/>
        <pt x="87" y="60" on="1"/>
        <pt x="62" y="137" on="0"/>
        <pt x="-105" y="269" on="0"/>
        <pt x="-147" y="315" on="1"/>
        <pt x="-189" y="360" on="0"/>
        <pt x="-176" y="390" on="0"/>
        <pt x="-178" y="402" on="1"/>
        <pt x="-175" y="453" on="0"/>
        <pt x="-92" y="518" on="0"/>
        <pt x="-39" y="519" on="1"/>
        <pt x="74" y="515" on="0"/>
      </contour>
    </TTGlyph>
    <TTGlyph name="I" xMin="-286" yMin="-6" xMax="993" yMax="1480">
      <contour>
        <pt x="671" y="507" on="1"/>
        <pt x="766" y="760" on="0"/>
        <pt x="821" y="974" on="1"/>
        <pt x="874" y="1189" on="0"/>
        <pt x="874" y="1316" on="1"/>
        <pt x="874" y="1387" on="0"/>
        <pt x="858" y="1418" on="1"/>
        <pt x="841" y="1449" on="0"/>
        <pt x="806" y="1449" on="1"/>
        <pt x="706" y="1449" on="0"/>
        <pt x="615" y="1260" on="1"/>
        <pt x="524" y="1068" on="0"/>
        <pt x="524" y="824" on="1"/>
        <pt x="524" y="716" on="0"/>
        <pt x="560" y="638" on="1"/>
        <pt x="594" y="560" on="0"/>
        <pt x="671" y="507" on="1"/>
      </contour>
      <contour>
        <pt x="-286" y="89" on="1"/>
        <pt x="-211" y="177" on="1"/>
        <pt x="-92" y="100" on="0"/>
        <pt x="0" y="66" on="1"/>
        <pt x="98" y="28" on="0"/>
        <pt x="177" y="28" on="1"/>
        <pt x="325" y="28" on="0"/>
        <pt x="448" y="141" on="1"/>
        <pt x="571" y="257" on="0"/>
        <pt x="659" y="476" on="1"/>
        <pt x="532" y="549" on="0"/>
        <pt x="472" y="651" on="1"/>
        <pt x="411" y="756" on="0"/>
        <pt x="411" y="892" on="1"/>
        <pt x="411" y="1026" on="0"/>
        <pt x="459" y="1151" on="1"/>
        <pt x="506" y="1273" on="0"/>
        <pt x="597" y="1369" on="1"/>
        <pt x="648" y="1421" on="0"/>
        <pt x="703" y="1450" on="1"/>
        <pt x="760" y="1480" on="0"/>
        <pt x="810" y="1480" on="1"/>
        <pt x="894" y="1480" on="0"/>
        <pt x="944" y="1404" on="1"/>
        <pt x="993" y="1328" on="0"/>
        <pt x="993" y="1195" on="1"/>
        <pt x="993" y="1051" on="0"/>
        <pt x="944" y="866" on="1"/>
        <pt x="893" y="677" on="0"/>
        <pt x="800" y="460" on="1"/>
        <pt x="816" y="455" on="0"/>
        <pt x="857" y="449" on="1"/>
        <pt x="899" y="445" on="0"/>
        <pt x="919" y="445" on="1"/>
        <pt x="911" y="413" on="1"/>
        <pt x="891" y="413" on="0"/>
        <pt x="851" y="417" on="1"/>
        <pt x="832" y="418" on="0"/>
        <pt x="788" y="429" on="1"/>
        <pt x="682" y="208" on="0"/>
        <pt x="526" y="101" on="1"/>
        <pt x="371" y="-6" on="0"/>
        <pt x="155" y="-6" on="1"/>
        <pt x="39" y="-6" on="0"/>
        <pt x="-64" y="17" on="1"/>
        <pt x="-173" y="41" on="0"/>
        <pt x="-286" y="89" on="1"/>
      </contour>
      <contour>
        <pt x="159" y="472" on="1"/>
        <pt x="146" y="579" on="0"/>
        <pt x="258" y="611" on="1"/>
        <pt x="310" y="623" on="0"/>
        <pt x="410" y="584" on="0"/>
        <pt x="426" y="535" on="1"/>
        <pt x="429" y="528" on="0"/>
        <pt x="441" y="475" on="0"/>
        <pt x="423" y="443" on="1"/>
        <pt x="378" y="365" on="0"/>
        <pt x="257" y="217" on="0"/>
        <pt x="246" y="135" on="1"/>
        <pt x="201" y="203" on="0"/>
        <pt x="26" y="273" on="0"/>
        <pt x="-46" y="320" on="1"/>
        <pt x="-76" y="339" on="0"/>
        <pt x="-94" y="385" on="0"/>
        <pt x="-99" y="396" on="1"/>
        <pt x="-110" y="446" on="0"/>
        <pt x="-47" y="530" on="0"/>
        <pt x="4" y="545" on="1"/>
        <pt x="116" y="572" on="0"/>
      </contour>
    </TTGlyph>
    <TTGlyph name="Iacute" xMin="-286" yMin="-6" xMax="993" yMax="1798">
      <contour>
        <pt x="671" y="507" on="1"/>
        <pt x="766" y="760" on="0"/>
        <pt x="821" y="974" on="1"/>
        <pt x="874" y="1189" on="0"/>
        <pt x="874" y="1316" on="1"/>
        <pt x="874" y="1387" on="0"/>
        <pt x="858" y="1418" on="1"/>
        <pt x="841" y="1449" on="0"/>
        <pt x="806" y="1449" on="1"/>
        <pt x="706" y="1449" on="0"/>
        <pt x="615" y="1260" on="1"/>
        <pt x="524" y="1068" on="0"/>
        <pt x="524" y="824" on="1"/>
        <pt x="524" y="716" on="0"/>
        <pt x="560" y="638" on="1"/>
        <pt x="594" y="560" on="0"/>
        <pt x="671" y="507" on="1"/>
      </contour>
      <contour>
        <pt x="-286" y="89" on="1"/>
        <pt x="-211" y="177" on="1"/>
        <pt x="-92" y="100" on="0"/>
        <pt x="0" y="66" on="1"/>
        <pt x="98" y="28" on="0"/>
        <pt x="177" y="28" on="1"/>
        <pt x="325" y="28" on="0"/>
        <pt x="448" y="141" on="1"/>
        <pt x="571" y="257" on="0"/>
        <pt x="659" y="476" on="1"/>
        <pt x="532" y="549" on="0"/>
        <pt x="472" y="651" on="1"/>
        <pt x="411" y="756" on="0"/>
        <pt x="411" y="892" on="1"/>
        <pt x="411" y="1026" on="0"/>
        <pt x="459" y="1151" on="1"/>
        <pt x="506" y="1273" on="0"/>
        <pt x="597" y="1369" on="1"/>
        <pt x="648" y="1421" on="0"/>
        <pt x="703" y="1450" on="1"/>
        <pt x="760" y="1480" on="0"/>
        <pt x="810" y="1480" on="1"/>
        <pt x="894" y="1480" on="0"/>
        <pt x="944" y="1404" on="1"/>
        <pt x="993" y="1328" on="0"/>
        <pt x="993" y="1195" on="1"/>
        <pt x="993" y="1051" on="0"/>
        <pt x="944" y="866" on="1"/>
        <pt x="893" y="677" on="0"/>
        <pt x="800" y="460" on="1"/>
        <pt x="816" y="455" on="0"/>
        <pt x="857" y="449" on="1"/>
        <pt x="899" y="445" on="0"/>
        <pt x="919" y="445" on="1"/>
        <pt x="911" y="413" on="1"/>
        <pt x="891" y="413" on="0"/>
        <pt x="851" y="417" on="1"/>
        <pt x="832" y="418" on="0"/>
        <pt x="788" y="429" on="1"/>
        <pt x="682" y="208" on="0"/>
        <pt x="526" y="101" on="1"/>
        <pt x="371" y="-6" on="0"/>
        <pt x="155" y="-6" on="1"/>
        <pt x="39" y="-6" on="0"/>
        <pt x="-64" y="17" on="1"/>
        <pt x="-173" y="41" on="0"/>
        <pt x="-286" y="89" on="1"/>
      </contour>
      <contour>
        <pt x="159" y="472" on="1"/>
        <pt x="146" y="579" on="0"/>
        <pt x="258" y="611" on="1"/>
        <pt x="310" y="623" on="0"/>
        <pt x="410" y="584" on="0"/>
        <pt x="426" y="535" on="1"/>
        <pt x="429" y="528" on="0"/>
        <pt x="441" y="475" on="0"/>
        <pt x="423" y="443" on="1"/>
        <pt x="378" y="365" on="0"/>
        <pt x="257" y="217" on="0"/>
        <pt x="246" y="135" on="1"/>
        <pt x="201" y="203" on="0"/>
        <pt x="26" y="273" on="0"/>
        <pt x="-46" y="320" on="1"/>
        <pt x="-76" y="339" on="0"/>
        <pt x="-94" y="385" on="0"/>
        <pt x="-99" y="396" on="1"/>
        <pt x="-110" y="446" on="0"/>
        <pt x="-47" y="530" on="0"/>
        <pt x="4" y="545" on="1"/>
        <pt x="116" y="572" on="0"/>
      </contour>
      <contour>
        <pt x="710" y="1546" on="1"/>
        <pt x="702" y="1547" on="0"/>
        <pt x="700" y="1550" on="1"/>
        <pt x="696" y="1552" on="0"/>
        <pt x="696" y="1559" on="1"/>
        <pt x="696" y="1560" on="0"/>
        <pt x="748" y="1593" on="1"/>
        <pt x="799" y="1622" on="0"/>
        <pt x="825" y="1665" on="1"/>
        <pt x="837" y="1690" on="0"/>
        <pt x="851" y="1733" on="1"/>
        <pt x="870" y="1798" on="0"/>
        <pt x="907" y="1798" on="1"/>
        <pt x="927" y="1798" on="0"/>
        <pt x="939" y="1785" on="1"/>
        <pt x="952" y="1770" on="0"/>
        <pt x="952" y="1749" on="1"/>
        <pt x="952" y="1727" on="0"/>
        <pt x="933" y="1699" on="1"/>
        <pt x="915" y="1674" on="0"/>
        <pt x="874" y="1638" on="1"/>
        <pt x="831" y="1601" on="0"/>
        <pt x="778" y="1574" on="1"/>
        <pt x="725" y="1546" on="0"/>
      </contour>
    </TTGlyph>
    <TTGlyph name="Icircumflex" xMin="-286" yMin="-6" xMax="1017" yMax="1793">
      <contour>
        <pt x="671" y="507" on="1"/>
        <pt x="766" y="760" on="0"/>
        <pt x="821" y="974" on="1"/>
        <pt x="874" y="1189" on="0"/>
        <pt x="874" y="1316" on="1"/>
        <pt x="874" y="1387" on="0"/>
        <pt x="858" y="1418" on="1"/>
        <pt x="841" y="1449" on="0"/>
        <pt x="806" y="1449" on="1"/>
        <pt x="706" y="1449" on="0"/>
        <pt x="615" y="1260" on="1"/>
        <pt x="524" y="1068" on="0"/>
        <pt x="524" y="824" on="1"/>
        <pt x="524" y="716" on="0"/>
        <pt x="560" y="638" on="1"/>
        <pt x="594" y="560" on="0"/>
        <pt x="671" y="507" on="1"/>
      </contour>
      <contour>
        <pt x="-286" y="89" on="1"/>
        <pt x="-211" y="177" on="1"/>
        <pt x="-92" y="100" on="0"/>
        <pt x="0" y="66" on="1"/>
        <pt x="98" y="28" on="0"/>
        <pt x="177" y="28" on="1"/>
        <pt x="325" y="28" on="0"/>
        <pt x="448" y="141" on="1"/>
        <pt x="571" y="257" on="0"/>
        <pt x="659" y="476" on="1"/>
        <pt x="532" y="549" on="0"/>
        <pt x="472" y="651" on="1"/>
        <pt x="411" y="756" on="0"/>
        <pt x="411" y="892" on="1"/>
        <pt x="411" y="1026" on="0"/>
        <pt x="459" y="1151" on="1"/>
        <pt x="506" y="1273" on="0"/>
        <pt x="597" y="1369" on="1"/>
        <pt x="648" y="1421" on="0"/>
        <pt x="703" y="1450" on="1"/>
        <pt x="760" y="1480" on="0"/>
        <pt x="810" y="1480" on="1"/>
        <pt x="894" y="1480" on="0"/>
        <pt x="944" y="1404" on="1"/>
        <pt x="993" y="1328" on="0"/>
        <pt x="993" y="1195" on="1"/>
        <pt x="993" y="1051" on="0"/>
        <pt x="944" y="866" on="1"/>
        <pt x="893" y="677" on="0"/>
        <pt x="800" y="460" on="1"/>
        <pt x="816" y="455" on="0"/>
        <pt x="857" y="449" on="1"/>
        <pt x="899" y="445" on="0"/>
        <pt x="919" y="445" on="1"/>
        <pt x="911" y="413" on="1"/>
        <pt x="891" y="413" on="0"/>
        <pt x="851" y="417" on="1"/>
        <pt x="832" y="418" on="0"/>
        <pt x="788" y="429" on="1"/>
        <pt x="682" y="208" on="0"/>
        <pt x="526" y="101" on="1"/>
        <pt x="371" y="-6" on="0"/>
        <pt x="155" y="-6" on="1"/>
        <pt x="39" y="-6" on="0"/>
        <pt x="-64" y="17" on="1"/>
        <pt x="-173" y="41" on="0"/>
        <pt x="-286" y="89" on="1"/>
      </contour>
      <contour>
        <pt x="159" y="472" on="1"/>
        <pt x="146" y="579" on="0"/>
        <pt x="258" y="611" on="1"/>
        <pt x="310" y="623" on="0"/>
        <pt x="410" y="584" on="0"/>
        <pt x="426" y="535" on="1"/>
        <pt x="429" y="528" on="0"/>
        <pt x="441" y="475" on="0"/>
        <pt x="423" y="443" on="1"/>
        <pt x="378" y="365" on="0"/>
        <pt x="257" y="217" on="0"/>
        <pt x="246" y="135" on="1"/>
        <pt x="201" y="203" on="0"/>
        <pt x="26" y="273" on="0"/>
        <pt x="-46" y="320" on="1"/>
        <pt x="-76" y="339" on="0"/>
        <pt x="-94" y="385" on="0"/>
        <pt x="-99" y="396" on="1"/>
        <pt x="-110" y="446" on="0"/>
        <pt x="-47" y="530" on="0"/>
        <pt x="4" y="545" on="1"/>
        <pt x="116" y="572" on="0"/>
      </contour>
      <contour>
        <pt x="884" y="1793" on="1"/>
        <pt x="914" y="1793" on="1"/>
        <pt x="937" y="1710" on="0"/>
        <pt x="977" y="1637" on="1"/>
        <pt x="1017" y="1562" on="0"/>
        <pt x="1017" y="1558" on="1"/>
        <pt x="1015" y="1552" on="0"/>
        <pt x="1015" y="1552" on="1"/>
        <pt x="1014" y="1552" on="0"/>
        <pt x="1009" y="1551" on="0"/>
        <pt x="1006" y="1551" on="1"/>
        <pt x="995" y="1551" on="0"/>
        <pt x="957" y="1589" on="1"/>
        <pt x="920" y="1627" on="0"/>
        <pt x="884" y="1683" on="1"/>
        <pt x="823" y="1627" on="0"/>
        <pt x="761" y="1588" on="1"/>
        <pt x="700" y="1551" on="0"/>
        <pt x="677" y="1551" on="1"/>
        <pt x="671" y="1551" on="0"/>
        <pt x="667" y="1553" on="1"/>
        <pt x="666" y="1555" on="0"/>
        <pt x="664" y="1561" on="1"/>
        <pt x="664" y="1564" on="0"/>
        <pt x="742" y="1636" on="1"/>
        <pt x="823" y="1710" on="0"/>
      </contour>
    </TTGlyph>
    <TTGlyph name="Idieresis" xMin="-286" yMin="-6" xMax="1022" yMax="1664">
      <contour>
        <pt x="671" y="507" on="1"/>
        <pt x="766" y="760" on="0"/>
        <pt x="821" y="974" on="1"/>
        <pt x="874" y="1189" on="0"/>
        <pt x="874" y="1316" on="1"/>
        <pt x="874" y="1387" on="0"/>
        <pt x="858" y="1418" on="1"/>
        <pt x="841" y="1449" on="0"/>
        <pt x="806" y="1449" on="1"/>
        <pt x="706" y="1449" on="0"/>
        <pt x="615" y="1260" on="1"/>
        <pt x="524" y="1068" on="0"/>
        <pt x="524" y="824" on="1"/>
        <pt x="524" y="716" on="0"/>
        <pt x="560" y="638" on="1"/>
        <pt x="594" y="560" on="0"/>
        <pt x="671" y="507" on="1"/>
      </contour>
      <contour>
        <pt x="-286" y="89" on="1"/>
        <pt x="-211" y="177" on="1"/>
        <pt x="-92" y="100" on="0"/>
        <pt x="0" y="66" on="1"/>
        <pt x="98" y="28" on="0"/>
        <pt x="177" y="28" on="1"/>
        <pt x="325" y="28" on="0"/>
        <pt x="448" y="141" on="1"/>
        <pt x="571" y="257" on="0"/>
        <pt x="659" y="476" on="1"/>
        <pt x="532" y="549" on="0"/>
        <pt x="472" y="651" on="1"/>
        <pt x="411" y="756" on="0"/>
        <pt x="411" y="892" on="1"/>
        <pt x="411" y="1026" on="0"/>
        <pt x="459" y="1151" on="1"/>
        <pt x="506" y="1273" on="0"/>
        <pt x="597" y="1369" on="1"/>
        <pt x="648" y="1421" on="0"/>
        <pt x="703" y="1450" on="1"/>
        <pt x="760" y="1480" on="0"/>
        <pt x="810" y="1480" on="1"/>
        <pt x="894" y="1480" on="0"/>
        <pt x="944" y="1404" on="1"/>
        <pt x="993" y="1328" on="0"/>
        <pt x="993" y="1195" on="1"/>
        <pt x="993" y="1051" on="0"/>
        <pt x="944" y="866" on="1"/>
        <pt x="893" y="677" on="0"/>
        <pt x="800" y="460" on="1"/>
        <pt x="816" y="455" on="0"/>
        <pt x="857" y="449" on="1"/>
        <pt x="899" y="445" on="0"/>
        <pt x="919" y="445" on="1"/>
        <pt x="911" y="413" on="1"/>
        <pt x="891" y="413" on="0"/>
        <pt x="851" y="417" on="1"/>
        <pt x="832" y="418" on="0"/>
        <pt x="788" y="429" on="1"/>
        <pt x="682" y="208" on="0"/>
        <pt x="526" y="101" on="1"/>
        <pt x="371" y="-6" on="0"/>
        <pt x="155" y="-6" on="1"/>
        <pt x="39" y="-6" on="0"/>
        <pt x="-64" y="17" on="1"/>
        <pt x="-173" y="41" on="0"/>
        <pt x="-286" y="89" on="1"/>
      </contour>
      <contour>
        <pt x="159" y="472" on="1"/>
        <pt x="146" y="579" on="0"/>
        <pt x="258" y="611" on="1"/>
        <pt x="310" y="623" on="0"/>
        <pt x="410" y="584" on="0"/>
        <pt x="426" y="535" on="1"/>
        <pt x="429" y="528" on="0"/>
        <pt x="441" y="475" on="0"/>
        <pt x="423" y="443" on="1"/>
        <pt x="378" y="365" on="0"/>
        <pt x="257" y="217" on="0"/>
        <pt x="246" y="135" on="1"/>
        <pt x="201" y="203" on="0"/>
        <pt x="26" y="273" on="0"/>
        <pt x="-46" y="320" on="1"/>
        <pt x="-76" y="339" on="0"/>
        <pt x="-94" y="385" on="0"/>
        <pt x="-99" y="396" on="1"/>
        <pt x="-110" y="446" on="0"/>
        <pt x="-47" y="530" on="0"/>
        <pt x="4" y="545" on="1"/>
        <pt x="116" y="572" on="0"/>
      </contour>
      <contour>
        <pt x="666" y="1608" on="1"/>
        <pt x="666" y="1631" on="0"/>
        <pt x="682" y="1647" on="1"/>
        <pt x="699" y="1664" on="0"/>
        <pt x="721" y="1664" on="1"/>
        <pt x="743" y="1664" on="0"/>
        <pt x="761" y="1648" on="1"/>
        <pt x="777" y="1632" on="0"/>
        <pt x="777" y="1608" on="1"/>
        <pt x="777" y="1585" on="0"/>
        <pt x="761" y="1569" on="1"/>
        <pt x="745" y="1553" on="0"/>
        <pt x="721" y="1553" on="1"/>
        <pt x="699" y="1553" on="0"/>
        <pt x="682" y="1569" on="1"/>
        <pt x="666" y="1586" on="0"/>
      </contour>
      <contour>
        <pt x="911" y="1608" on="1"/>
        <pt x="911" y="1632" on="0"/>
        <pt x="927" y="1648" on="1"/>
        <pt x="943" y="1664" on="0"/>
        <pt x="967" y="1664" on="1"/>
        <pt x="991" y="1664" on="0"/>
        <pt x="1006" y="1648" on="1"/>
        <pt x="1022" y="1632" on="0"/>
        <pt x="1022" y="1608" on="1"/>
        <pt x="1022" y="1586" on="0"/>
        <pt x="1006" y="1569" on="1"/>
        <pt x="990" y="1553" on="0"/>
        <pt x="967" y="1553" on="1"/>
        <pt x="944" y="1553" on="0"/>
        <pt x="927" y="1569" on="1"/>
        <pt x="911" y="1585" on="0"/>
      </contour>
    </TTGlyph>
    <TTGlyph name="Igrave" xMin="-286" yMin="-6" xMax="1013" yMax="1791">
      <contour>
        <pt x="671" y="507" on="1"/>
        <pt x="766" y="760" on="0"/>
        <pt x="821" y="974" on="1"/>
        <pt x="874" y="1189" on="0"/>
        <pt x="874" y="1316" on="1"/>
        <pt x="874" y="1387" on="0"/>
        <pt x="858" y="1418" on="1"/>
        <pt x="841" y="1449" on="0"/>
        <pt x="806" y="1449" on="1"/>
        <pt x="706" y="1449" on="0"/>
        <pt x="615" y="1260" on="1"/>
        <pt x="524" y="1068" on="0"/>
        <pt x="524" y="824" on="1"/>
        <pt x="524" y="716" on="0"/>
        <pt x="560" y="638" on="1"/>
        <pt x="594" y="560" on="0"/>
        <pt x="671" y="507" on="1"/>
      </contour>
      <contour>
        <pt x="-286" y="89" on="1"/>
        <pt x="-211" y="177" on="1"/>
        <pt x="-92" y="100" on="0"/>
        <pt x="0" y="66" on="1"/>
        <pt x="98" y="28" on="0"/>
        <pt x="177" y="28" on="1"/>
        <pt x="325" y="28" on="0"/>
        <pt x="448" y="141" on="1"/>
        <pt x="571" y="257" on="0"/>
        <pt x="659" y="476" on="1"/>
        <pt x="532" y="549" on="0"/>
        <pt x="472" y="651" on="1"/>
        <pt x="411" y="756" on="0"/>
        <pt x="411" y="892" on="1"/>
        <pt x="411" y="1026" on="0"/>
        <pt x="459" y="1151" on="1"/>
        <pt x="506" y="1273" on="0"/>
        <pt x="597" y="1369" on="1"/>
        <pt x="648" y="1421" on="0"/>
        <pt x="703" y="1450" on="1"/>
        <pt x="760" y="1480" on="0"/>
        <pt x="810" y="1480" on="1"/>
        <pt x="894" y="1480" on="0"/>
        <pt x="944" y="1404" on="1"/>
        <pt x="993" y="1328" on="0"/>
        <pt x="993" y="1195" on="1"/>
        <pt x="993" y="1051" on="0"/>
        <pt x="944" y="866" on="1"/>
        <pt x="893" y="677" on="0"/>
        <pt x="800" y="460" on="1"/>
        <pt x="816" y="455" on="0"/>
        <pt x="857" y="449" on="1"/>
        <pt x="899" y="445" on="0"/>
        <pt x="919" y="445" on="1"/>
        <pt x="911" y="413" on="1"/>
        <pt x="891" y="413" on="0"/>
        <pt x="851" y="417" on="1"/>
        <pt x="832" y="418" on="0"/>
        <pt x="788" y="429" on="1"/>
        <pt x="682" y="208" on="0"/>
        <pt x="526" y="101" on="1"/>
        <pt x="371" y="-6" on="0"/>
        <pt x="155" y="-6" on="1"/>
        <pt x="39" y="-6" on="0"/>
        <pt x="-64" y="17" on="1"/>
        <pt x="-173" y="41" on="0"/>
        <pt x="-286" y="89" on="1"/>
      </contour>
      <contour>
        <pt x="159" y="472" on="1"/>
        <pt x="146" y="579" on="0"/>
        <pt x="258" y="611" on="1"/>
        <pt x="310" y="623" on="0"/>
        <pt x="410" y="584" on="0"/>
        <pt x="426" y="535" on="1"/>
        <pt x="429" y="528" on="0"/>
        <pt x="441" y="475" on="0"/>
        <pt x="423" y="443" on="1"/>
        <pt x="378" y="365" on="0"/>
        <pt x="257" y="217" on="0"/>
        <pt x="246" y="135" on="1"/>
        <pt x="201" y="203" on="0"/>
        <pt x="26" y="273" on="0"/>
        <pt x="-46" y="320" on="1"/>
        <pt x="-76" y="339" on="0"/>
        <pt x="-94" y="385" on="0"/>
        <pt x="-99" y="396" on="1"/>
        <pt x="-110" y="446" on="0"/>
        <pt x="-47" y="530" on="0"/>
        <pt x="4" y="545" on="1"/>
        <pt x="116" y="572" on="0"/>
      </contour>
      <contour>
        <pt x="998" y="1535" on="1"/>
        <pt x="982" y="1535" on="0"/>
        <pt x="949" y="1558" on="1"/>
        <pt x="923" y="1574" on="0"/>
        <pt x="874" y="1616" on="1"/>
        <pt x="831" y="1655" on="0"/>
        <pt x="809" y="1687" on="1"/>
        <pt x="787" y="1719" on="0"/>
        <pt x="787" y="1741" on="1"/>
        <pt x="787" y="1765" on="0"/>
        <pt x="799" y="1777" on="1"/>
        <pt x="811" y="1791" on="0"/>
        <pt x="831" y="1791" on="1"/>
        <pt x="871" y="1791" on="0"/>
        <pt x="891" y="1710" on="1"/>
        <pt x="894" y="1694" on="0"/>
        <pt x="900" y="1668" on="0"/>
        <pt x="903" y="1659" on="1"/>
        <pt x="916" y="1618" on="0"/>
        <pt x="964" y="1585" on="1"/>
        <pt x="1013" y="1548" on="0"/>
        <pt x="1013" y="1545" on="1"/>
        <pt x="1013" y="1541" on="0"/>
        <pt x="1008" y="1538" on="1"/>
        <pt x="1003" y="1535" on="0"/>
      </contour>
    </TTGlyph>
    <TTGlyph name="J" xMin="-235" yMin="-469" xMax="855" yMax="1801">
      <contour>
        <pt x="517" y="359" on="1"/>
        <pt x="201" y="303" on="0"/>
        <pt x="0" y="121" on="1"/>
        <pt x="-203" y="-60" on="0"/>
        <pt x="-203" y="-274" on="1"/>
        <pt x="-203" y="-336" on="0"/>
        <pt x="-164" y="-377" on="1"/>
        <pt x="-126" y="-418" on="0"/>
        <pt x="-69" y="-418" on="1"/>
        <pt x="54" y="-418" on="0"/>
        <pt x="210" y="-213" on="1"/>
        <pt x="365" y="-7" on="0"/>
        <pt x="517" y="359" on="1"/>
      </contour>
      <contour>
        <pt x="462" y="622" on="1"/>
        <pt x="418" y="721" on="0"/>
        <pt x="400" y="805" on="1"/>
        <pt x="380" y="891" on="0"/>
        <pt x="380" y="970" on="1"/>
        <pt x="380" y="1072" on="0"/>
        <pt x="415" y="1181" on="1"/>
        <pt x="450" y="1289" on="0"/>
        <pt x="509" y="1371" on="1"/>
        <pt x="550" y="1427" on="0"/>
        <pt x="590" y="1454" on="1"/>
        <pt x="631" y="1480" on="0"/>
        <pt x="677" y="1480" on="1"/>
        <pt x="754" y="1480" on="0"/>
        <pt x="805" y="1393" on="1"/>
        <pt x="855" y="1303" on="0"/>
        <pt x="855" y="1166" on="1"/>
        <pt x="855" y="1054" on="0"/>
        <pt x="828" y="910" on="1"/>
        <pt x="799" y="765" on="0"/>
        <pt x="747" y="609" on="1"/>
        <pt x="694" y="450" on="1"/>
        <pt x="708" y="451" on="0"/>
        <pt x="739" y="455" on="0"/>
        <pt x="756" y="457" on="1"/>
        <pt x="796" y="460" on="0"/>
        <pt x="822" y="462" on="1"/>
        <pt x="806" y="398" on="1"/>
        <pt x="798" y="398" on="0"/>
        <pt x="790" y="397" on="1"/>
        <pt x="701" y="387" on="0"/>
        <pt x="675" y="382" on="1"/>
        <pt x="534" y="-10" on="0"/>
        <pt x="337" y="-239" on="1"/>
        <pt x="140" y="-469" on="0"/>
        <pt x="-45" y="-469" on="1"/>
        <pt x="-135" y="-469" on="0"/>
        <pt x="-185" y="-416" on="1"/>
        <pt x="-235" y="-362" on="0"/>
        <pt x="-235" y="-266" on="1"/>
        <pt x="-235" y="-42" on="0"/>
        <pt x="-16" y="157" on="1"/>
        <pt x="200" y="355" on="0"/>
        <pt x="546" y="425" on="1"/>
        <pt x="653" y="763" on="0"/>
        <pt x="694" y="951" on="1"/>
        <pt x="740" y="1154" on="0"/>
        <pt x="740" y="1273" on="1"/>
        <pt x="740" y="1355" on="0"/>
        <pt x="717" y="1405" on="1"/>
        <pt x="693" y="1451" on="0"/>
        <pt x="653" y="1451" on="1"/>
        <pt x="583" y="1451" on="0"/>
        <pt x="522" y="1320" on="1"/>
        <pt x="460" y="1188" on="0"/>
        <pt x="460" y="1017" on="1"/>
        <pt x="460" y="942" on="0"/>
        <pt x="479" y="862" on="1"/>
        <pt x="498" y="785" on="0"/>
        <pt x="536" y="706" on="1"/>
      </contour>
      <contour>
        <pt x="508" y="1682" on="1"/>
        <pt x="534" y="1773" on="0"/>
        <pt x="636" y="1761" on="1"/>
        <pt x="682" y="1752" on="0"/>
        <pt x="749" y="1687" on="0"/>
        <pt x="746" y="1642" on="1"/>
        <pt x="746" y="1635" on="0"/>
        <pt x="737" y="1588" on="0"/>
        <pt x="712" y="1568" on="1"/>
        <pt x="649" y="1520" on="0"/>
        <pt x="499" y="1443" on="0"/>
        <pt x="462" y="1380" on="1"/>
        <pt x="450" y="1450" on="0"/>
        <pt x="332" y="1567" on="0"/>
        <pt x="289" y="1630" on="1"/>
        <pt x="270" y="1656" on="0"/>
        <pt x="272" y="1699" on="0"/>
        <pt x="272" y="1710" on="1"/>
        <pt x="280" y="1754" on="0"/>
        <pt x="360" y="1801" on="0"/>
        <pt x="408" y="1795" on="1"/>
        <pt x="506" y="1777" on="0"/>
      </contour>
    </TTGlyph>
    <TTGlyph name="K" xMin="-524" yMin="-199" xMax="1724" yMax="1478">
      <contour>
        <pt x="1246" y="-2" on="1"/>
        <pt x="855" y="574" on="1"/>
        <pt x="1574" y="1463" on="1"/>
        <pt x="1724" y="1463" on="1"/>
        <pt x="964" y="673" on="1"/>
        <pt x="1351" y="107" on="1"/>
      </contour>
      <contour>
        <pt x="-524" y="-142" on="1"/>
        <pt x="-430" y="-43" on="1"/>
        <pt x="-320" y="-98" on="0"/>
        <pt x="-223" y="-127" on="1"/>
        <pt x="-122" y="-156" on="0"/>
        <pt x="-38" y="-156" on="1"/>
        <pt x="208" y="-156" on="0"/>
        <pt x="387" y="71" on="1"/>
        <pt x="475" y="185" on="0"/>
        <pt x="715" y="737" on="0"/>
        <pt x="775" y="974" on="1"/>
        <pt x="886" y="1416" on="1"/>
        <pt x="1066" y="1478" on="1"/>
        <pt x="890" y="832" on="1"/>
        <pt x="840" y="649" on="0"/>
        <pt x="605" y="145" on="0"/>
        <pt x="466" y="23" on="1"/>
        <pt x="337" y="-87" on="0"/>
        <pt x="184" y="-142" on="1"/>
        <pt x="22" y="-199" on="0"/>
        <pt x="-153" y="-199" on="1"/>
        <pt x="-245" y="-199" on="0"/>
        <pt x="-339" y="-185" on="1"/>
        <pt x="-425" y="-172" on="0"/>
        <pt x="-524" y="-142" on="1"/>
      </contour>
      <contour>
        <pt x="361" y="771" on="1"/>
        <pt x="343" y="838" on="0"/>
        <pt x="409" y="868" on="1"/>
        <pt x="488" y="900" on="0"/>
        <pt x="521" y="838" on="1"/>
        <pt x="523" y="833" on="0"/>
        <pt x="536" y="801" on="0"/>
        <pt x="528" y="780" on="1"/>
        <pt x="507" y="727" on="0"/>
        <pt x="447" y="623" on="0"/>
        <pt x="449" y="570" on="1"/>
        <pt x="414" y="608" on="0"/>
        <pt x="298" y="635" on="0"/>
        <pt x="248" y="656" on="1"/>
        <pt x="227" y="665" on="0"/>
        <pt x="211" y="692" on="0"/>
        <pt x="207" y="699" on="1"/>
        <pt x="180" y="766" on="0"/>
        <pt x="257" y="802" on="1"/>
        <pt x="324" y="828" on="0"/>
      </contour>
      <contour>
        <pt x="125" y="397" on="1"/>
        <pt x="112" y="515" on="0"/>
        <pt x="236" y="552" on="1"/>
        <pt x="294" y="566" on="0"/>
        <pt x="406" y="521" on="0"/>
        <pt x="424" y="467" on="1"/>
        <pt x="427" y="459" on="0"/>
        <pt x="441" y="401" on="0"/>
        <pt x="420" y="365" on="1"/>
        <pt x="370" y="278" on="0"/>
        <pt x="234" y="112" on="0"/>
        <pt x="222" y="20" on="1"/>
        <pt x="172" y="96" on="0"/>
        <pt x="-22" y="175" on="0"/>
        <pt x="-104" y="226" on="1"/>
        <pt x="-138" y="248" on="0"/>
        <pt x="-157" y="300" on="0"/>
        <pt x="-163" y="312" on="1"/>
        <pt x="-175" y="368" on="0"/>
        <pt x="-104" y="461" on="0"/>
        <pt x="-47" y="478" on="1"/>
        <pt x="77" y="507" on="0"/>
      </contour>
    </TTGlyph>
    <TTGlyph name="L" xMin="-246" yMin="-25" xMax="1361" yMax="1480">
      <contour>
        <pt x="388" y="146" on="1"/>
        <pt x="267" y="197" on="0"/>
        <pt x="176" y="222" on="1"/>
        <pt x="80" y="249" on="0"/>
        <pt x="16" y="249" on="1"/>
        <pt x="-74" y="249" on="0"/>
        <pt x="-133" y="215" on="1"/>
        <pt x="-190" y="179" on="0"/>
        <pt x="-190" y="126" on="1"/>
        <pt x="-190" y="69" on="0"/>
        <pt x="-135" y="39" on="1"/>
        <pt x="-78" y="7" on="0"/>
        <pt x="18" y="7" on="1"/>
        <pt x="111" y="7" on="0"/>
        <pt x="204" y="43" on="1"/>
        <pt x="296" y="77" on="0"/>
        <pt x="388" y="146" on="1"/>
      </contour>
      <contour>
        <pt x="1263" y="106" on="1"/>
        <pt x="1215" y="-2" on="1"/>
        <pt x="1016" y="-13" on="0"/>
        <pt x="658" y="40" on="0"/>
        <pt x="464" y="120" on="1"/>
        <pt x="351" y="46" on="0"/>
        <pt x="245" y="11" on="1"/>
        <pt x="134" y="-25" on="0"/>
        <pt x="24" y="-25" on="1"/>
        <pt x="-101" y="-25" on="0"/>
        <pt x="-174" y="19" on="1"/>
        <pt x="-246" y="64" on="0"/>
        <pt x="-246" y="142" on="1"/>
        <pt x="-246" y="225" on="0"/>
        <pt x="-159" y="283" on="1"/>
        <pt x="-71" y="341" on="0"/>
        <pt x="59" y="341" on="1"/>
        <pt x="133" y="341" on="0"/>
        <pt x="237" y="315" on="1"/>
        <pt x="331" y="291" on="0"/>
        <pt x="470" y="237" on="1"/>
        <pt x="508" y="293" on="0"/>
        <pt x="540" y="360" on="1"/>
        <pt x="565" y="418" on="0"/>
        <pt x="587" y="495" on="1"/>
        <pt x="661" y="767" on="1"/>
        <pt x="755" y="1115" on="0"/>
        <pt x="889" y="1298" on="1"/>
        <pt x="1022" y="1480" on="0"/>
        <pt x="1185" y="1480" on="1"/>
        <pt x="1267" y="1480" on="0"/>
        <pt x="1315" y="1420" on="1"/>
        <pt x="1361" y="1360" on="0"/>
        <pt x="1361" y="1250" on="1"/>
        <pt x="1361" y="1194" on="0"/>
        <pt x="1343" y="1119" on="1"/>
        <pt x="1327" y="1050" on="0"/>
        <pt x="1285" y="943" on="1"/>
        <pt x="1152" y="921" on="1"/>
        <pt x="1209" y="1048" on="0"/>
        <pt x="1238" y="1149" on="1"/>
        <pt x="1268" y="1249" on="0"/>
        <pt x="1268" y="1318" on="1"/>
        <pt x="1268" y="1386" on="0"/>
        <pt x="1247" y="1419" on="1"/>
        <pt x="1226" y="1449" on="0"/>
        <pt x="1175" y="1449" on="1"/>
        <pt x="1098" y="1449" on="0"/>
        <pt x="1019" y="1321" on="1"/>
        <pt x="939" y="1195" on="0"/>
        <pt x="863" y="953" on="1"/>
        <pt x="794" y="736" on="1"/>
        <pt x="792" y="728" on="0"/>
        <pt x="783" y="701" on="1"/>
        <pt x="693" y="411" on="0"/>
        <pt x="546" y="210" on="1"/>
        <pt x="724" y="134" on="0"/>
        <pt x="1082" y="106" on="0"/>
      </contour>
      <contour>
        <pt x="434" y="1100" on="1"/>
        <pt x="478" y="1172" on="0"/>
        <pt x="563" y="1139" on="1"/>
        <pt x="602" y="1121" on="0"/>
        <pt x="645" y="1048" on="0"/>
        <pt x="632" y="1010" on="1"/>
        <pt x="630" y="1004" on="0"/>
        <pt x="613" y="965" on="0"/>
        <pt x="586" y="954" on="1"/>
        <pt x="520" y="927" on="0"/>
        <pt x="372" y="893" on="0"/>
        <pt x="326" y="847" on="1"/>
        <pt x="331" y="911" on="0"/>
        <pt x="255" y="1039" on="0"/>
        <pt x="232" y="1104" on="1"/>
        <pt x="222" y="1131" on="0"/>
        <pt x="233" y="1168" on="0"/>
        <pt x="236" y="1177" on="1"/>
        <pt x="253" y="1214" on="0"/>
        <pt x="333" y="1235" on="0"/>
        <pt x="373" y="1220" on="1"/>
        <pt x="454" y="1182" on="0"/>
      </contour>
      <contour>
        <pt x="299" y="671" on="1"/>
        <pt x="268" y="772" on="0"/>
        <pt x="371" y="822" on="1"/>
        <pt x="419" y="843" on="0"/>
        <pt x="522" y="822" on="0"/>
        <pt x="546" y="778" on="1"/>
        <pt x="550" y="772" on="0"/>
        <pt x="572" y="723" on="0"/>
        <pt x="560" y="689" on="1"/>
        <pt x="530" y="606" on="0"/>
        <pt x="438" y="441" on="0"/>
        <pt x="442" y="360" on="1"/>
        <pt x="387" y="418" on="0"/>
        <pt x="205" y="455" on="0"/>
        <pt x="127" y="487" on="1"/>
        <pt x="93" y="500" on="0"/>
        <pt x="68" y="542" on="0"/>
        <pt x="62" y="552" on="1"/>
        <pt x="42" y="598" on="0"/>
        <pt x="89" y="690" on="0"/>
        <pt x="137" y="714" on="1"/>
        <pt x="241" y="758" on="0"/>
      </contour>
    </TTGlyph>
    <TTGlyph name="M" xMin="7" yMin="-397" xMax="1857" yMax="1796">
      <contour>
        <pt x="132" y="1" on="1"/>
        <pt x="311" y="576" on="0"/>
        <pt x="394" y="905" on="1"/>
        <pt x="474" y="1223" on="0"/>
        <pt x="474" y="1353" on="1"/>
        <pt x="474" y="1393" on="0"/>
        <pt x="461" y="1414" on="1"/>
        <pt x="449" y="1435" on="0"/>
        <pt x="425" y="1435" on="1"/>
        <pt x="373" y="1435" on="0"/>
        <pt x="298" y="1307" on="1"/>
        <pt x="221" y="1175" on="0"/>
        <pt x="104" y="890" on="1"/>
        <pt x="7" y="976" on="1"/>
        <pt x="139" y="1252" on="0"/>
        <pt x="237" y="1360" on="1"/>
        <pt x="333" y="1467" on="0"/>
        <pt x="440" y="1467" on="1"/>
        <pt x="509" y="1467" on="0"/>
        <pt x="547" y="1405" on="1"/>
        <pt x="585" y="1342" on="0"/>
        <pt x="585" y="1228" on="1"/>
        <pt x="585" y="1121" on="0"/>
        <pt x="527" y="893" on="1"/>
        <pt x="467" y="661" on="0"/>
        <pt x="311" y="169" on="1"/>
        <pt x="598" y="859" on="0"/>
        <pt x="787" y="1169" on="1"/>
        <pt x="974" y="1474" on="0"/>
        <pt x="1109" y="1474" on="1"/>
        <pt x="1179" y="1474" on="0"/>
        <pt x="1215" y="1428" on="1"/>
        <pt x="1253" y="1382" on="0"/>
        <pt x="1253" y="1297" on="1"/>
        <pt x="1253" y="1230" on="0"/>
        <pt x="1222" y="1117" on="1"/>
        <pt x="1207" y="1059" on="0"/>
        <pt x="1140" y="858" on="0"/>
        <pt x="1091" y="716" on="1"/>
        <pt x="1062" y="633" on="1"/>
        <pt x="923" y="229" on="0"/>
        <pt x="923" y="177" on="1"/>
        <pt x="923" y="171" on="0"/>
        <pt x="924" y="165" on="0"/>
        <pt x="924" y="165" on="1"/>
        <pt x="926" y="163" on="0"/>
        <pt x="929" y="163" on="1"/>
        <pt x="965" y="163" on="0"/>
        <pt x="1151" y="602" on="1"/>
        <pt x="1173" y="654" on="0"/>
        <pt x="1209" y="737" on="0"/>
        <pt x="1222" y="767" on="1"/>
        <pt x="1386" y="1150" on="0"/>
        <pt x="1502" y="1310" on="1"/>
        <pt x="1619" y="1474" on="0"/>
        <pt x="1728" y="1474" on="1"/>
        <pt x="1789" y="1474" on="0"/>
        <pt x="1823" y="1424" on="1"/>
        <pt x="1857" y="1371" on="0"/>
        <pt x="1857" y="1279" on="1"/>
        <pt x="1857" y="1200" on="0"/>
        <pt x="1778" y="874" on="0"/>
        <pt x="1709" y="637" on="1"/>
        <pt x="1674" y="518" on="0"/>
        <pt x="1587" y="218" on="0"/>
        <pt x="1503" y="-75" on="0"/>
        <pt x="1433" y="-326" on="0"/>
        <pt x="1416" y="-397" on="1"/>
        <pt x="1289" y="-330" on="1"/>
        <pt x="1311" y="-244" on="0"/>
        <pt x="1388" y="29" on="0"/>
        <pt x="1477" y="337" on="0"/>
        <pt x="1567" y="643" on="0"/>
        <pt x="1603" y="761" on="1"/>
        <pt x="1673" y="995" on="0"/>
        <pt x="1754" y="1295" on="0"/>
        <pt x="1754" y="1351" on="1"/>
        <pt x="1754" y="1391" on="0"/>
        <pt x="1741" y="1413" on="1"/>
        <pt x="1727" y="1435" on="0"/>
        <pt x="1701" y="1435" on="1"/>
        <pt x="1623" y="1435" on="0"/>
        <pt x="1511" y="1265" on="1"/>
        <pt x="1397" y="1089" on="0"/>
        <pt x="1249" y="746" on="1"/>
        <pt x="1234" y="712" on="1"/>
        <pt x="925" y="-2" on="0"/>
        <pt x="829" y="-2" on="1"/>
        <pt x="808" y="-2" on="0"/>
        <pt x="798" y="14" on="1"/>
        <pt x="788" y="30" on="0"/>
        <pt x="788" y="64" on="1"/>
        <pt x="788" y="142" on="0"/>
        <pt x="823" y="284" on="1"/>
        <pt x="857" y="420" on="0"/>
        <pt x="978" y="783" on="1"/>
        <pt x="1075" y="1071" on="0"/>
        <pt x="1107" y="1191" on="1"/>
        <pt x="1140" y="1311" on="0"/>
        <pt x="1140" y="1371" on="1"/>
        <pt x="1140" y="1403" on="0"/>
        <pt x="1127" y="1419" on="1"/>
        <pt x="1115" y="1435" on="0"/>
        <pt x="1089" y="1435" on="1"/>
        <pt x="975" y="1435" on="0"/>
        <pt x="769" y="1071" on="1"/>
        <pt x="564" y="713" on="0"/>
        <pt x="274" y="1" on="1"/>
      </contour>
      <contour>
        <pt x="786" y="1651" on="1"/>
        <pt x="830" y="1735" on="0"/>
        <pt x="926" y="1704" on="1"/>
        <pt x="970" y="1686" on="0"/>
        <pt x="1023" y="1608" on="0"/>
        <pt x="1011" y="1565" on="1"/>
        <pt x="1009" y="1559" on="0"/>
        <pt x="1013" y="1524" on="0"/>
        <pt x="963" y="1500" on="1"/>
        <pt x="913" y="1476" on="0"/>
        <pt x="731" y="1418" on="0"/>
        <pt x="682" y="1364" on="1"/>
        <pt x="683" y="1435" on="0"/>
        <pt x="582" y="1592" on="0"/>
        <pt x="561" y="1642" on="1"/>
        <pt x="539" y="1691" on="0"/>
        <pt x="557" y="1713" on="0"/>
        <pt x="560" y="1724" on="1"/>
        <pt x="576" y="1766" on="0"/>
        <pt x="664" y="1796" on="0"/>
        <pt x="709" y="1781" on="1"/>
        <pt x="803" y="1744" on="0"/>
      </contour>
    </TTGlyph>
    <TTGlyph name="N" xMin="1" yMin="-315" xMax="1772" yMax="1766">
      <contour>
        <pt x="98" y="1" on="1"/>
        <pt x="364" y="865" on="1"/>
        <pt x="447" y="1132" on="0"/>
        <pt x="471" y="1234" on="1"/>
        <pt x="497" y="1344" on="0"/>
        <pt x="497" y="1400" on="1"/>
        <pt x="497" y="1412" on="0"/>
        <pt x="486" y="1423" on="1"/>
        <pt x="474" y="1433" on="0"/>
        <pt x="458" y="1433" on="1"/>
        <pt x="395" y="1433" on="0"/>
        <pt x="301" y="1284" on="1"/>
        <pt x="204" y="1130" on="0"/>
        <pt x="81" y="841" on="1"/>
        <pt x="1" y="955" on="1"/>
        <pt x="123" y="1199" on="0"/>
        <pt x="249" y="1332" on="1"/>
        <pt x="374" y="1465" on="0"/>
        <pt x="483" y="1465" on="1"/>
        <pt x="532" y="1465" on="0"/>
        <pt x="561" y="1426" on="1"/>
        <pt x="589" y="1385" on="0"/>
        <pt x="589" y="1318" on="1"/>
        <pt x="589" y="1215" on="0"/>
        <pt x="538" y="1005" on="1"/>
        <pt x="490" y="809" on="0"/>
        <pt x="397" y="529" on="1"/>
        <pt x="272" y="163" on="1"/>
        <pt x="590" y="893" on="0"/>
        <pt x="794" y="1185" on="1"/>
        <pt x="996" y="1478" on="0"/>
        <pt x="1171" y="1478" on="1"/>
        <pt x="1240" y="1478" on="0"/>
        <pt x="1279" y="1438" on="1"/>
        <pt x="1318" y="1397" on="0"/>
        <pt x="1318" y="1328" on="1"/>
        <pt x="1318" y="1309" on="0"/>
        <pt x="1308" y="1255" on="0"/>
        <pt x="1304" y="1225" on="1"/>
        <pt x="1299" y="1194" on="0"/>
        <pt x="1274" y="1108" on="0"/>
        <pt x="1263" y="1068" on="1"/>
        <pt x="868" y="-315" on="1"/>
        <pt x="732" y="-242" on="1"/>
        <pt x="1119" y="1043" on="1"/>
        <pt x="1136" y="1100" on="0"/>
        <pt x="1164" y="1196" on="0"/>
        <pt x="1173" y="1235" on="1"/>
        <pt x="1191" y="1318" on="0"/>
        <pt x="1191" y="1353" on="1"/>
        <pt x="1191" y="1393" on="0"/>
        <pt x="1175" y="1414" on="1"/>
        <pt x="1158" y="1435" on="0"/>
        <pt x="1130" y="1435" on="1"/>
        <pt x="985" y="1435" on="0"/>
        <pt x="759" y="1068" on="1"/>
        <pt x="528" y="695" on="0"/>
        <pt x="243" y="1" on="1"/>
      </contour>
      <contour>
        <pt x="1537" y="1615" on="1"/>
        <pt x="1587" y="1695" on="0"/>
        <pt x="1681" y="1658" on="1"/>
        <pt x="1724" y="1638" on="0"/>
        <pt x="1772" y="1557" on="0"/>
        <pt x="1757" y="1515" on="1"/>
        <pt x="1755" y="1509" on="0"/>
        <pt x="1757" y="1474" on="0"/>
        <pt x="1706" y="1453" on="1"/>
        <pt x="1654" y="1432" on="0"/>
        <pt x="1468" y="1385" on="0"/>
        <pt x="1417" y="1334" on="1"/>
        <pt x="1423" y="1405" on="0"/>
        <pt x="1330" y="1569" on="0"/>
        <pt x="1312" y="1620" on="1"/>
        <pt x="1294" y="1671" on="0"/>
        <pt x="1314" y="1691" on="0"/>
        <pt x="1317" y="1701" on="1"/>
        <pt x="1335" y="1742" on="0"/>
        <pt x="1425" y="1766" on="0"/>
        <pt x="1469" y="1749" on="1"/>
        <pt x="1561" y="1705" on="0"/>
      </contour>
    </TTGlyph>
    <TTGlyph name="Ntilde" xMin="1" yMin="-315" xMax="1772" yMax="1793">
      <contour>
        <pt x="98" y="1" on="1"/>
        <pt x="364" y="865" on="1"/>
        <pt x="447" y="1132" on="0"/>
        <pt x="471" y="1234" on="1"/>
        <pt x="497" y="1344" on="0"/>
        <pt x="497" y="1400" on="1"/>
        <pt x="497" y="1412" on="0"/>
        <pt x="486" y="1423" on="1"/>
        <pt x="474" y="1433" on="0"/>
        <pt x="458" y="1433" on="1"/>
        <pt x="395" y="1433" on="0"/>
        <pt x="301" y="1284" on="1"/>
        <pt x="204" y="1130" on="0"/>
        <pt x="81" y="841" on="1"/>
        <pt x="1" y="955" on="1"/>
        <pt x="123" y="1199" on="0"/>
        <pt x="249" y="1332" on="1"/>
        <pt x="374" y="1465" on="0"/>
        <pt x="483" y="1465" on="1"/>
        <pt x="532" y="1465" on="0"/>
        <pt x="561" y="1426" on="1"/>
        <pt x="589" y="1385" on="0"/>
        <pt x="589" y="1318" on="1"/>
        <pt x="589" y="1215" on="0"/>
        <pt x="538" y="1005" on="1"/>
        <pt x="490" y="809" on="0"/>
        <pt x="397" y="529" on="1"/>
        <pt x="272" y="163" on="1"/>
        <pt x="590" y="893" on="0"/>
        <pt x="794" y="1185" on="1"/>
        <pt x="996" y="1478" on="0"/>
        <pt x="1171" y="1478" on="1"/>
        <pt x="1240" y="1478" on="0"/>
        <pt x="1279" y="1438" on="1"/>
        <pt x="1318" y="1397" on="0"/>
        <pt x="1318" y="1328" on="1"/>
        <pt x="1318" y="1309" on="0"/>
        <pt x="1308" y="1255" on="0"/>
        <pt x="1304" y="1225" on="1"/>
        <pt x="1299" y="1194" on="0"/>
        <pt x="1274" y="1108" on="0"/>
        <pt x="1263" y="1068" on="1"/>
        <pt x="868" y="-315" on="1"/>
        <pt x="732" y="-242" on="1"/>
        <pt x="1119" y="1043" on="1"/>
        <pt x="1136" y="1100" on="0"/>
        <pt x="1164" y="1196" on="0"/>
        <pt x="1173" y="1235" on="1"/>
        <pt x="1191" y="1318" on="0"/>
        <pt x="1191" y="1353" on="1"/>
        <pt x="1191" y="1393" on="0"/>
        <pt x="1175" y="1414" on="1"/>
        <pt x="1158" y="1435" on="0"/>
        <pt x="1130" y="1435" on="1"/>
        <pt x="985" y="1435" on="0"/>
        <pt x="759" y="1068" on="1"/>
        <pt x="528" y="695" on="0"/>
        <pt x="243" y="1" on="1"/>
      </contour>
      <contour>
        <pt x="1537" y="1615" on="1"/>
        <pt x="1587" y="1695" on="0"/>
        <pt x="1681" y="1658" on="1"/>
        <pt x="1724" y="1638" on="0"/>
        <pt x="1772" y="1557" on="0"/>
        <pt x="1757" y="1515" on="1"/>
        <pt x="1755" y="1509" on="0"/>
        <pt x="1757" y="1474" on="0"/>
        <pt x="1706" y="1453" on="1"/>
        <pt x="1654" y="1432" on="0"/>
        <pt x="1468" y="1385" on="0"/>
        <pt x="1417" y="1334" on="1"/>
        <pt x="1423" y="1405" on="0"/>
        <pt x="1330" y="1569" on="0"/>
        <pt x="1312" y="1620" on="1"/>
        <pt x="1294" y="1671" on="0"/>
        <pt x="1314" y="1691" on="0"/>
        <pt x="1317" y="1701" on="1"/>
        <pt x="1335" y="1742" on="0"/>
        <pt x="1425" y="1766" on="0"/>
        <pt x="1469" y="1749" on="1"/>
        <pt x="1561" y="1705" on="0"/>
      </contour>
      <contour>
        <pt x="1170" y="1793" on="1"/>
        <pt x="1155" y="1726" on="0"/>
        <pt x="1124" y="1694" on="1"/>
        <pt x="1094" y="1662" on="0"/>
        <pt x="1045" y="1662" on="1"/>
        <pt x="1040" y="1662" on="0"/>
        <pt x="1028" y="1663" on="0"/>
        <pt x="1022" y="1663" on="1"/>
        <pt x="990" y="1670" on="0"/>
        <pt x="984" y="1672" on="1"/>
        <pt x="894" y="1695" on="1"/>
        <pt x="893" y="1695" on="0"/>
        <pt x="889" y="1695" on="0"/>
        <pt x="887" y="1695" on="1"/>
        <pt x="855" y="1703" on="0"/>
        <pt x="844" y="1703" on="1"/>
        <pt x="816" y="1703" on="0"/>
        <pt x="796" y="1687" on="1"/>
        <pt x="777" y="1671" on="0"/>
        <pt x="767" y="1639" on="1"/>
        <pt x="744" y="1639" on="1"/>
        <pt x="760" y="1705" on="0"/>
        <pt x="789" y="1737" on="1"/>
        <pt x="818" y="1768" on="0"/>
        <pt x="865" y="1768" on="1"/>
        <pt x="871" y="1768" on="0"/>
        <pt x="893" y="1766" on="1"/>
        <pt x="906" y="1764" on="0"/>
        <pt x="933" y="1758" on="1"/>
        <pt x="1031" y="1734" on="1"/>
        <pt x="1036" y="1731" on="0"/>
        <pt x="1046" y="1730" on="1"/>
        <pt x="1058" y="1727" on="0"/>
        <pt x="1066" y="1727" on="1"/>
        <pt x="1095" y="1727" on="0"/>
        <pt x="1116" y="1743" on="1"/>
        <pt x="1136" y="1760" on="0"/>
        <pt x="1145" y="1792" on="1"/>
      </contour>
    </TTGlyph>
    <TTGlyph name="O" xMin="-26" yMin="-6" xMax="1372" yMax="1465">
      <contour>
        <pt x="1211" y="992" on="1"/>
        <pt x="1211" y="1193" on="0"/>
        <pt x="1112" y="1313" on="1"/>
        <pt x="1013" y="1433" on="0"/>
        <pt x="846" y="1433" on="1"/>
        <pt x="742" y="1433" on="0"/>
        <pt x="643" y="1388" on="1"/>
        <pt x="543" y="1342" on="0"/>
        <pt x="454" y="1254" on="1"/>
        <pt x="302" y="1105" on="0"/>
        <pt x="214" y="894" on="1"/>
        <pt x="124" y="682" on="0"/>
        <pt x="124" y="472" on="1"/>
        <pt x="124" y="280" on="0"/>
        <pt x="230" y="156" on="1"/>
        <pt x="336" y="34" on="0"/>
        <pt x="504" y="34" on="1"/>
        <pt x="634" y="34" on="0"/>
        <pt x="769" y="125" on="1"/>
        <pt x="904" y="215" on="0"/>
        <pt x="1014" y="378" on="1"/>
        <pt x="1106" y="514" on="0"/>
        <pt x="1160" y="677" on="1"/>
        <pt x="1211" y="837" on="0"/>
      </contour>
      <contour>
        <pt x="-26" y="552" on="1"/>
        <pt x="-26" y="741" on="0"/>
        <pt x="60" y="924" on="1"/>
        <pt x="148" y="1109" on="0"/>
        <pt x="302" y="1248" on="1"/>
        <pt x="423" y="1355" on="0"/>
        <pt x="560" y="1409" on="1"/>
        <pt x="700" y="1465" on="0"/>
        <pt x="848" y="1465" on="1"/>
        <pt x="1086" y="1465" on="0"/>
        <pt x="1229" y="1316" on="1"/>
        <pt x="1372" y="1166" on="0"/>
        <pt x="1372" y="923" on="1"/>
        <pt x="1372" y="758" on="0"/>
        <pt x="1302" y="592" on="1"/>
        <pt x="1229" y="423" on="0"/>
        <pt x="1102" y="286" on="1"/>
        <pt x="963" y="137" on="0"/>
        <pt x="814" y="66" on="1"/>
        <pt x="661" y="-6" on="0"/>
        <pt x="493" y="-6" on="1"/>
        <pt x="247" y="-6" on="0"/>
        <pt x="111" y="141" on="1"/>
        <pt x="-25" y="286" on="0"/>
        <pt x="-26" y="552" on="1"/>
      </contour>
      <contour>
        <pt x="642" y="866" on="1"/>
        <pt x="635" y="932" on="0"/>
        <pt x="710" y="1045" on="0"/>
        <pt x="786" y="1067" on="1"/>
        <pt x="862" y="1085" on="0"/>
        <pt x="1006" y="1028" on="0"/>
        <pt x="1030" y="957" on="1"/>
        <pt x="1033" y="947" on="0"/>
        <pt x="1052" y="870" on="0"/>
        <pt x="1025" y="824" on="1"/>
        <pt x="960" y="711" on="0"/>
        <pt x="784" y="497" on="0"/>
        <pt x="768" y="377" on="1"/>
        <pt x="704" y="476" on="0"/>
        <pt x="450" y="577" on="0"/>
        <pt x="344" y="645" on="1"/>
        <pt x="299" y="673" on="0"/>
        <pt x="273" y="740" on="0"/>
        <pt x="267" y="755" on="1"/>
        <pt x="250" y="828" on="0"/>
        <pt x="343" y="950" on="0"/>
        <pt x="418" y="972" on="1"/>
        <pt x="495" y="989" on="0"/>
        <pt x="615" y="927" on="0"/>
      </contour>
    </TTGlyph>
    <TTGlyph name="OE" xMin="-59" yMin="-12" xMax="2206" yMax="1485">
      <contour>
        <pt x="471" y="33" on="1"/>
        <pt x="598" y="33" on="0"/>
        <pt x="871" y="212" on="0"/>
        <pt x="977" y="367" on="1"/>
        <pt x="1068" y="499" on="0"/>
        <pt x="1176" y="830" on="0"/>
        <pt x="1176" y="973" on="1"/>
        <pt x="1176" y="1195" on="0"/>
        <pt x="989" y="1432" on="0"/>
        <pt x="815" y="1432" on="1"/>
        <pt x="709" y="1432" on="0"/>
        <pt x="510" y="1341" on="0"/>
        <pt x="422" y="1253" on="1"/>
        <pt x="270" y="1103" on="0"/>
        <pt x="94" y="685" on="0"/>
        <pt x="94" y="473" on="1"/>
        <pt x="94" y="270" on="0"/>
        <pt x="298" y="33" on="0"/>
      </contour>
      <contour>
        <pt x="1255" y="698" on="1"/>
        <pt x="1334" y="774" on="0"/>
        <pt x="1524" y="898" on="0"/>
        <pt x="1524" y="907" on="1"/>
        <pt x="1524" y="919" on="0"/>
        <pt x="1509" y="942" on="1"/>
        <pt x="1504" y="950" on="0"/>
        <pt x="1501" y="955" on="1"/>
        <pt x="1466" y="1012" on="1"/>
        <pt x="1450" y="1038" on="0"/>
        <pt x="1434" y="1092" on="0"/>
        <pt x="1434" y="1118" on="1"/>
        <pt x="1434" y="1170" on="0"/>
        <pt x="1521" y="1294" on="0"/>
        <pt x="1595" y="1348" on="1"/>
        <pt x="1687" y="1414" on="0"/>
        <pt x="1898" y="1485" on="0"/>
        <pt x="2003" y="1485" on="1"/>
        <pt x="2107" y="1485" on="0"/>
        <pt x="2206" y="1392" on="0"/>
        <pt x="2206" y="1296" on="1"/>
        <pt x="2206" y="1259" on="0"/>
        <pt x="2174" y="1143" on="0"/>
        <pt x="2144" y="1069" on="1"/>
        <pt x="2025" y="1053" on="1"/>
        <pt x="2093" y="1205" on="0"/>
        <pt x="2138" y="1339" on="0"/>
        <pt x="2138" y="1376" on="1"/>
        <pt x="2138" y="1416" on="0"/>
        <pt x="2081" y="1458" on="0"/>
        <pt x="2025" y="1458" on="1"/>
        <pt x="1970" y="1458" on="0"/>
        <pt x="1833" y="1399" on="0"/>
        <pt x="1759" y="1343" on="1"/>
        <pt x="1655" y="1263" on="0"/>
        <pt x="1526" y="1084" on="0"/>
        <pt x="1526" y="1024" on="1"/>
        <pt x="1526" y="963" on="0"/>
        <pt x="1626" y="816" on="0"/>
        <pt x="1626" y="807" on="1"/>
        <pt x="1626" y="778" on="0"/>
        <pt x="1542" y="737" on="1"/>
        <pt x="1485" y="709" on="0"/>
        <pt x="1450" y="688" on="1"/>
        <pt x="1251" y="574" on="0"/>
        <pt x="1061" y="364" on="0"/>
        <pt x="1061" y="258" on="1"/>
        <pt x="1061" y="152" on="0"/>
        <pt x="1218" y="29" on="0"/>
        <pt x="1354" y="29" on="1"/>
        <pt x="1470" y="29" on="0"/>
        <pt x="1770" y="127" on="0"/>
        <pt x="1968" y="231" on="1"/>
        <pt x="1942" y="90" on="1"/>
        <pt x="1781" y="38" on="0"/>
        <pt x="1528" y="-12" on="0"/>
        <pt x="1423" y="-12" on="1"/>
        <pt x="1247" y="-12" on="0"/>
        <pt x="1043" y="93" on="0"/>
        <pt x="1001" y="205" on="1"/>
        <pt x="863" y="95" on="0"/>
        <pt x="602" y="-12" on="0"/>
        <pt x="473" y="-12" on="1"/>
        <pt x="234" y="-12" on="0"/>
        <pt x="-59" y="298" on="0"/>
        <pt x="-59" y="551" on="1"/>
        <pt x="-59" y="738" on="0"/>
        <pt x="115" y="1107" on="0"/>
        <pt x="270" y="1247" on="1"/>
        <pt x="386" y="1353" on="0"/>
        <pt x="666" y="1464" on="0"/>
        <pt x="813" y="1464" on="1"/>
        <pt x="1035" y="1464" on="0"/>
        <pt x="1311" y="1199" on="0"/>
        <pt x="1311" y="985" on="1"/>
        <pt x="1311" y="936" on="0"/>
        <pt x="1289" y="819" on="0"/>
      </contour>
    </TTGlyph>
    <TTGlyph name="Oacute" xMin="-26" yMin="-6" xMax="1372" yMax="1802">
      <contour>
        <pt x="1211" y="992" on="1"/>
        <pt x="1211" y="1193" on="0"/>
        <pt x="1112" y="1313" on="1"/>
        <pt x="1013" y="1433" on="0"/>
        <pt x="846" y="1433" on="1"/>
        <pt x="742" y="1433" on="0"/>
        <pt x="643" y="1388" on="1"/>
        <pt x="543" y="1342" on="0"/>
        <pt x="454" y="1254" on="1"/>
        <pt x="302" y="1105" on="0"/>
        <pt x="214" y="894" on="1"/>
        <pt x="124" y="682" on="0"/>
        <pt x="124" y="472" on="1"/>
        <pt x="124" y="280" on="0"/>
        <pt x="230" y="156" on="1"/>
        <pt x="336" y="34" on="0"/>
        <pt x="504" y="34" on="1"/>
        <pt x="634" y="34" on="0"/>
        <pt x="769" y="125" on="1"/>
        <pt x="904" y="215" on="0"/>
        <pt x="1014" y="378" on="1"/>
        <pt x="1106" y="514" on="0"/>
        <pt x="1160" y="677" on="1"/>
        <pt x="1211" y="837" on="0"/>
      </contour>
      <contour>
        <pt x="-26" y="552" on="1"/>
        <pt x="-26" y="741" on="0"/>
        <pt x="60" y="924" on="1"/>
        <pt x="148" y="1109" on="0"/>
        <pt x="302" y="1248" on="1"/>
        <pt x="423" y="1355" on="0"/>
        <pt x="560" y="1409" on="1"/>
        <pt x="700" y="1465" on="0"/>
        <pt x="848" y="1465" on="1"/>
        <pt x="1086" y="1465" on="0"/>
        <pt x="1229" y="1316" on="1"/>
        <pt x="1372" y="1166" on="0"/>
        <pt x="1372" y="923" on="1"/>
        <pt x="1372" y="758" on="0"/>
        <pt x="1302" y="592" on="1"/>
        <pt x="1229" y="423" on="0"/>
        <pt x="1102" y="286" on="1"/>
        <pt x="963" y="137" on="0"/>
        <pt x="814" y="66" on="1"/>
        <pt x="661" y="-6" on="0"/>
        <pt x="493" y="-6" on="1"/>
        <pt x="247" y="-6" on="0"/>
        <pt x="111" y="141" on="1"/>
        <pt x="-25" y="286" on="0"/>
        <pt x="-26" y="552" on="1"/>
      </contour>
      <contour>
        <pt x="642" y="866" on="1"/>
        <pt x="635" y="932" on="0"/>
        <pt x="710" y="1045" on="0"/>
        <pt x="786" y="1067" on="1"/>
        <pt x="862" y="1085" on="0"/>
        <pt x="1006" y="1028" on="0"/>
        <pt x="1030" y="957" on="1"/>
        <pt x="1033" y="947" on="0"/>
        <pt x="1052" y="870" on="0"/>
        <pt x="1025" y="824" on="1"/>
        <pt x="960" y="711" on="0"/>
        <pt x="784" y="497" on="0"/>
        <pt x="768" y="377" on="1"/>
        <pt x="704" y="476" on="0"/>
        <pt x="450" y="577" on="0"/>
        <pt x="344" y="645" on="1"/>
        <pt x="299" y="673" on="0"/>
        <pt x="273" y="740" on="0"/>
        <pt x="267" y="755" on="1"/>
        <pt x="250" y="828" on="0"/>
        <pt x="343" y="950" on="0"/>
        <pt x="418" y="972" on="1"/>
        <pt x="495" y="989" on="0"/>
        <pt x="615" y="927" on="0"/>
      </contour>
      <contour>
        <pt x="926" y="1551" on="1"/>
        <pt x="922" y="1551" on="0"/>
        <pt x="916" y="1554" on="1"/>
        <pt x="912" y="1558" on="0"/>
        <pt x="912" y="1563" on="1"/>
        <pt x="912" y="1565" on="0"/>
        <pt x="965" y="1597" on="1"/>
        <pt x="1016" y="1628" on="0"/>
        <pt x="1041" y="1669" on="1"/>
        <pt x="1055" y="1694" on="0"/>
        <pt x="1067" y="1737" on="1"/>
        <pt x="1086" y="1802" on="0"/>
        <pt x="1123" y="1802" on="1"/>
        <pt x="1143" y="1802" on="0"/>
        <pt x="1156" y="1789" on="1"/>
        <pt x="1168" y="1777" on="0"/>
        <pt x="1168" y="1753" on="1"/>
        <pt x="1168" y="1730" on="0"/>
        <pt x="1150" y="1703" on="1"/>
        <pt x="1131" y="1677" on="0"/>
        <pt x="1090" y="1642" on="1"/>
        <pt x="1044" y="1603" on="0"/>
        <pt x="995" y="1578" on="1"/>
        <pt x="942" y="1551" on="0"/>
      </contour>
    </TTGlyph>
    <TTGlyph name="Ocircumflex" xMin="-26" yMin="-6" xMax="1372" yMax="1776">
      <contour>
        <pt x="1211" y="992" on="1"/>
        <pt x="1211" y="1193" on="0"/>
        <pt x="1112" y="1313" on="1"/>
        <pt x="1013" y="1433" on="0"/>
        <pt x="846" y="1433" on="1"/>
        <pt x="742" y="1433" on="0"/>
        <pt x="643" y="1388" on="1"/>
        <pt x="543" y="1342" on="0"/>
        <pt x="454" y="1254" on="1"/>
        <pt x="302" y="1105" on="0"/>
        <pt x="214" y="894" on="1"/>
        <pt x="124" y="682" on="0"/>
        <pt x="124" y="472" on="1"/>
        <pt x="124" y="280" on="0"/>
        <pt x="230" y="156" on="1"/>
        <pt x="336" y="34" on="0"/>
        <pt x="504" y="34" on="1"/>
        <pt x="634" y="34" on="0"/>
        <pt x="769" y="125" on="1"/>
        <pt x="904" y="215" on="0"/>
        <pt x="1014" y="378" on="1"/>
        <pt x="1106" y="514" on="0"/>
        <pt x="1160" y="677" on="1"/>
        <pt x="1211" y="837" on="0"/>
      </contour>
      <contour>
        <pt x="-26" y="552" on="1"/>
        <pt x="-26" y="741" on="0"/>
        <pt x="60" y="924" on="1"/>
        <pt x="148" y="1109" on="0"/>
        <pt x="302" y="1248" on="1"/>
        <pt x="423" y="1355" on="0"/>
        <pt x="560" y="1409" on="1"/>
        <pt x="700" y="1465" on="0"/>
        <pt x="848" y="1465" on="1"/>
        <pt x="1086" y="1465" on="0"/>
        <pt x="1229" y="1316" on="1"/>
        <pt x="1372" y="1166" on="0"/>
        <pt x="1372" y="923" on="1"/>
        <pt x="1372" y="758" on="0"/>
        <pt x="1302" y="592" on="1"/>
        <pt x="1229" y="423" on="0"/>
        <pt x="1102" y="286" on="1"/>
        <pt x="963" y="137" on="0"/>
        <pt x="814" y="66" on="1"/>
        <pt x="661" y="-6" on="0"/>
        <pt x="493" y="-6" on="1"/>
        <pt x="247" y="-6" on="0"/>
        <pt x="111" y="141" on="1"/>
        <pt x="-25" y="286" on="0"/>
        <pt x="-26" y="552" on="1"/>
      </contour>
      <contour>
        <pt x="642" y="866" on="1"/>
        <pt x="635" y="932" on="0"/>
        <pt x="710" y="1045" on="0"/>
        <pt x="786" y="1067" on="1"/>
        <pt x="862" y="1085" on="0"/>
        <pt x="1006" y="1028" on="0"/>
        <pt x="1030" y="957" on="1"/>
        <pt x="1033" y="947" on="0"/>
        <pt x="1052" y="870" on="0"/>
        <pt x="1025" y="824" on="1"/>
        <pt x="960" y="711" on="0"/>
        <pt x="784" y="497" on="0"/>
        <pt x="768" y="377" on="1"/>
        <pt x="704" y="476" on="0"/>
        <pt x="450" y="577" on="0"/>
        <pt x="344" y="645" on="1"/>
        <pt x="299" y="673" on="0"/>
        <pt x="273" y="740" on="0"/>
        <pt x="267" y="755" on="1"/>
        <pt x="250" y="828" on="0"/>
        <pt x="343" y="950" on="0"/>
        <pt x="418" y="972" on="1"/>
        <pt x="495" y="989" on="0"/>
        <pt x="615" y="927" on="0"/>
      </contour>
      <contour>
        <pt x="929" y="1776" on="1"/>
        <pt x="959" y="1776" on="1"/>
        <pt x="981" y="1695" on="0"/>
        <pt x="1022" y="1621" on="1"/>
        <pt x="1062" y="1545" on="0"/>
        <pt x="1062" y="1541" on="1"/>
        <pt x="1061" y="1538" on="0"/>
        <pt x="1060" y="1536" on="0"/>
        <pt x="1060" y="1536" on="1"/>
        <pt x="1061" y="1536" on="0"/>
        <pt x="1051" y="1534" on="1"/>
        <pt x="1038" y="1534" on="0"/>
        <pt x="1002" y="1573" on="1"/>
        <pt x="969" y="1606" on="0"/>
        <pt x="929" y="1666" on="1"/>
        <pt x="867" y="1610" on="0"/>
        <pt x="806" y="1572" on="1"/>
        <pt x="743" y="1534" on="0"/>
        <pt x="722" y="1534" on="1"/>
        <pt x="715" y="1534" on="0"/>
        <pt x="712" y="1537" on="1"/>
        <pt x="709" y="1540" on="0"/>
        <pt x="709" y="1545" on="1"/>
        <pt x="709" y="1548" on="0"/>
        <pt x="787" y="1619" on="1"/>
        <pt x="864" y="1690" on="0"/>
      </contour>
    </TTGlyph>
    <TTGlyph name="Odieresis" xMin="-26" yMin="-6" xMax="1372" yMax="1664">
      <contour>
        <pt x="1211" y="992" on="1"/>
        <pt x="1211" y="1193" on="0"/>
        <pt x="1112" y="1313" on="1"/>
        <pt x="1013" y="1433" on="0"/>
        <pt x="846" y="1433" on="1"/>
        <pt x="742" y="1433" on="0"/>
        <pt x="643" y="1388" on="1"/>
        <pt x="543" y="1342" on="0"/>
        <pt x="454" y="1254" on="1"/>
        <pt x="302" y="1105" on="0"/>
        <pt x="214" y="894" on="1"/>
        <pt x="124" y="682" on="0"/>
        <pt x="124" y="472" on="1"/>
        <pt x="124" y="280" on="0"/>
        <pt x="230" y="156" on="1"/>
        <pt x="336" y="34" on="0"/>
        <pt x="504" y="34" on="1"/>
        <pt x="634" y="34" on="0"/>
        <pt x="769" y="125" on="1"/>
        <pt x="904" y="215" on="0"/>
        <pt x="1014" y="378" on="1"/>
        <pt x="1106" y="514" on="0"/>
        <pt x="1160" y="677" on="1"/>
        <pt x="1211" y="837" on="0"/>
      </contour>
      <contour>
        <pt x="-26" y="552" on="1"/>
        <pt x="-26" y="741" on="0"/>
        <pt x="60" y="924" on="1"/>
        <pt x="148" y="1109" on="0"/>
        <pt x="302" y="1248" on="1"/>
        <pt x="423" y="1355" on="0"/>
        <pt x="560" y="1409" on="1"/>
        <pt x="700" y="1465" on="0"/>
        <pt x="848" y="1465" on="1"/>
        <pt x="1086" y="1465" on="0"/>
        <pt x="1229" y="1316" on="1"/>
        <pt x="1372" y="1166" on="0"/>
        <pt x="1372" y="923" on="1"/>
        <pt x="1372" y="758" on="0"/>
        <pt x="1302" y="592" on="1"/>
        <pt x="1229" y="423" on="0"/>
        <pt x="1102" y="286" on="1"/>
        <pt x="963" y="137" on="0"/>
        <pt x="814" y="66" on="1"/>
        <pt x="661" y="-6" on="0"/>
        <pt x="493" y="-6" on="1"/>
        <pt x="247" y="-6" on="0"/>
        <pt x="111" y="141" on="1"/>
        <pt x="-25" y="286" on="0"/>
        <pt x="-26" y="552" on="1"/>
      </contour>
      <contour>
        <pt x="642" y="866" on="1"/>
        <pt x="635" y="932" on="0"/>
        <pt x="710" y="1045" on="0"/>
        <pt x="786" y="1067" on="1"/>
        <pt x="862" y="1085" on="0"/>
        <pt x="1006" y="1028" on="0"/>
        <pt x="1030" y="957" on="1"/>
        <pt x="1033" y="947" on="0"/>
        <pt x="1052" y="870" on="0"/>
        <pt x="1025" y="824" on="1"/>
        <pt x="960" y="711" on="0"/>
        <pt x="784" y="497" on="0"/>
        <pt x="768" y="377" on="1"/>
        <pt x="704" y="476" on="0"/>
        <pt x="450" y="577" on="0"/>
        <pt x="344" y="645" on="1"/>
        <pt x="299" y="673" on="0"/>
        <pt x="273" y="740" on="0"/>
        <pt x="267" y="755" on="1"/>
        <pt x="250" y="828" on="0"/>
        <pt x="343" y="950" on="0"/>
        <pt x="418" y="972" on="1"/>
        <pt x="495" y="989" on="0"/>
        <pt x="615" y="927" on="0"/>
      </contour>
      <contour>
        <pt x="740" y="1608" on="1"/>
        <pt x="740" y="1632" on="0"/>
        <pt x="756" y="1647" on="1"/>
        <pt x="773" y="1664" on="0"/>
        <pt x="795" y="1664" on="1"/>
        <pt x="818" y="1664" on="0"/>
        <pt x="834" y="1648" on="1"/>
        <pt x="851" y="1631" on="0"/>
        <pt x="851" y="1608" on="1"/>
        <pt x="851" y="1585" on="0"/>
        <pt x="835" y="1569" on="1"/>
        <pt x="817" y="1553" on="0"/>
        <pt x="795" y="1553" on="1"/>
        <pt x="773" y="1553" on="0"/>
        <pt x="756" y="1569" on="1"/>
        <pt x="740" y="1585" on="0"/>
      </contour>
      <contour>
        <pt x="984" y="1608" on="1"/>
        <pt x="984" y="1631" on="0"/>
        <pt x="1001" y="1648" on="1"/>
        <pt x="1015" y="1664" on="0"/>
        <pt x="1041" y="1664" on="1"/>
        <pt x="1064" y="1664" on="0"/>
        <pt x="1080" y="1648" on="1"/>
        <pt x="1095" y="1633" on="0"/>
        <pt x="1095" y="1608" on="1"/>
        <pt x="1095" y="1585" on="0"/>
        <pt x="1080" y="1569" on="1"/>
        <pt x="1062" y="1553" on="0"/>
        <pt x="1041" y="1553" on="1"/>
        <pt x="1017" y="1553" on="0"/>
        <pt x="1001" y="1569" on="1"/>
        <pt x="984" y="1586" on="0"/>
      </contour>
    </TTGlyph>
    <TTGlyph name="Ograve" xMin="-26" yMin="-6" xMax="1372" yMax="1778">
      <contour>
        <pt x="1211" y="992" on="1"/>
        <pt x="1211" y="1193" on="0"/>
        <pt x="1112" y="1313" on="1"/>
        <pt x="1013" y="1433" on="0"/>
        <pt x="846" y="1433" on="1"/>
        <pt x="742" y="1433" on="0"/>
        <pt x="643" y="1388" on="1"/>
        <pt x="543" y="1342" on="0"/>
        <pt x="454" y="1254" on="1"/>
        <pt x="302" y="1105" on="0"/>
        <pt x="214" y="894" on="1"/>
        <pt x="124" y="682" on="0"/>
        <pt x="124" y="472" on="1"/>
        <pt x="124" y="280" on="0"/>
        <pt x="230" y="156" on="1"/>
        <pt x="336" y="34" on="0"/>
        <pt x="504" y="34" on="1"/>
        <pt x="634" y="34" on="0"/>
        <pt x="769" y="125" on="1"/>
        <pt x="904" y="215" on="0"/>
        <pt x="1014" y="378" on="1"/>
        <pt x="1106" y="514" on="0"/>
        <pt x="1160" y="677" on="1"/>
        <pt x="1211" y="837" on="0"/>
      </contour>
      <contour>
        <pt x="-26" y="552" on="1"/>
        <pt x="-26" y="741" on="0"/>
        <pt x="60" y="924" on="1"/>
        <pt x="148" y="1109" on="0"/>
        <pt x="302" y="1248" on="1"/>
        <pt x="423" y="1355" on="0"/>
        <pt x="560" y="1409" on="1"/>
        <pt x="700" y="1465" on="0"/>
        <pt x="848" y="1465" on="1"/>
        <pt x="1086" y="1465" on="0"/>
        <pt x="1229" y="1316" on="1"/>
        <pt x="1372" y="1166" on="0"/>
        <pt x="1372" y="923" on="1"/>
        <pt x="1372" y="758" on="0"/>
        <pt x="1302" y="592" on="1"/>
        <pt x="1229" y="423" on="0"/>
        <pt x="1102" y="286" on="1"/>
        <pt x="963" y="137" on="0"/>
        <pt x="814" y="66" on="1"/>
        <pt x="661" y="-6" on="0"/>
        <pt x="493" y="-6" on="1"/>
        <pt x="247" y="-6" on="0"/>
        <pt x="111" y="141" on="1"/>
        <pt x="-25" y="286" on="0"/>
        <pt x="-26" y="552" on="1"/>
      </contour>
      <contour>
        <pt x="642" y="866" on="1"/>
        <pt x="635" y="932" on="0"/>
        <pt x="710" y="1045" on="0"/>
        <pt x="786" y="1067" on="1"/>
        <pt x="862" y="1085" on="0"/>
        <pt x="1006" y="1028" on="0"/>
        <pt x="1030" y="957" on="1"/>
        <pt x="1033" y="947" on="0"/>
        <pt x="1052" y="870" on="0"/>
        <pt x="1025" y="824" on="1"/>
        <pt x="960" y="711" on="0"/>
        <pt x="784" y="497" on="0"/>
        <pt x="768" y="377" on="1"/>
        <pt x="704" y="476" on="0"/>
        <pt x="450" y="577" on="0"/>
        <pt x="344" y="645" on="1"/>
        <pt x="299" y="673" on="0"/>
        <pt x="273" y="740" on="0"/>
        <pt x="267" y="755" on="1"/>
        <pt x="250" y="828" on="0"/>
        <pt x="343" y="950" on="0"/>
        <pt x="418" y="972" on="1"/>
        <pt x="495" y="989" on="0"/>
        <pt x="615" y="927" on="0"/>
      </contour>
      <contour>
        <pt x="1190" y="1522" on="1"/>
        <pt x="1176" y="1522" on="0"/>
        <pt x="1141" y="1545" on="1"/>
        <pt x="1108" y="1566" on="0"/>
        <pt x="1066" y="1604" on="1"/>
        <pt x="1023" y="1643" on="0"/>
        <pt x="1001" y="1675" on="1"/>
        <pt x="979" y="1708" on="0"/>
        <pt x="979" y="1729" on="1"/>
        <pt x="979" y="1751" on="0"/>
        <pt x="991" y="1765" on="1"/>
        <pt x="1002" y="1778" on="0"/>
        <pt x="1023" y="1778" on="1"/>
        <pt x="1063" y="1778" on="0"/>
        <pt x="1083" y="1698" on="1"/>
        <pt x="1086" y="1681" on="0"/>
        <pt x="1092" y="1656" on="0"/>
        <pt x="1095" y="1647" on="1"/>
        <pt x="1108" y="1607" on="0"/>
        <pt x="1156" y="1572" on="1"/>
        <pt x="1205" y="1535" on="0"/>
        <pt x="1205" y="1533" on="1"/>
        <pt x="1205" y="1529" on="0"/>
        <pt x="1200" y="1526" on="1"/>
        <pt x="1196" y="1522" on="0"/>
      </contour>
    </TTGlyph>
    <TTGlyph name="Oslash" xMin="40" yMin="0" xMax="1362" yMax="1427">
      <contour>
        <pt x="69" y="26" on="1"/>
        <pt x="1333" y="26" on="1"/>
        <pt x="1333" y="1402" on="1"/>
        <pt x="69" y="1402" on="1"/>
      </contour>
      <contour>
        <pt x="40" y="0" on="1"/>
        <pt x="40" y="1427" on="1"/>
        <pt x="1362" y="1427" on="1"/>
        <pt x="1362" y="0" on="1"/>
      </contour>
    </TTGlyph>
    <TTGlyph name="Otilde" xMin="-26" yMin="-6" xMax="1372" yMax="1664">
      <contour>
        <pt x="1211" y="992" on="1"/>
        <pt x="1211" y="1193" on="0"/>
        <pt x="1112" y="1313" on="1"/>
        <pt x="1013" y="1433" on="0"/>
        <pt x="846" y="1433" on="1"/>
        <pt x="742" y="1433" on="0"/>
        <pt x="643" y="1388" on="1"/>
        <pt x="543" y="1342" on="0"/>
        <pt x="454" y="1254" on="1"/>
        <pt x="302" y="1105" on="0"/>
        <pt x="214" y="894" on="1"/>
        <pt x="124" y="682" on="0"/>
        <pt x="124" y="472" on="1"/>
        <pt x="124" y="280" on="0"/>
        <pt x="230" y="156" on="1"/>
        <pt x="336" y="34" on="0"/>
        <pt x="504" y="34" on="1"/>
        <pt x="634" y="34" on="0"/>
        <pt x="769" y="125" on="1"/>
        <pt x="904" y="215" on="0"/>
        <pt x="1014" y="378" on="1"/>
        <pt x="1106" y="514" on="0"/>
        <pt x="1160" y="677" on="1"/>
        <pt x="1211" y="837" on="0"/>
      </contour>
      <contour>
        <pt x="-26" y="552" on="1"/>
        <pt x="-26" y="741" on="0"/>
        <pt x="60" y="924" on="1"/>
        <pt x="148" y="1109" on="0"/>
        <pt x="302" y="1248" on="1"/>
        <pt x="423" y="1355" on="0"/>
        <pt x="560" y="1409" on="1"/>
        <pt x="700" y="1465" on="0"/>
        <pt x="848" y="1465" on="1"/>
        <pt x="1086" y="1465" on="0"/>
        <pt x="1229" y="1316" on="1"/>
        <pt x="1372" y="1166" on="0"/>
        <pt x="1372" y="923" on="1"/>
        <pt x="1372" y="758" on="0"/>
        <pt x="1302" y="592" on="1"/>
        <pt x="1229" y="423" on="0"/>
        <pt x="1102" y="286" on="1"/>
        <pt x="963" y="137" on="0"/>
        <pt x="814" y="66" on="1"/>
        <pt x="661" y="-6" on="0"/>
        <pt x="493" y="-6" on="1"/>
        <pt x="247" y="-6" on="0"/>
        <pt x="111" y="141" on="1"/>
        <pt x="-25" y="286" on="0"/>
        <pt x="-26" y="552" on="1"/>
      </contour>
      <contour>
        <pt x="642" y="866" on="1"/>
        <pt x="635" y="932" on="0"/>
        <pt x="710" y="1045" on="0"/>
        <pt x="786" y="1067" on="1"/>
        <pt x="862" y="1085" on="0"/>
        <pt x="1006" y="1028" on="0"/>
        <pt x="1030" y="957" on="1"/>
        <pt x="1033" y="947" on="0"/>
        <pt x="1052" y="870" on="0"/>
        <pt x="1025" y="824" on="1"/>
        <pt x="960" y="711" on="0"/>
        <pt x="784" y="497" on="0"/>
        <pt x="768" y="377" on="1"/>
        <pt x="704" y="476" on="0"/>
        <pt x="450" y="577" on="0"/>
        <pt x="344" y="645" on="1"/>
        <pt x="299" y="673" on="0"/>
        <pt x="273" y="740" on="0"/>
        <pt x="267" y="755" on="1"/>
        <pt x="250" y="828" on="0"/>
        <pt x="343" y="950" on="0"/>
        <pt x="418" y="972" on="1"/>
        <pt x="495" y="989" on="0"/>
        <pt x="615" y="927" on="0"/>
      </contour>
      <contour>
        <pt x="740" y="1608" on="1"/>
        <pt x="740" y="1632" on="0"/>
        <pt x="756" y="1647" on="1"/>
        <pt x="773" y="1664" on="0"/>
        <pt x="795" y="1664" on="1"/>
        <pt x="818" y="1664" on="0"/>
        <pt x="834" y="1648" on="1"/>
        <pt x="851" y="1631" on="0"/>
        <pt x="851" y="1608" on="1"/>
        <pt x="851" y="1585" on="0"/>
        <pt x="835" y="1569" on="1"/>
        <pt x="817" y="1553" on="0"/>
        <pt x="795" y="1553" on="1"/>
        <pt x="773" y="1553" on="0"/>
        <pt x="756" y="1569" on="1"/>
        <pt x="740" y="1585" on="0"/>
      </contour>
      <contour>
        <pt x="984" y="1608" on="1"/>
        <pt x="984" y="1631" on="0"/>
        <pt x="1001" y="1648" on="1"/>
        <pt x="1015" y="1664" on="0"/>
        <pt x="1041" y="1664" on="1"/>
        <pt x="1064" y="1664" on="0"/>
        <pt x="1080" y="1648" on="1"/>
        <pt x="1095" y="1633" on="0"/>
        <pt x="1095" y="1608" on="1"/>
        <pt x="1095" y="1585" on="0"/>
        <pt x="1080" y="1569" on="1"/>
        <pt x="1062" y="1553" on="0"/>
        <pt x="1041" y="1553" on="1"/>
        <pt x="1017" y="1553" on="0"/>
        <pt x="1001" y="1569" on="1"/>
        <pt x="984" y="1586" on="0"/>
      </contour>
    </TTGlyph>
    <TTGlyph name="P" xMin="-297" yMin="-332" xMax="1618" yMax="1890">
      <contour>
        <pt x="-166" y="-332" on="1"/>
        <pt x="-297" y="-254" on="1"/>
        <pt x="-143" y="146" on="0"/>
        <pt x="-18" y="564" on="1"/>
        <pt x="107" y="990" on="0"/>
        <pt x="192" y="1379" on="1"/>
        <pt x="339" y="1431" on="1"/>
        <pt x="321" y="1325" on="0"/>
        <pt x="278" y="1166" on="1"/>
        <pt x="254" y="1082" on="0"/>
        <pt x="166" y="782" on="0"/>
        <pt x="102" y="566" on="1"/>
        <pt x="320" y="1065" on="0"/>
        <pt x="498" y="1275" on="1"/>
        <pt x="675" y="1482" on="0"/>
        <pt x="873" y="1482" on="1"/>
        <pt x="1006" y="1482" on="0"/>
        <pt x="1089" y="1398" on="1"/>
        <pt x="1171" y="1311" on="0"/>
        <pt x="1171" y="1175" on="1"/>
        <pt x="1171" y="1007" on="0"/>
        <pt x="1064" y="834" on="1"/>
        <pt x="956" y="659" on="0"/>
        <pt x="769" y="523" on="1"/>
        <pt x="651" y="437" on="0"/>
        <pt x="524" y="396" on="1"/>
        <pt x="393" y="353" on="0"/>
        <pt x="253" y="353" on="1"/>
        <pt x="241" y="353" on="0"/>
        <pt x="223" y="354" on="0"/>
        <pt x="218" y="354" on="1"/>
        <pt x="212" y="354" on="0"/>
        <pt x="201" y="355" on="0"/>
        <pt x="196" y="355" on="1"/>
        <pt x="251" y="433" on="1"/>
        <pt x="275" y="429" on="0"/>
        <pt x="320" y="422" on="0"/>
        <pt x="340" y="420" on="1"/>
        <pt x="381" y="415" on="0"/>
        <pt x="403" y="415" on="1"/>
        <pt x="516" y="415" on="0"/>
        <pt x="618" y="468" on="1"/>
        <pt x="717" y="519" on="0"/>
        <pt x="808" y="628" on="1"/>
        <pt x="914" y="756" on="0"/>
        <pt x="973" y="904" on="1"/>
        <pt x="1033" y="1052" on="0"/>
        <pt x="1033" y="1185" on="1"/>
        <pt x="1033" y="1297" on="0"/>
        <pt x="975" y="1364" on="1"/>
        <pt x="918" y="1431" on="0"/>
        <pt x="823" y="1431" on="1"/>
        <pt x="588" y="1431" on="0"/>
        <pt x="332" y="975" on="1"/>
        <pt x="76" y="521" on="0"/>
        <pt x="-166" y="-332" on="1"/>
      </contour>
      <contour>
        <pt x="1432" y="1214" on="1"/>
        <pt x="1511" y="1264" on="0"/>
        <pt x="1580" y="1190" on="1"/>
        <pt x="1610" y="1153" on="0"/>
        <pt x="1618" y="1059" on="0"/>
        <pt x="1585" y="1028" on="1"/>
        <pt x="1580" y="1022" on="0"/>
        <pt x="1544" y="992" on="0"/>
        <pt x="1511" y="995" on="1"/>
        <pt x="1433" y="999" on="0"/>
        <pt x="1269" y="1038" on="0"/>
        <pt x="1200" y="1016" on="1"/>
        <pt x="1236" y="1076" on="0"/>
        <pt x="1223" y="1242" on="0"/>
        <pt x="1232" y="1318" on="1"/>
        <pt x="1235" y="1350" on="0"/>
        <pt x="1265" y="1381" on="0"/>
        <pt x="1272" y="1389" on="1"/>
        <pt x="1307" y="1417" on="0"/>
        <pt x="1398" y="1399" on="0"/>
        <pt x="1430" y="1365" on="1"/>
        <pt x="1493" y="1285" on="0"/>
      </contour>
      <contour>
        <pt x="1107" y="1731" on="1"/>
        <pt x="1094" y="1844" on="0"/>
        <pt x="1212" y="1877" on="1"/>
        <pt x="1266" y="1890" on="0"/>
        <pt x="1372" y="1848" on="0"/>
        <pt x="1389" y="1797" on="1"/>
        <pt x="1392" y="1789" on="0"/>
        <pt x="1405" y="1734" on="0"/>
        <pt x="1386" y="1700" on="1"/>
        <pt x="1338" y="1618" on="0"/>
        <pt x="1210" y="1461" on="0"/>
        <pt x="1198" y="1374" on="1"/>
        <pt x="1151" y="1446" on="0"/>
        <pt x="966" y="1520" on="0"/>
        <pt x="889" y="1569" on="1"/>
        <pt x="856" y="1590" on="0"/>
        <pt x="837" y="1638" on="0"/>
        <pt x="833" y="1650" on="1"/>
        <pt x="821" y="1703" on="0"/>
        <pt x="888" y="1792" on="0"/>
        <pt x="943" y="1808" on="1"/>
        <pt x="1061" y="1834" on="0"/>
      </contour>
    </TTGlyph>
    <TTGlyph name="Q" xMin="-26" yMin="-270" xMax="1372" yMax="1465">
      <contour>
        <pt x="307" y="68" on="1"/>
        <pt x="272" y="96" on="0"/>
        <pt x="255" y="137" on="1"/>
        <pt x="237" y="174" on="0"/>
        <pt x="237" y="220" on="1"/>
        <pt x="237" y="291" on="0"/>
        <pt x="298" y="345" on="1"/>
        <pt x="359" y="399" on="0"/>
        <pt x="445" y="399" on="1"/>
        <pt x="531" y="399" on="0"/>
        <pt x="612" y="328" on="1"/>
        <pt x="691" y="259" on="0"/>
        <pt x="762" y="118" on="1"/>
        <pt x="967" y="272" on="0"/>
        <pt x="1089" y="504" on="1"/>
        <pt x="1209" y="735" on="0"/>
        <pt x="1209" y="974" on="1"/>
        <pt x="1209" y="1197" on="0"/>
        <pt x="1116" y="1314" on="1"/>
        <pt x="1022" y="1433" on="0"/>
        <pt x="848" y="1433" on="1"/>
        <pt x="741" y="1433" on="0"/>
        <pt x="642" y="1388" on="1"/>
        <pt x="543" y="1341" on="0"/>
        <pt x="454" y="1254" on="1"/>
        <pt x="298" y="1099" on="0"/>
        <pt x="213" y="889" on="1"/>
        <pt x="126" y="677" on="0"/>
        <pt x="126" y="452" on="1"/>
        <pt x="126" y="311" on="0"/>
        <pt x="170" y="217" on="1"/>
        <pt x="211" y="125" on="0"/>
        <pt x="307" y="67" on="1"/>
      </contour>
      <contour>
        <pt x="659" y="62" on="1"/>
        <pt x="609" y="184" on="0"/>
        <pt x="543" y="249" on="1"/>
        <pt x="473" y="315" on="0"/>
        <pt x="402" y="315" on="1"/>
        <pt x="348" y="315" on="0"/>
        <pt x="316" y="281" on="1"/>
        <pt x="282" y="247" on="0"/>
        <pt x="282" y="198" on="1"/>
        <pt x="282" y="129" on="0"/>
        <pt x="345" y="82" on="1"/>
        <pt x="409" y="36" on="0"/>
        <pt x="506" y="36" on="1"/>
        <pt x="529" y="36" on="0"/>
        <pt x="575" y="43" on="1"/>
        <pt x="606" y="48" on="0"/>
        <pt x="659" y="62" on="1"/>
      </contour>
      <contour>
        <pt x="680" y="16" on="1"/>
        <pt x="634" y="1" on="0"/>
        <pt x="594" y="-1" on="1"/>
        <pt x="553" y="-8" on="0"/>
        <pt x="508" y="-8" on="1"/>
        <pt x="267" y="-8" on="0"/>
        <pt x="120" y="145" on="1"/>
        <pt x="-26" y="296" on="0"/>
        <pt x="-26" y="552" on="1"/>
        <pt x="-26" y="740" on="0"/>
        <pt x="60" y="923" on="1"/>
        <pt x="147" y="1108" on="0"/>
        <pt x="302" y="1248" on="1"/>
        <pt x="419" y="1355" on="0"/>
        <pt x="559" y="1409" on="1"/>
        <pt x="701" y="1465" on="0"/>
        <pt x="848" y="1465" on="1"/>
        <pt x="1079" y="1465" on="0"/>
        <pt x="1226" y="1314" on="1"/>
        <pt x="1372" y="1163" on="0"/>
        <pt x="1372" y="923" on="1"/>
        <pt x="1372" y="663" on="0"/>
        <pt x="1212" y="424" on="1"/>
        <pt x="1053" y="183" on="0"/>
        <pt x="789" y="52" on="1"/>
        <pt x="835" y="-37" on="0"/>
        <pt x="897" y="-95" on="1"/>
        <pt x="960" y="-153" on="0"/>
        <pt x="1048" y="-188" on="1"/>
        <pt x="963" y="-270" on="1"/>
        <pt x="894" y="-261" on="0"/>
        <pt x="830" y="-197" on="1"/>
        <pt x="768" y="-136" on="0"/>
        <pt x="680" y="15" on="1"/>
      </contour>
      <contour>
        <pt x="618" y="841" on="1"/>
        <pt x="610" y="907" on="0"/>
        <pt x="685" y="1020" on="0"/>
        <pt x="762" y="1043" on="1"/>
        <pt x="837" y="1061" on="0"/>
        <pt x="981" y="1003" on="0"/>
        <pt x="1005" y="933" on="1"/>
        <pt x="1009" y="922" on="0"/>
        <pt x="1027" y="846" on="0"/>
        <pt x="1001" y="799" on="1"/>
        <pt x="936" y="687" on="0"/>
        <pt x="760" y="472" on="0"/>
        <pt x="743" y="352" on="1"/>
        <pt x="679" y="451" on="0"/>
        <pt x="425" y="553" on="0"/>
        <pt x="319" y="620" on="1"/>
        <pt x="274" y="648" on="0"/>
        <pt x="248" y="715" on="0"/>
        <pt x="242" y="731" on="1"/>
        <pt x="225" y="803" on="0"/>
        <pt x="318" y="926" on="0"/>
        <pt x="393" y="947" on="1"/>
        <pt x="470" y="965" on="0"/>
        <pt x="591" y="902" on="0"/>
      </contour>
    </TTGlyph>
    <TTGlyph name="R" xMin="-256" yMin="-211" xMax="1465" yMax="1881">
      <contour>
        <pt x="239" y="68" on="1"/>
        <pt x="231" y="137" on="0"/>
        <pt x="304" y="158" on="1"/>
        <pt x="389" y="178" on="0"/>
        <pt x="413" y="109" on="1"/>
        <pt x="415" y="103" on="0"/>
        <pt x="423" y="70" on="0"/>
        <pt x="411" y="49" on="1"/>
        <pt x="382" y="0" on="0"/>
        <pt x="303" y="-97" on="0"/>
        <pt x="296" y="-151" on="1"/>
        <pt x="267" y="-106" on="0"/>
        <pt x="153" y="-61" on="0"/>
        <pt x="105" y="-31" on="1"/>
        <pt x="84" y="-18" on="0"/>
        <pt x="74" y="11" on="0"/>
        <pt x="71" y="18" on="1"/>
        <pt x="54" y="90" on="0"/>
        <pt x="139" y="115" on="1"/>
        <pt x="210" y="132" on="0"/>
      </contour>
      <contour>
        <pt x="-137" y="-211" on="1"/>
        <pt x="-256" y="-143" on="1"/>
        <pt x="-186" y="64" on="0"/>
        <pt x="17" y="657" on="0"/>
        <pt x="65" y="827" on="1"/>
        <pt x="111" y="995" on="0"/>
        <pt x="182" y="1281" on="0"/>
        <pt x="204" y="1396" on="1"/>
        <pt x="368" y="1447" on="1"/>
        <pt x="339" y="1328" on="0"/>
        <pt x="269" y="1069" on="0"/>
        <pt x="230" y="929" on="1"/>
        <pt x="146" y="640" on="0"/>
        <pt x="44" y="325" on="1"/>
        <pt x="317" y="935" on="0"/>
        <pt x="527" y="1201" on="1"/>
        <pt x="735" y="1467" on="0"/>
        <pt x="939" y="1467" on="1"/>
        <pt x="1050" y="1467" on="0"/>
        <pt x="1124" y="1398" on="1"/>
        <pt x="1197" y="1328" on="0"/>
        <pt x="1197" y="1224" on="1"/>
        <pt x="1197" y="1084" on="0"/>
        <pt x="1093" y="958" on="1"/>
        <pt x="990" y="830" on="0"/>
        <pt x="790" y="724" on="1"/>
        <pt x="663" y="656" on="0"/>
        <pt x="507" y="597" on="1"/>
        <pt x="356" y="538" on="0"/>
        <pt x="356" y="525" on="1"/>
        <pt x="356" y="499" on="0"/>
        <pt x="503" y="376" on="1"/>
        <pt x="654" y="250" on="0"/>
        <pt x="874" y="99" on="1"/>
        <pt x="794" y="-2" on="1"/>
        <pt x="542" y="162" on="0"/>
        <pt x="393" y="297" on="1"/>
        <pt x="243" y="430" on="0"/>
        <pt x="243" y="486" on="1"/>
        <pt x="243" y="524" on="0"/>
        <pt x="377" y="586" on="1"/>
        <pt x="515" y="648" on="0"/>
        <pt x="607" y="703" on="1"/>
        <pt x="827" y="834" on="0"/>
        <pt x="945" y="982" on="1"/>
        <pt x="1064" y="1131" on="0"/>
        <pt x="1064" y="1269" on="1"/>
        <pt x="1064" y="1340" on="0"/>
        <pt x="1024" y="1387" on="1"/>
        <pt x="983" y="1433" on="0"/>
        <pt x="921" y="1433" on="1"/>
        <pt x="713" y="1433" on="0"/>
        <pt x="472" y="1073" on="1"/>
        <pt x="352" y="895" on="0"/>
        <pt x="1" y="143" on="0"/>
      </contour>
      <contour>
        <pt x="1194" y="1736" on="1"/>
        <pt x="1181" y="1838" on="0"/>
        <pt x="1289" y="1869" on="1"/>
        <pt x="1339" y="1881" on="0"/>
        <pt x="1435" y="1844" on="0"/>
        <pt x="1451" y="1797" on="1"/>
        <pt x="1453" y="1789" on="0"/>
        <pt x="1465" y="1739" on="0"/>
        <pt x="1448" y="1708" on="1"/>
        <pt x="1405" y="1633" on="0"/>
        <pt x="1288" y="1490" on="0"/>
        <pt x="1277" y="1411" on="1"/>
        <pt x="1235" y="1477" on="0"/>
        <pt x="1065" y="1544" on="0"/>
        <pt x="995" y="1589" on="1"/>
        <pt x="965" y="1607" on="0"/>
        <pt x="948" y="1652" on="0"/>
        <pt x="945" y="1663" on="1"/>
        <pt x="933" y="1711" on="0"/>
        <pt x="994" y="1791" on="0"/>
        <pt x="1044" y="1806" on="1"/>
        <pt x="1151" y="1830" on="0"/>
      </contour>
    </TTGlyph>
    <TTGlyph name="S" xMin="-248" yMin="-4" xMax="1316" yMax="1482">
      <contour>
        <pt x="-248" y="87" on="1"/>
        <pt x="-153" y="191" on="1"/>
        <pt x="-5" y="110" on="0"/>
        <pt x="130" y="72" on="1"/>
        <pt x="271" y="34" on="0"/>
        <pt x="409" y="34" on="1"/>
        <pt x="621" y="34" on="0"/>
        <pt x="754" y="113" on="1"/>
        <pt x="884" y="192" on="0"/>
        <pt x="884" y="320" on="1"/>
        <pt x="884" y="377" on="0"/>
        <pt x="849" y="431" on="1"/>
        <pt x="813" y="484" on="0"/>
        <pt x="700" y="579" on="1"/>
        <pt x="517" y="728" on="1"/>
        <pt x="413" y="813" on="0"/>
        <pt x="362" y="891" on="1"/>
        <pt x="311" y="967" on="0"/>
        <pt x="311" y="1039" on="1"/>
        <pt x="311" y="1126" on="0"/>
        <pt x="385" y="1219" on="1"/>
        <pt x="458" y="1308" on="0"/>
        <pt x="589" y="1377" on="1"/>
        <pt x="684" y="1426" on="0"/>
        <pt x="803" y="1454" on="1"/>
        <pt x="919" y="1482" on="0"/>
        <pt x="1040" y="1482" on="1"/>
        <pt x="1165" y="1482" on="0"/>
        <pt x="1240" y="1435" on="1"/>
        <pt x="1316" y="1387" on="0"/>
        <pt x="1316" y="1312" on="1"/>
        <pt x="1316" y="1250" on="0"/>
        <pt x="1257" y="1174" on="1"/>
        <pt x="1201" y="1099" on="0"/>
        <pt x="1079" y="996" on="1"/>
        <pt x="939" y="1058" on="1"/>
        <pt x="1064" y="1133" on="0"/>
        <pt x="1141" y="1212" on="1"/>
        <pt x="1214" y="1287" on="0"/>
        <pt x="1214" y="1340" on="1"/>
        <pt x="1214" y="1392" on="0"/>
        <pt x="1166" y="1421" on="1"/>
        <pt x="1118" y="1449" on="0"/>
        <pt x="1027" y="1449" on="1"/>
        <pt x="937" y="1449" on="0"/>
        <pt x="842" y="1427" on="1"/>
        <pt x="750" y="1404" on="0"/>
        <pt x="665" y="1361" on="1"/>
        <pt x="554" y="1305" on="0"/>
        <pt x="495" y="1235" on="1"/>
        <pt x="435" y="1166" on="0"/>
        <pt x="435" y="1091" on="1"/>
        <pt x="435" y="1036" on="0"/>
        <pt x="472" y="985" on="1"/>
        <pt x="513" y="927" on="0"/>
        <pt x="591" y="865" on="1"/>
        <pt x="847" y="663" on="1"/>
        <pt x="930" y="595" on="0"/>
        <pt x="975" y="521" on="1"/>
        <pt x="1017" y="447" on="0"/>
        <pt x="1017" y="370" on="1"/>
        <pt x="1017" y="193" on="0"/>
        <pt x="847" y="94" on="1"/>
        <pt x="677" y="-4" on="0"/>
        <pt x="368" y="-4" on="1"/>
        <pt x="219" y="-4" on="0"/>
        <pt x="68" y="18" on="1"/>
        <pt x="-77" y="39" on="0"/>
        <pt x="-248" y="87" on="1"/>
      </contour>
      <contour>
        <pt x="749" y="1170" on="1"/>
        <pt x="790" y="1237" on="0"/>
        <pt x="868" y="1206" on="1"/>
        <pt x="904" y="1189" on="0"/>
        <pt x="943" y="1122" on="0"/>
        <pt x="931" y="1087" on="1"/>
        <pt x="929" y="1081" on="0"/>
        <pt x="913" y="1045" on="0"/>
        <pt x="888" y="1035" on="1"/>
        <pt x="828" y="1010" on="0"/>
        <pt x="691" y="979" on="0"/>
        <pt x="648" y="937" on="1"/>
        <pt x="653" y="995" on="0"/>
        <pt x="583" y="1114" on="0"/>
        <pt x="562" y="1174" on="1"/>
        <pt x="552" y="1198" on="0"/>
        <pt x="562" y="1232" on="0"/>
        <pt x="565" y="1241" on="1"/>
        <pt x="599" y="1316" on="0"/>
        <pt x="692" y="1281" on="1"/>
        <pt x="768" y="1245" on="0"/>
      </contour>
      <contour>
        <pt x="322" y="462" on="1"/>
        <pt x="309" y="575" on="0"/>
        <pt x="428" y="610" on="1"/>
        <pt x="484" y="623" on="0"/>
        <pt x="589" y="581" on="0"/>
        <pt x="607" y="529" on="1"/>
        <pt x="610" y="521" on="0"/>
        <pt x="623" y="465" on="0"/>
        <pt x="604" y="431" on="1"/>
        <pt x="556" y="348" on="0"/>
        <pt x="427" y="190" on="0"/>
        <pt x="415" y="102" on="1"/>
        <pt x="367" y="175" on="0"/>
        <pt x="181" y="250" on="0"/>
        <pt x="103" y="299" on="1"/>
        <pt x="70" y="320" on="0"/>
        <pt x="51" y="369" on="0"/>
        <pt x="46" y="381" on="1"/>
        <pt x="34" y="434" on="0"/>
        <pt x="102" y="524" on="0"/>
        <pt x="157" y="540" on="1"/>
        <pt x="276" y="566" on="0"/>
      </contour>
    </TTGlyph>
    <TTGlyph name="T" xMin="-176" yMin="-18" xMax="1857" yMax="1443">
      <contour>
        <pt x="-176" y="52" on="1"/>
        <pt x="-102" y="153" on="1"/>
        <pt x="26" y="85" on="0"/>
        <pt x="126" y="52" on="1"/>
        <pt x="225" y="21" on="0"/>
        <pt x="302" y="21" on="1"/>
        <pt x="535" y="21" on="0"/>
        <pt x="688" y="241" on="1"/>
        <pt x="840" y="465" on="0"/>
        <pt x="1021" y="1136" on="1"/>
        <pt x="1066" y="1308" on="1"/>
        <pt x="1030" y="1311" on="0"/>
        <pt x="955" y="1318" on="0"/>
        <pt x="916" y="1320" on="1"/>
        <pt x="848" y="1324" on="0"/>
        <pt x="751" y="1324" on="1"/>
        <pt x="409" y="1324" on="0"/>
        <pt x="253" y="1288" on="1"/>
        <pt x="95" y="1250" on="0"/>
        <pt x="95" y="1172" on="1"/>
        <pt x="95" y="1107" on="0"/>
        <pt x="196" y="1070" on="1"/>
        <pt x="298" y="1032" on="0"/>
        <pt x="526" y="1013" on="1"/>
        <pt x="460" y="916" on="1"/>
        <pt x="265" y="949" on="0"/>
        <pt x="163" y="1013" on="1"/>
        <pt x="59" y="1077" on="0"/>
        <pt x="59" y="1168" on="1"/>
        <pt x="59" y="1297" on="0"/>
        <pt x="265" y="1370" on="1"/>
        <pt x="469" y="1443" on="0"/>
        <pt x="841" y="1443" on="1"/>
        <pt x="951" y="1443" on="0"/>
        <pt x="1044" y="1436" on="1"/>
        <pt x="1136" y="1430" on="0"/>
        <pt x="1238" y="1416" on="1"/>
        <pt x="1237" y="1412" on="0"/>
        <pt x="1372" y="1387" on="0"/>
        <pt x="1551" y="1354" on="0"/>
        <pt x="1724" y="1319" on="0"/>
        <pt x="1762" y="1307" on="1"/>
        <pt x="1857" y="1275" on="0"/>
        <pt x="1686" y="1233" on="0"/>
        <pt x="1684" y="1224" on="1"/>
        <pt x="1543" y="1249" on="0"/>
        <pt x="1304" y="1293" on="0"/>
        <pt x="1211" y="1290" on="1"/>
        <pt x="1167" y="1136" on="1"/>
        <pt x="1084" y="812" on="0"/>
        <pt x="997" y="586" on="1"/>
        <pt x="908" y="360" on="0"/>
        <pt x="818" y="243" on="1"/>
        <pt x="720" y="116" on="0"/>
        <pt x="569" y="50" on="1"/>
        <pt x="418" y="-17" on="0"/>
        <pt x="233" y="-18" on="1"/>
        <pt x="140" y="-18" on="0"/>
        <pt x="35" y="-1" on="1"/>
        <pt x="-64" y="15" on="0"/>
        <pt x="-176" y="52" on="1"/>
      </contour>
      <contour>
        <pt x="765" y="1119" on="1"/>
        <pt x="805" y="1185" on="0"/>
        <pt x="881" y="1154" on="1"/>
        <pt x="916" y="1138" on="0"/>
        <pt x="955" y="1073" on="0"/>
        <pt x="943" y="1039" on="1"/>
        <pt x="941" y="1033" on="0"/>
        <pt x="925" y="997" on="0"/>
        <pt x="901" y="988" on="1"/>
        <pt x="842" y="964" on="0"/>
        <pt x="709" y="933" on="0"/>
        <pt x="667" y="891" on="1"/>
        <pt x="672" y="948" on="0"/>
        <pt x="603" y="1065" on="0"/>
        <pt x="582" y="1123" on="1"/>
        <pt x="573" y="1147" on="0"/>
        <pt x="583" y="1180" on="0"/>
        <pt x="586" y="1189" on="1"/>
        <pt x="601" y="1222" on="0"/>
        <pt x="673" y="1242" on="0"/>
        <pt x="709" y="1228" on="1"/>
        <pt x="784" y="1193" on="0"/>
      </contour>
      <contour>
        <pt x="412" y="588" on="1"/>
        <pt x="399" y="704" on="0"/>
        <pt x="521" y="741" on="1"/>
        <pt x="578" y="754" on="0"/>
        <pt x="688" y="711" on="0"/>
        <pt x="706" y="657" on="1"/>
        <pt x="709" y="649" on="0"/>
        <pt x="722" y="592" on="0"/>
        <pt x="702" y="556" on="1"/>
        <pt x="653" y="471" on="0"/>
        <pt x="519" y="307" on="0"/>
        <pt x="507" y="217" on="1"/>
        <pt x="459" y="292" on="0"/>
        <pt x="266" y="369" on="0"/>
        <pt x="186" y="420" on="1"/>
        <pt x="151" y="441" on="0"/>
        <pt x="132" y="492" on="0"/>
        <pt x="128" y="504" on="1"/>
        <pt x="115" y="559" on="0"/>
        <pt x="185" y="652" on="0"/>
        <pt x="242" y="668" on="1"/>
        <pt x="364" y="696" on="0"/>
      </contour>
    </TTGlyph>
    <TTGlyph name="Thorn" xMin="40" yMin="0" xMax="1362" yMax="1427">
      <contour>
        <pt x="69" y="26" on="1"/>
        <pt x="1333" y="26" on="1"/>
        <pt x="1333" y="1402" on="1"/>
        <pt x="69" y="1402" on="1"/>
      </contour>
      <contour>
        <pt x="40" y="0" on="1"/>
        <pt x="40" y="1427" on="1"/>
        <pt x="1362" y="1427" on="1"/>
        <pt x="1362" y="0" on="1"/>
      </contour>
    </TTGlyph>
    <TTGlyph name="U" xMin="57" yMin="-98" xMax="1416" yMax="1701">
      <contour>
        <pt x="167" y="959" on="1"/>
        <pt x="57" y="1048" on="1"/>
        <pt x="163" y="1238" on="0"/>
        <pt x="289" y="1351" on="1"/>
        <pt x="412" y="1463" on="0"/>
        <pt x="515" y="1463" on="1"/>
        <pt x="570" y="1463" on="0"/>
        <pt x="601" y="1425" on="1"/>
        <pt x="632" y="1386" on="0"/>
        <pt x="632" y="1318" on="1"/>
        <pt x="632" y="1254" on="0"/>
        <pt x="607" y="1153" on="1"/>
        <pt x="581" y="1046" on="0"/>
        <pt x="532" y="896" on="1"/>
        <pt x="378" y="431" on="1"/>
        <pt x="346" y="335" on="0"/>
        <pt x="326" y="253" on="1"/>
        <pt x="308" y="179" on="0"/>
        <pt x="308" y="142" on="1"/>
        <pt x="308" y="94" on="0"/>
        <pt x="329" y="67" on="1"/>
        <pt x="348" y="40" on="0"/>
        <pt x="386" y="40" on="1"/>
        <pt x="545" y="40" on="0"/>
        <pt x="767" y="400" on="1"/>
        <pt x="991" y="761" on="0"/>
        <pt x="1261" y="1449" on="1"/>
        <pt x="1416" y="1449" on="1"/>
        <pt x="1249" y="985" on="0"/>
        <pt x="1136" y="616" on="1"/>
        <pt x="1077" y="422" on="0"/>
        <pt x="979" y="65" on="0"/>
        <pt x="941" y="-98" on="1"/>
        <pt x="806" y="-39" on="1"/>
        <pt x="865" y="186" on="0"/>
        <pt x="963" y="498" on="1"/>
        <pt x="1056" y="798" on="0"/>
        <pt x="1179" y="1164" on="1"/>
        <pt x="921" y="554" on="0"/>
        <pt x="724" y="274" on="1"/>
        <pt x="526" y="-4" on="0"/>
        <pt x="358" y="-4" on="1"/>
        <pt x="270" y="-4" on="0"/>
        <pt x="225" y="41" on="1"/>
        <pt x="179" y="87" on="0"/>
        <pt x="179" y="177" on="1"/>
        <pt x="179" y="226" on="0"/>
        <pt x="204" y="333" on="1"/>
        <pt x="228" y="428" on="0"/>
        <pt x="278" y="581" on="1"/>
        <pt x="386" y="904" on="1"/>
        <pt x="395" y="933" on="0"/>
        <pt x="423" y="1014" on="0"/>
        <pt x="441" y="1065" on="1"/>
        <pt x="526" y="1310" on="0"/>
        <pt x="526" y="1369" on="1"/>
        <pt x="526" y="1398" on="0"/>
        <pt x="516" y="1411" on="1"/>
        <pt x="507" y="1424" on="0"/>
        <pt x="487" y="1424" on="1"/>
        <pt x="432" y="1424" on="0"/>
        <pt x="344" y="1298" on="1"/>
        <pt x="255" y="1170" on="0"/>
        <pt x="167" y="959" on="1"/>
      </contour>
      <contour>
        <pt x="830" y="1549" on="1"/>
        <pt x="878" y="1629" on="0"/>
        <pt x="974" y="1593" on="1"/>
        <pt x="1016" y="1573" on="0"/>
        <pt x="1065" y="1492" on="0"/>
        <pt x="1050" y="1450" on="1"/>
        <pt x="1048" y="1443" on="0"/>
        <pt x="1028" y="1399" on="0"/>
        <pt x="998" y="1387" on="1"/>
        <pt x="926" y="1357" on="0"/>
        <pt x="761" y="1319" on="0"/>
        <pt x="709" y="1268" on="1"/>
        <pt x="715" y="1339" on="0"/>
        <pt x="631" y="1482" on="0"/>
        <pt x="605" y="1554" on="1"/>
        <pt x="593" y="1584" on="0"/>
        <pt x="606" y="1625" on="0"/>
        <pt x="609" y="1635" on="1"/>
        <pt x="628" y="1676" on="0"/>
        <pt x="717" y="1701" on="0"/>
        <pt x="762" y="1683" on="1"/>
        <pt x="854" y="1640" on="0"/>
      </contour>
    </TTGlyph>
</ttFont>
